<?xml version="1.0" encoding="utf-8" standalone="no"?>
<!DOCTYPE svg PUBLIC "-//W3C//DTD SVG 1.1//EN"
  "http://www.w3.org/Graphics/SVG/1.1/DTD/svg11.dtd">
<!-- Created with matplotlib (http://matplotlib.org/) -->
<svg height="504pt" version="1.1" viewBox="0 0 1080 504" width="1080pt" xmlns="http://www.w3.org/2000/svg" xmlns:xlink="http://www.w3.org/1999/xlink">
 <defs>
  <style type="text/css">
*{stroke-linecap:butt;stroke-linejoin:round;}
  </style>
 </defs>
 <g id="figure_1">
  <g id="patch_1">
   <path d="M 0 504 
L 1080 504 
L 1080 0 
L 0 0 
z
" style="fill:#ffffff;"/>
  </g>
  <g id="axes_1">
   <g id="patch_2">
    <path d="M 71.317102 441.517384 
L 530.174471 441.517384 
L 530.174471 50.11613 
L 71.317102 50.11613 
z
" style="fill:#ffffff;"/>
   </g>
   <g id="matplotlib.axis_1">
    <g id="xtick_1">
     <g id="line2d_1">
      <defs>
       <path d="M 0 0 
L 0 3.5 
" id="m515c70a91e" style="stroke:#000000;stroke-width:0.8;"/>
      </defs>
      <g>
       <use style="stroke:#000000;stroke-width:0.8;" x="71.317102" xlink:href="#m515c70a91e" y="441.517384"/>
      </g>
     </g>
     <g id="text_1">
      <!-- $300$ -->
      <defs>
       <path d="M 22.09375 33.703125 
C 31 33.703125 34.90625 25.96875 34.90625 17.03125 
C 34.90625 5 28.5 0.390625 22.703125 0.390625 
C 17.40625 0.390625 8.796875 3.03125 6.09375 10.828125 
C 6.59375 10.625 7.09375 10.625 7.59375 10.625 
C 10 10.625 11.796875 12.21875 11.796875 14.8125 
C 11.796875 17.703125 9.59375 19 7.59375 19 
C 5.90625 19 3.296875 18.203125 3.296875 14.46875 
C 3.296875 5.234375 12.296875 -2 22.90625 -2 
C 34 -2 42.5 6.71875 42.5 16.953125 
C 42.5 26.671875 34.5 33.703125 25 34.796875 
C 32.59375 36.375 39.90625 43.0625 39.90625 52.015625 
C 39.90625 59.6875 32 65.296875 23 65.296875 
C 13.90625 65.296875 5.90625 59.828125 5.90625 52.015625 
C 5.90625 48.59375 8.5 48 9.796875 48 
C 11.90625 48 13.703125 49.296875 13.703125 51.890625 
C 13.703125 54.46875 11.90625 55.765625 9.796875 55.765625 
C 9.40625 55.765625 8.90625 55.765625 8.5 55.578125 
C 11.40625 61.859375 19.296875 63 22.796875 63 
C 26.296875 63 32.90625 61.328125 32.90625 51.875 
C 32.90625 49.109375 32.5 44.1875 29.09375 39.84375 
C 26.09375 36 22.703125 36 19.40625 35.6875 
C 18.90625 35.6875 16.59375 35.453125 16.203125 35.453125 
C 15.5 35.359375 15.09375 35.265625 15.09375 34.5 
C 15.09375 33.796875 15.203125 33.703125 17.203125 33.703125 
z
" id="CMR17-51"/>
       <path d="M 42 31.640625 
C 42 37.75 41.90625 48.125 37.703125 56.109375 
C 34 63.109375 28.09375 65.59375 22.90625 65.59375 
C 18.09375 65.59375 12 63.40625 8.203125 56.203125 
C 4.203125 48.71875 3.796875 39.4375 3.796875 31.640625 
C 3.796875 25.953125 3.90625 17.28125 7 9.671875 
C 11.296875 -0.609375 19 -2 22.90625 -2 
C 27.5 -2 34.5 -0.109375 38.59375 9.375 
C 41.59375 16.28125 42 24.359375 42 31.640625 
z
M 22.90625 -0.40625 
C 16.5 -0.40625 12.703125 5.078125 11.296875 12.6875 
C 10.203125 18.5625 10.203125 27.15625 10.203125 32.75 
C 10.203125 40.4375 10.203125 46.828125 11.5 52.921875 
C 13.40625 61.390625 19 64 22.90625 64 
C 27 64 32.296875 61.296875 34.203125 53.125 
C 35.5 47.4375 35.59375 40.734375 35.59375 32.75 
C 35.59375 26.25 35.59375 18.265625 34.40625 12.375 
C 32.296875 1.484375 26.40625 -0.40625 22.90625 -0.40625 
z
" id="CMR17-48"/>
      </defs>
      <g transform="translate(59.66603 460.278835)scale(0.17 -0.17)">
       <use transform="scale(0.996264)" xlink:href="#CMR17-51"/>
       <use transform="translate(45.690477 0)scale(0.996264)" xlink:href="#CMR17-48"/>
       <use transform="translate(91.380954 0)scale(0.996264)" xlink:href="#CMR17-48"/>
      </g>
     </g>
    </g>
    <g id="xtick_2">
     <g id="line2d_2">
      <g>
       <use style="stroke:#000000;stroke-width:0.8;" x="154.745714" xlink:href="#m515c70a91e" y="441.517384"/>
      </g>
     </g>
     <g id="text_2">
      <!-- $400$ -->
      <defs>
       <path d="M 33.59375 64.40625 
C 33.59375 66.5 33.5 66.5 31.703125 66.5 
L 2 19.59375 
L 2 17 
L 27.796875 17 
L 27.796875 7.140625 
C 27.796875 3.5 27.59375 2.5 20.59375 2.5 
L 18.703125 2.5 
L 18.703125 0 
C 21.90625 0 27.296875 0 30.703125 0 
C 34.09375 0 39.5 0 42.703125 0 
L 42.703125 2.5 
L 40.796875 2.5 
C 33.796875 2.5 33.59375 3.5 33.59375 7.140625 
L 33.59375 17 
L 43.796875 17 
L 43.796875 19.59375 
L 33.59375 19.59375 
z
M 28.09375 57.859375 
L 28.09375 19.59375 
L 4 19.59375 
z
" id="CMR17-52"/>
      </defs>
      <g transform="translate(143.094643 460.278835)scale(0.17 -0.17)">
       <use transform="scale(0.996264)" xlink:href="#CMR17-52"/>
       <use transform="translate(45.690477 0)scale(0.996264)" xlink:href="#CMR17-48"/>
       <use transform="translate(91.380954 0)scale(0.996264)" xlink:href="#CMR17-48"/>
      </g>
     </g>
    </g>
    <g id="xtick_3">
     <g id="line2d_3">
      <g>
       <use style="stroke:#000000;stroke-width:0.8;" x="238.174327" xlink:href="#m515c70a91e" y="441.517384"/>
      </g>
     </g>
     <g id="text_3">
      <!-- $500$ -->
      <defs>
       <path d="M 11.40625 57.6875 
C 12.40625 57.28125 16.5 56 20.703125 56 
C 30 56 35.09375 61.109375 38 64.0625 
C 38 64.953125 38 65.5 37.40625 65.5 
C 37.296875 65.5 37.09375 65.5 36.296875 65.046875 
C 32.796875 63.40625 28.703125 62.078125 23.703125 62.078125 
C 20.703125 62.078125 16.203125 62.484375 11.296875 64.671875 
C 10.203125 65.171875 10 65.171875 9.90625 65.171875 
C 9.40625 65.171875 9.296875 65.0625 9.296875 63.078125 
L 9.296875 34.421875 
C 9.296875 32.640625 9.296875 32.140625 10.296875 32.140625 
C 10.796875 32.140625 11 32.34375 11.5 33.03125 
C 14.703125 37.515625 19.09375 39.40625 24.09375 39.40625 
C 27.59375 39.40625 35.09375 37.21875 35.09375 20.140625 
C 35.09375 16.953125 35.09375 11.171875 32.09375 6.578125 
C 29.59375 2.484375 25.703125 0.390625 21.40625 0.390625 
C 14.796875 0.390625 8.09375 5 6.296875 12.71875 
C 6.703125 12.609375 7.5 12.421875 7.90625 12.421875 
C 9.203125 12.421875 11.703125 13.125 11.703125 16.21875 
C 11.703125 18.90625 9.796875 20 7.90625 20 
C 5.59375 20 4.09375 18.59375 4.09375 15.796875 
C 4.09375 7.09375 11 -2 21.59375 -2 
C 31.90625 -2 41.703125 6.875 41.703125 19.75 
C 41.703125 31.71875 33.90625 41 24.203125 41 
C 19.09375 41 14.796875 39.109375 11.40625 35.53125 
z
" id="CMR17-53"/>
      </defs>
      <g transform="translate(226.523255 460.278835)scale(0.17 -0.17)">
       <use transform="scale(0.996264)" xlink:href="#CMR17-53"/>
       <use transform="translate(45.690477 0)scale(0.996264)" xlink:href="#CMR17-48"/>
       <use transform="translate(91.380954 0)scale(0.996264)" xlink:href="#CMR17-48"/>
      </g>
     </g>
    </g>
    <g id="xtick_4">
     <g id="line2d_4">
      <g>
       <use style="stroke:#000000;stroke-width:0.8;" x="321.60294" xlink:href="#m515c70a91e" y="441.517384"/>
      </g>
     </g>
     <g id="text_4">
      <!-- $600$ -->
      <defs>
       <path d="M 10.59375 34 
C 10.59375 57.65625 21.796875 63 28.296875 63 
C 30.40625 63 35.5 62.640625 37.5 59 
C 35.90625 59 32.90625 59 32.90625 55.515625 
C 32.90625 52.828125 35.09375 51.921875 36.5 51.921875 
C 37.40625 51.921875 40.09375 52.3125 40.09375 55.625 
C 40.09375 61.78125 35.09375 65.296875 28.203125 65.296875 
C 16.296875 65.296875 3.796875 52.96875 3.796875 31 
C 3.796875 3.953125 15.09375 -2 23.09375 -2 
C 32.796875 -2 42 6.671875 42 20.046875 
C 42 32.515625 33.90625 41.59375 23.703125 41.59375 
C 17.59375 41.59375 13.09375 37.609375 10.59375 30.625 
z
M 23.09375 0.390625 
C 10.796875 0.390625 10.796875 18.75 10.796875 22.4375 
C 10.796875 29.625 14.203125 40 23.5 40 
C 25.203125 40 30.09375 40 33.40625 33.125 
C 35.203125 29.21875 35.203125 25.140625 35.203125 20.140625 
C 35.203125 14.75 35.203125 10.78125 33.09375 6.78125 
C 30.90625 2.671875 27.703125 0.390625 23.09375 0.390625 
z
" id="CMR17-54"/>
      </defs>
      <g transform="translate(309.951868 460.278835)scale(0.17 -0.17)">
       <use transform="scale(0.996264)" xlink:href="#CMR17-54"/>
       <use transform="translate(45.690477 0)scale(0.996264)" xlink:href="#CMR17-48"/>
       <use transform="translate(91.380954 0)scale(0.996264)" xlink:href="#CMR17-48"/>
      </g>
     </g>
    </g>
    <g id="xtick_5">
     <g id="line2d_5">
      <g>
       <use style="stroke:#000000;stroke-width:0.8;" x="405.031552" xlink:href="#m515c70a91e" y="441.517384"/>
      </g>
     </g>
     <g id="text_5">
      <!-- $700$ -->
      <defs>
       <path d="M 45.09375 61.578125 
L 45.09375 63.765625 
L 21.59375 63.765625 
C 9.90625 63.765625 9.703125 65.078125 9.296875 67 
L 7.5 67 
L 4.59375 48.34375 
L 6.40625 48.34375 
C 6.703125 50.234375 7.40625 55.3125 8.59375 57.203125 
C 9.203125 58 16.59375 58 18.296875 58 
L 40.296875 58 
L 29.203125 41.578125 
C 21.796875 30.53125 16.703125 15.609375 16.703125 2.578125 
C 16.703125 1.390625 16.703125 -2 20.296875 -2 
C 23.90625 -2 23.90625 1.390625 23.90625 2.671875 
L 23.90625 7.265625 
C 23.90625 23.5625 26.703125 34.3125 31.296875 41.1875 
z
" id="CMR17-55"/>
      </defs>
      <g transform="translate(393.38048 460.278835)scale(0.17 -0.17)">
       <use transform="scale(0.996264)" xlink:href="#CMR17-55"/>
       <use transform="translate(45.690477 0)scale(0.996264)" xlink:href="#CMR17-48"/>
       <use transform="translate(91.380954 0)scale(0.996264)" xlink:href="#CMR17-48"/>
      </g>
     </g>
    </g>
    <g id="xtick_6">
     <g id="line2d_6">
      <g>
       <use style="stroke:#000000;stroke-width:0.8;" x="488.460165" xlink:href="#m515c70a91e" y="441.517384"/>
      </g>
     </g>
     <g id="text_6">
      <!-- $800$ -->
      <defs>
       <path d="M 27.203125 35.375 
C 33.5 38.546875 39.90625 43.328125 39.90625 50.984375 
C 39.90625 60.015625 31.09375 65.296875 23 65.296875 
C 13.90625 65.296875 5.90625 58.734375 5.90625 49.6875 
C 5.90625 47.203125 6.5 42.921875 10.40625 39.140625 
C 11.40625 38.15625 15.59375 35.171875 18.296875 33.28125 
C 13.796875 30.984375 3.296875 25.53125 3.296875 14.59375 
C 3.296875 4.359375 13.09375 -2 22.796875 -2 
C 33.5 -2 42.5 5.65625 42.5 15.78125 
C 42.5 24.84375 36.40625 29.015625 32.40625 31.703125 
z
M 14.09375 44.09375 
C 13.296875 44.59375 9.296875 47.671875 9.296875 52.359375 
C 9.296875 58.421875 15.59375 63 22.796875 63 
C 30.703125 63 36.5 57.4375 36.5 50.96875 
C 36.5 41.703125 26.09375 36.421875 25.59375 36.421875 
C 25.5 36.421875 25.40625 36.421875 24.59375 37.03125 
z
M 32.5 23.734375 
C 34 22.640625 38.796875 19.375 38.796875 13.296875 
C 38.796875 5.953125 31.40625 0.390625 23 0.390625 
C 13.90625 0.390625 7 6.84375 7 14.6875 
C 7 22.546875 13.09375 29.09375 20 32.1875 
z
" id="CMR17-56"/>
      </defs>
      <g transform="translate(476.809093 460.278835)scale(0.17 -0.17)">
       <use transform="scale(0.996264)" xlink:href="#CMR17-56"/>
       <use transform="translate(45.690477 0)scale(0.996264)" xlink:href="#CMR17-48"/>
       <use transform="translate(91.380954 0)scale(0.996264)" xlink:href="#CMR17-48"/>
      </g>
     </g>
    </g>
    <g id="text_7">
     <!-- FICO score -->
     <defs>
      <path d="M 45.59375 31 
L 45.59375 37.078125 
L 17.203125 37.078125 
L 17.203125 62 
L 29.40625 62 
C 30.59375 62 31.796875 62 33 62 
L 49.5 62 
L 49.5 68.359375 
L 8.796875 68.359375 
L 8.796875 -0.5 
L 17.203125 -0.5 
L 17.203125 31 
z
" id="CMSS17-70"/>
      <path d="M 17.09375 69 
L 8.703125 69 
L 8.703125 0 
L 17.09375 0 
z
" id="CMSS17-73"/>
      <path d="M 54.703125 11.15625 
C 48 6.671875 44.90625 5.375 36.796875 5.375 
C 22.796875 5.375 14.59375 20.359375 14.59375 34.046875 
C 14.59375 48.625 23 63 37.203125 63 
C 43.59375 63 47.796875 61.21875 52.90625 58.046875 
L 54.296875 65.890625 
C 49.5 68.28125 43.40625 69.375 37.296875 69.375 
C 18.09375 69.375 6.203125 51.8125 6.203125 34.046875 
C 6.203125 14.484375 20.296875 -1 36.296875 -1 
C 44.90625 -1 47.90625 -0.296875 55.296875 4.375 
z
" id="CMSS17-67"/>
      <path d="M 64 34.03125 
C 64 54.734375 50.296875 70.265625 34.59375 70.265625 
C 18.90625 70.265625 5.203125 54.640625 5.203125 34.03125 
C 5.203125 13.234375 19.09375 -2 34.59375 -2 
C 50.09375 -2 64 13.234375 64 34.03125 
z
M 34.59375 4.265625 
C 23.59375 4.265625 13.59375 16.515625 13.59375 35.328125 
C 13.59375 53.640625 24.203125 64 34.59375 64 
C 45 64 55.59375 53.640625 55.59375 35.328125 
C 55.59375 16.421875 45.5 4.265625 34.59375 4.265625 
z
" id="CMSS17-79"/>
      <path d="M 32.203125 41.046875 
C 26.296875 43.859375 21.703125 43.859375 18.703125 43.859375 
C 11.59375 43.859375 3.09375 41.375 3.09375 31.296875 
C 3.09375 21.234375 14.09375 19.03125 17.09375 18.421875 
C 21.703125 17.53125 26.796875 16.53125 26.796875 11.5625 
C 26.796875 5.265625 19.59375 5.265625 18.296875 5.265625 
C 14.296875 5.265625 8.796875 6.359375 3.796875 9.96875 
L 2.59375 3.28125 
C 8.296875 0 13.796875 -1 18.40625 -1 
C 30.703125 -1 33.796875 6.5 33.796875 12.203125 
C 33.796875 17.09375 31 20.390625 29.09375 21.890625 
C 25.796875 24.5 24.59375 24.796875 16.40625 26.5 
C 15 26.703125 10.09375 27.796875 10.09375 32.28125 
C 10.09375 38 16.40625 38 17.796875 38 
C 24.296875 38 28.296875 35.984375 31 34.5 
z
" id="CMSS17-115"/>
      <path d="M 38.5 39.703125 
C 38.5 40.390625 33.90625 42.40625 32.703125 42.796875 
C 29.40625 44 25.203125 44 24.09375 44 
C 11.09375 44 3.296875 32.703125 3.296875 21.296875 
C 3.296875 9.296875 12 -1 23.703125 -1 
C 30.40625 -1 35.203125 1.1875 39.09375 3.78125 
L 38.5 10.375 
C 34.203125 7.078125 29.203125 5.265625 23.796875 5.265625 
C 16 5.265625 10.90625 12.09375 10.90625 21.390625 
C 10.90625 28.609375 14.203125 37.71875 24.203125 37.71875 
C 29.703125 37.71875 32.796875 36.609375 37.40625 33.515625 
z
" id="CMSS17-99"/>
      <path d="M 44.203125 21.1875 
C 44.203125 34 34.703125 44 23.5 44 
C 12 44 2.703125 33.703125 2.703125 21.1875 
C 2.703125 8.5 12.296875 -1 23.40625 -1 
C 34.796875 -1 44.203125 8.796875 44.203125 21.1875 
z
M 23.5 5.265625 
C 16.40625 5.265625 10.296875 11.078125 10.296875 22 
C 10.296875 33.609375 17.40625 37.921875 23.40625 37.921875 
C 29.90625 37.921875 36.59375 33.21875 36.59375 22 
C 36.59375 10.671875 30.09375 5.265625 23.5 5.265625 
z
" id="CMSS17-111"/>
      <path d="M 14.90625 21.296875 
C 14.90625 30.703125 21.796875 37 30.59375 37 
L 30.59375 43.578125 
C 24.203125 43.578125 18.203125 40.390625 14.59375 35.203125 
L 14.59375 43.09375 
L 7.5 43.09375 
L 7.5 0 
L 14.90625 0 
z
" id="CMSS17-114"/>
      <path d="M 39.09375 21.515625 
C 39.09375 24.84375 38.90625 31.296875 35.703125 36.640625 
C 32.203125 42.390625 26.5 44 22.203125 44 
C 11.796875 44 3 34.1875 3 21.484375 
C 3 9.09375 12.09375 -1 23.59375 -1 
C 28.09375 -1 33.59375 0.296875 38.59375 3.875 
C 38.59375 4.28125 38.40625 6.46875 38.296875 6.5625 
C 38.296875 6.765625 38 9.84375 38 10.25 
C 33.203125 6.359375 27.703125 5.078125 23.703125 5.078125 
C 17.296875 5.078125 10.40625 10.421875 10.09375 21.515625 
z
M 10.90625 27 
C 12.203125 32.5625 16.59375 37.828125 22.203125 37.828125 
C 23.703125 37.828125 30.703125 37.828125 32.5 27 
z
" id="CMSS17-101"/>
     </defs>
     <g transform="translate(256.424313 481.686853)scale(0.204 -0.204)">
      <use transform="scale(0.996264)" xlink:href="#CMSS17-70"/>
      <use transform="translate(53.289559 0)scale(0.996264)" xlink:href="#CMSS17-73"/>
      <use transform="translate(79.073485 0)scale(0.996264)" xlink:href="#CMSS17-67"/>
      <use transform="translate(138.929256 0)scale(0.996264)" xlink:href="#CMSS17-79"/>
      <use transform="translate(239.182624 0)scale(0.996264)" xlink:href="#CMSS17-115"/>
      <use transform="translate(275.096166 0)scale(0.996264)" xlink:href="#CMSS17-99"/>
      <use transform="translate(316.734989 0)scale(0.996264)" xlink:href="#CMSS17-111"/>
      <use transform="translate(360.976158 0)scale(0.996264)" xlink:href="#CMSS17-114"/>
      <use transform="translate(392.885931 0)scale(0.996264)" xlink:href="#CMSS17-101"/>
     </g>
    </g>
   </g>
   <g id="matplotlib.axis_2">
    <g id="ytick_1">
     <g id="line2d_7">
      <defs>
       <path d="M 0 0 
L -3.5 0 
" id="m9886fb1b3c" style="stroke:#000000;stroke-width:0.8;"/>
      </defs>
      <g>
       <use style="stroke:#000000;stroke-width:0.8;" x="71.317102" xlink:href="#m9886fb1b3c" y="424.913921"/>
      </g>
     </g>
     <g id="text_8">
      <!-- 0% -->
      <defs>
       <path d="M 43.09375 31.9375 
C 43.09375 37.578125 43 48.078125 38.90625 56.1875 
C 34.796875 64 28.203125 66.078125 23.5 66.078125 
C 16.703125 66.078125 10.90625 62.109375 7.90625 55.78125 
C 4.703125 49.15625 3.796875 42.328125 3.796875 31.9375 
C 3.796875 24.828125 4.09375 16.109375 7.703125 8.484375 
C 11.796875 0.078125 18.703125 -2 23.40625 -2 
C 29.59375 -2 35.59375 1.265625 39 8.09375 
C 42.5 15.21875 43.09375 23.03125 43.09375 31.9375 
z
M 23.40625 4.078125 
C 15.796875 4.078125 13.5 12.671875 12.796875 15.546875 
C 11.59375 20.46875 11.40625 25.21875 11.40625 33.03125 
C 11.40625 39.15625 11.40625 46.0625 13.296875 51.515625 
C 15.59375 57.828125 19.59375 60 23.40625 60 
C 30.796875 60 33.203125 52.6875 34 50.125 
C 35.5 44.890625 35.5 38.765625 35.5 33.03125 
C 35.5 23.84375 35.5 4.078125 23.40625 4.078125 
z
" id="CMSS17-48"/>
      </defs>
      <g transform="translate(56.353694 430.794647)scale(0.17 -0.17)">
       <use transform="scale(0.996264)" xlink:href="#CMSS17-48"/>
      </g>
     </g>
    </g>
    <g id="ytick_2">
     <g id="line2d_8">
      <g>
       <use style="stroke:#000000;stroke-width:0.8;" x="71.317102" xlink:href="#m9886fb1b3c" y="352.943994"/>
      </g>
     </g>
     <g id="text_9">
      <!-- 20% -->
      <defs>
       <path d="M 25.796875 21.203125 
C 28.59375 24.078125 32.796875 27.5625 35.703125 31.046875 
C 38.5 34.4375 42.203125 39.234375 42.203125 46.203125 
C 42.203125 57.140625 34.796875 67 22.203125 67 
C 12.296875 67 6.59375 60.828125 3.90625 51.15625 
L 7.796875 45.765625 
C 10 54.84375 13.09375 60.625 20.90625 60.625 
C 29.5 60.625 34.296875 53.640625 34.296875 45.96875 
C 34.296875 36.796875 27.296875 29.703125 22 24.421875 
C 16.09375 18.546875 10.296875 12.5625 4.703125 6.375 
L 4.703125 0 
L 42.203125 0 
L 42.203125 6.765625 
L 25.203125 6.765625 
C 24 6.765625 22.796875 6.765625 21.59375 6.765625 
L 11.59375 6.765625 
L 11.59375 6.859375 
z
" id="CMSS17-50"/>
      </defs>
      <g transform="translate(48.390286 358.82472)scale(0.17 -0.17)">
       <use transform="scale(0.996264)" xlink:href="#CMSS17-50"/>
       <use transform="translate(46.843624 0)scale(0.996264)" xlink:href="#CMSS17-48"/>
      </g>
     </g>
    </g>
    <g id="ytick_3">
     <g id="line2d_9">
      <g>
       <use style="stroke:#000000;stroke-width:0.8;" x="71.317102" xlink:href="#m9886fb1b3c" y="280.974066"/>
      </g>
     </g>
     <g id="text_10">
      <!-- 40% -->
      <defs>
       <path d="M 35.203125 17 
L 44.296875 17 
L 44.296875 23.078125 
L 35.203125 23.078125 
L 35.203125 65.5 
L 26.40625 65.5 
L 2.59375 23.078125 
L 2.59375 17 
L 27.296875 17 
L 27.296875 0 
L 35.203125 0 
z
M 10.296875 23.078125 
C 16.09375 33.234375 27.59375 53.734375 27.59375 60.703125 
L 27.59375 23.078125 
z
" id="CMSS17-52"/>
      </defs>
      <g transform="translate(48.390286 286.854792)scale(0.17 -0.17)">
       <use transform="scale(0.996264)" xlink:href="#CMSS17-52"/>
       <use transform="translate(46.843624 0)scale(0.996264)" xlink:href="#CMSS17-48"/>
      </g>
     </g>
    </g>
    <g id="ytick_4">
     <g id="line2d_10">
      <g>
       <use style="stroke:#000000;stroke-width:0.8;" x="71.317102" xlink:href="#m9886fb1b3c" y="209.004139"/>
      </g>
     </g>
     <g id="text_11">
      <!-- 60% -->
      <defs>
       <path d="M 39 64.078125 
C 34.796875 65.78125 31.796875 66.078125 29 66.078125 
C 16 66.078125 3.90625 52.625 3.90625 31.34375 
C 3.90625 4.140625 15.40625 -2 23.59375 -2 
C 28.09375 -2 32.59375 -0.609375 36.90625 4.375 
C 41.296875 9.640625 43 14.03125 43 21.703125 
C 43 34.046875 36.90625 45 27.796875 45 
C 21.203125 45 15.5 41.515625 12 37.125 
C 13 50.90625 19.59375 60 29.09375 60 
C 31.703125 60 35.09375 59.625 39 57.96875 
z
M 12.09375 21.390625 
C 12.09375 22.1875 12.09375 22.6875 12.203125 24.1875 
C 12.203125 31.953125 16.703125 38.921875 24 38.921875 
C 28.703125 38.921875 31.09375 36.4375 32.90625 33.359375 
C 35 29.46875 35.09375 25.78125 35.09375 21.6875 
C 35.09375 17.8125 35.09375 13.921875 32.796875 9.953125 
C 30.90625 6.859375 28.40625 4.171875 23.59375 4.171875 
C 14.09375 4.171875 12.5 17.40625 12.09375 21.390625 
z
" id="CMSS17-54"/>
      </defs>
      <g transform="translate(48.390286 214.884865)scale(0.17 -0.17)">
       <use transform="scale(0.996264)" xlink:href="#CMSS17-54"/>
       <use transform="translate(46.843624 0)scale(0.996264)" xlink:href="#CMSS17-48"/>
      </g>
     </g>
    </g>
    <g id="ytick_5">
     <g id="line2d_11">
      <g>
       <use style="stroke:#000000;stroke-width:0.8;" x="71.317102" xlink:href="#m9886fb1b3c" y="137.034211"/>
      </g>
     </g>
     <g id="text_12">
      <!-- 80% -->
      <defs>
       <path d="M 30.203125 34.71875 
C 37.796875 37.1875 41.703125 43.125 41.703125 48.96875 
C 41.703125 58.15625 33.703125 66.078125 23.5 66.078125 
C 12.90625 66.078125 5.203125 57.9375 5.203125 49.125 
C 5.203125 43.4375 9 37.546875 16.703125 35.015625 
C 6.90625 31.203125 3.90625 23.625 3.90625 17.953125 
C 3.90625 6.96875 12.796875 -2 23.40625 -2 
C 34.40625 -2 43 7.109375 43 17.78125 
C 43 24.328125 39.09375 31.25 30.203125 34.71875 
z
M 23.5 38 
C 16.796875 38 12.296875 42.375 12.296875 49 
C 12.296875 55.71875 16.796875 60 23.5 60 
C 29.703125 60 34.59375 56.109375 34.59375 49 
C 34.59375 41.984375 29.796875 38 23.5 38 
z
M 23.5 4.171875 
C 17.796875 4.171875 11.703125 8.078125 11.703125 18.0625 
C 11.703125 28.328125 18.5 31.921875 23.40625 31.921875 
C 28.796875 31.921875 35.203125 28.125 35.203125 18.0625 
C 35.203125 7.671875 28.59375 4.171875 23.5 4.171875 
z
" id="CMSS17-56"/>
      </defs>
      <g transform="translate(48.390286 142.914937)scale(0.17 -0.17)">
       <use transform="scale(0.996264)" xlink:href="#CMSS17-56"/>
       <use transform="translate(46.843624 0)scale(0.996264)" xlink:href="#CMSS17-48"/>
      </g>
     </g>
    </g>
    <g id="ytick_6">
     <g id="line2d_12">
      <g>
       <use style="stroke:#000000;stroke-width:0.8;" x="71.317102" xlink:href="#m9886fb1b3c" y="65.064284"/>
      </g>
     </g>
     <g id="text_13">
      <!-- 100% -->
      <defs>
       <path d="M 28.40625 67 
L 26.5 67 
C 21.09375 61.5625 14.796875 60.78125 8.40625 60.78125 
L 8.40625 55 
C 11.296875 55 16 55 20.703125 57.296875 
L 20.703125 5.765625 
L 8.90625 5.765625 
L 8.90625 0 
L 40.203125 0 
L 40.203125 5.765625 
L 28.40625 5.765625 
z
" id="CMSS17-49"/>
      </defs>
      <g transform="translate(40.426878 70.94501)scale(0.17 -0.17)">
       <use transform="scale(0.996264)" xlink:href="#CMSS17-49"/>
       <use transform="translate(46.843624 0)scale(0.996264)" xlink:href="#CMSS17-48"/>
       <use transform="translate(93.687247 0)scale(0.996264)" xlink:href="#CMSS17-48"/>
      </g>
     </g>
    </g>
    <g id="text_14">
     <!-- Non-default rate -->
     <defs>
      <path d="M 22.90625 65.3125 
L 21.09375 69 
L 8.796875 69 
L 8.796875 0 
L 16.59375 0 
L 16.59375 61.34375 
L 16.703125 61.4375 
C 17.40625 59.640625 17.796875 58.75 21.90625 49.90625 
L 43.296875 3.6875 
L 45.09375 0 
L 57.40625 0 
L 57.40625 69 
L 49.59375 69 
L 49.59375 7.65625 
L 49.5 7.546875 
C 48.796875 9.34375 48.40625 10.234375 44.296875 19.078125 
z
" id="CMSS17-78"/>
      <path d="M 40.90625 29.328125 
C 40.90625 35.671875 39.40625 44 28.09375 44 
C 21.703125 44 17.5 40.71875 14.703125 37.328125 
L 14.703125 43.09375 
L 7.40625 43.09375 
L 7.40625 0 
L 15 0 
L 15 24.359375 
C 15 30.6875 17.40625 37.9375 24.203125 37.9375 
C 33 37.9375 33.296875 32 33.296875 28.578125 
L 33.296875 0 
L 40.90625 0 
z
" id="CMSS17-110"/>
      <path d="M 26 19 
L 26 24.765625 
L 1 24.765625 
L 1 19 
z
" id="CMSS17-45"/>
      <path d="M 40.796875 69 
L 33.40625 69 
L 33.40625 38.09375 
C 30.296875 40.671875 25.203125 43.0625 19.59375 43.0625 
C 10.5 43.0625 3.296875 33.296875 3.296875 21.046875 
C 3.296875 8.78125 10.40625 -1 19.296875 -1 
C 26.203125 -1 30.796875 2.6875 33.203125 4.78125 
L 33.203125 -0.203125 
L 40.796875 -0.203125 
z
M 33.203125 13.0625 
C 33.203125 11.671875 33.203125 10.203125 30.09375 7.53125 
C 28.09375 5.859375 25.703125 5.078125 23.40625 5.078125 
C 18 5.078125 10.90625 9 10.90625 20.9375 
C 10.90625 33.34375 18.90625 37 24.40625 37 
C 28.09375 37 31.09375 35.21875 33.203125 32.265625 
z
" id="CMSS17-100"/>
      <path d="M 16.796875 37 
L 26.90625 37 
L 26.90625 42.765625 
L 16.59375 42.765625 
L 16.59375 55.609375 
C 16.59375 62.71875 22 63.9375 25.09375 63.9375 
C 26.09375 63.9375 28.90625 63.9375 32.5 62.640625 
L 32.5 69.203125 
C 30.203125 69.703125 27.40625 70 25.203125 70 
C 15.90625 70 9.40625 62.390625 9.40625 52.484375 
L 9.40625 42.765625 
L 2.5 42.765625 
L 2.5 37 
L 9.40625 37 
L 9.40625 0 
L 16.796875 0 
z
" id="CMSS17-102"/>
      <path d="M 37.59375 27.984375 
C 37.59375 37.375 30.90625 43.875 21.90625 43.875 
C 17.5 43.875 12.703125 43.078125 7.203125 39.890625 
L 7.796875 33.359375 
C 10.296875 35.125 14.59375 38 21.796875 38 
C 26.90625 38 30 34.0625 30 27.84375 
L 30 24 
C 14 24 4 19.34375 4 11.34375 
C 4 7.203125 6.5 -1 14.796875 -1 
C 16.296875 -1 24.40625 -1 30.203125 3.390625 
L 30.203125 -0.296875 
L 37.59375 -0.296875 
z
M 30 12.75 
C 30 10.953125 30 8.5625 27 6.78125 
C 24.40625 5.078125 21.09375 5.078125 19.703125 5.078125 
C 14.703125 5.078125 11.296875 7.984375 11.296875 11.625 
C 11.296875 18.921875 26.90625 18.921875 30 18.921875 
z
" id="CMSS17-97"/>
      <path d="M 40.90625 42.796875 
L 33.296875 42.796875 
L 33.296875 15.1875 
C 33.296875 7.78125 27.90625 4.78125 22.203125 4.78125 
C 15.59375 4.78125 15 6.984375 15 11.078125 
L 15 42.796875 
L 7.40625 42.796875 
L 7.40625 10.59375 
C 7.40625 2.796875 10.09375 -1 17 -1 
C 20.40625 -1 28.09375 -0.203125 33.5 4.78125 
L 33.5 0 
L 40.90625 0 
z
" id="CMSS17-117"/>
      <path d="M 14.796875 69 
L 7.40625 69 
L 7.40625 0 
L 14.796875 0 
z
" id="CMSS17-108"/>
      <path d="M 16.703125 37 
L 29.703125 37 
L 29.703125 42.765625 
L 16.703125 42.765625 
L 16.703125 55 
L 9.59375 55 
L 9.59375 42.765625 
L 1.703125 42.765625 
L 1.703125 37 
L 9.40625 37 
L 9.40625 11.703125 
C 9.40625 6 10.703125 -1 17.296875 -1 
C 22.296875 -1 26.90625 0.390625 31.296875 2.6875 
L 29.703125 8.5625 
C 27.296875 6.46875 24.40625 5.265625 21.296875 5.265625 
C 16.90625 5.265625 16.703125 10.875 16.703125 13.375 
z
" id="CMSS17-116"/>
     </defs>
     <g transform="translate(32.47373 311.451646)rotate(-90)scale(0.204 -0.204)">
      <use transform="scale(0.996264)" xlink:href="#CMSS17-78"/>
      <use transform="translate(66.061519 0)scale(0.996264)" xlink:href="#CMSS17-111"/>
      <use transform="translate(112.905143 0)scale(0.996264)" xlink:href="#CMSS17-110"/>
      <use transform="translate(161.110086 0)scale(0.996264)" xlink:href="#CMSS17-45"/>
      <use transform="translate(192.339199 0)scale(0.996264)" xlink:href="#CMSS17-100"/>
      <use transform="translate(240.544142 0)scale(0.996264)" xlink:href="#CMSS17-101"/>
      <use transform="translate(282.182964 0)scale(0.996264)" xlink:href="#CMSS17-102"/>
      <use transform="translate(310.809623 0)scale(0.996264)" xlink:href="#CMSS17-97"/>
      <use transform="translate(355.731543 0)scale(0.996264)" xlink:href="#CMSS17-117"/>
      <use transform="translate(403.936486 0)scale(0.996264)" xlink:href="#CMSS17-108"/>
      <use transform="translate(426.117209 0)scale(0.996264)" xlink:href="#CMSS17-116"/>
      <use transform="translate(491.177889 0)scale(0.996264)" xlink:href="#CMSS17-114"/>
      <use transform="translate(523.087661 0)scale(0.996264)" xlink:href="#CMSS17-97"/>
      <use transform="translate(568.009582 0)scale(0.996264)" xlink:href="#CMSS17-116"/>
      <use transform="translate(601.841149 0)scale(0.996264)" xlink:href="#CMSS17-101"/>
     </g>
    </g>
   </g>
   <g id="line2d_13">
    <path clip-path="url(#p918dc27501)" d="M 71.317102 406.093785 
L 111.045013 401.91953 
L 117.004199 400.875966 
L 151.766121 393.535033 
L 156.290689 392.491469 
L 183.327739 385.186521 
L 194.915046 368.993288 
L 198.385296 363.595543 
L 236.89081 298.786623 
L 239.758415 293.388879 
L 247.678852 277.195645 
L 279.360604 226.564801 
L 283.799349 218.108335 
L 299.00769 188.744604 
L 320.733891 148.11758 
L 322.645797 144.051279 
L 336.550566 111.520872 
L 350.455335 106.231082 
L 360.883911 102.236751 
L 364.224079 100.905308 
L 370.26963 98.242421 
L 400.497388 78.090841 
L 420.98114 81.617367 
L 425.888705 82.481006 
L 450.706077 72.980976 
L 457.306442 71.973397 
L 473.147318 69.490434 
L 478.42761 68.842705 
L 504.560423 68.230961 
L 530.174471 67.907096 
L 530.174471 67.907096 
" style="fill:none;stroke:#0000ff;stroke-linecap:square;stroke-width:3;"/>
   </g>
   <g id="line2d_14">
    <path clip-path="url(#p918dc27501)" d="M 71.317102 419.660117 
L 111.045013 411.167665 
L 117.004199 409.008567 
L 151.766121 394.146777 
L 156.290689 392.023665 
L 183.327739 377.161874 
L 194.915046 369.820942 
L 198.385296 367.373964 
L 236.89081 338.046219 
L 239.758415 335.599241 
L 247.678852 328.258309 
L 279.360604 247.72396 
L 283.799349 234.301568 
L 296.83507 194.034394 
L 309.870791 174.134709 
L 320.733891 157.581626 
L 322.645797 154.271009 
L 334.81247 131.060707 
L 336.550566 127.750091 
L 357.407719 108.030331 
L 362.622007 103.136376 
L 367.246854 98.206436 
L 370.26963 94.931804 
L 376.315182 92.304901 
L 400.497388 81.869262 
L 406.258443 80.537818 
L 428.342488 74.816209 
L 434.476945 73.80863 
L 445.518967 71.973397 
L 450.706077 71.181728 
L 477.107537 70.354074 
L 487.668121 69.526419 
L 493.582974 69.31051 
L 530.174471 68.302931 
L 530.174471 68.302931 
" style="fill:none;stroke:#008000;stroke-dasharray:11.1,4.8;stroke-dashoffset:0;stroke-width:3;"/>
   </g>
   <g id="line2d_15">
    <path clip-path="url(#p918dc27501)" d="M 71.317102 421.49535 
L 111.045013 413.470703 
L 117.004199 411.455545 
L 146.800132 399.472552 
L 151.766121 397.457394 
L 156.290689 395.478221 
L 183.327739 381.444085 
L 194.915046 376.010356 
L 198.385296 374.211107 
L 227.264431 357.909919 
L 239.758415 350.640956 
L 247.678852 345.207227 
L 279.360604 260.246727 
L 283.799349 246.068652 
L 296.83507 203.570409 
L 320.733891 173.882814 
L 322.645797 171.183942 
L 336.550566 149.592964 
L 345.241046 140.452783 
L 364.224079 120.265218 
L 370.26963 112.960271 
L 400.497388 97.018932 
L 406.258443 95.183699 
L 427.115597 87.195037 
L 434.476945 83.848435 
L 450.706077 76.651442 
L 469.187099 73.52075 
L 475.787464 72.369232 
L 486.348048 70.749908 
L 489.923825 70.354074 
L 515.537872 68.986645 
L 530.174471 68.194976 
L 530.174471 68.194976 
" style="fill:none;stroke:#ff0000;stroke-dasharray:19.2,4.8,3,4.8;stroke-dashoffset:0;stroke-width:3;"/>
   </g>
   <g id="line2d_16">
    <path clip-path="url(#p918dc27501)" d="M 71.317102 423.726418 
L 111.045013 417.465034 
L 117.004199 415.881695 
L 146.800132 406.48962 
L 156.290689 403.358928 
L 183.327739 392.383514 
L 198.385296 388.785018 
L 211.220467 385.150536 
L 236.89081 377.917559 
L 242.39856 376.118311 
L 247.678852 374.319062 
L 279.360604 297.707075 
L 283.799349 284.932412 
L 296.83507 246.608426 
L 320.733891 203.786319 
L 322.645797 199.899943 
L 336.550566 168.736964 
L 360.883911 133.291775 
L 364.224079 128.217895 
L 370.26963 118.070136 
L 380.849346 114.687549 
L 392.940449 110.765188 
L 400.497388 108.354195 
L 406.258443 105.223503 
L 422.208031 95.039759 
L 427.115597 92.088992 
L 439.38451 85.863593 
L 445.518967 82.732901 
L 450.706077 80.249939 
L 477.107537 83.88442 
L 482.387829 80.789713 
L 487.668121 77.730991 
L 489.923825 76.975307 
L 526.515321 69.31051 
L 530.174471 68.51884 
L 530.174471 68.51884 
" style="fill:none;stroke:#00bfbf;stroke-dasharray:3,4.95;stroke-dashoffset:0;stroke-width:3;"/>
   </g>
   <g id="patch_3">
    <path d="M 71.317102 441.517384 
L 71.317102 50.11613 
" style="fill:none;stroke:#000000;stroke-linecap:square;stroke-linejoin:miter;stroke-width:0.8;"/>
   </g>
   <g id="patch_4">
    <path d="M 530.174471 441.517384 
L 530.174471 50.11613 
" style="fill:none;stroke:#000000;stroke-linecap:square;stroke-linejoin:miter;stroke-width:0.8;"/>
   </g>
   <g id="patch_5">
    <path d="M 71.317102 441.517384 
L 530.174471 441.517384 
" style="fill:none;stroke:#000000;stroke-linecap:square;stroke-linejoin:miter;stroke-width:0.8;"/>
   </g>
   <g id="patch_6">
    <path d="M 71.317102 50.11613 
L 530.174471 50.11613 
" style="fill:none;stroke:#000000;stroke-linecap:square;stroke-linejoin:miter;stroke-width:0.8;"/>
   </g>
   <g id="text_15">
    <!-- Non-default rate by FICO score -->
    <defs>
     <path d="M 14.90625 69 
L 7.5 69 
L 7.5 -0.203125 
L 15.09375 -0.203125 
L 15.09375 4.28125 
C 18.90625 0.59375 23.5 -1 27.59375 -1 
C 37.203125 -1 45 8.578125 45 21.125 
C 45 32.59375 39 43.0625 30.09375 43.0625 
C 23.796875 43.0625 18.203125 40.484375 14.90625 37.796875 
z
M 15.09375 31.96875 
C 17.296875 34.71875 20.40625 37 24.796875 37 
C 30.703125 37 37.40625 32.765625 37.40625 21.125 
C 37.40625 8.71875 29.40625 5.078125 23.90625 5.078125 
C 21.90625 5.078125 19.796875 5.5625 17.796875 7.25 
C 15.09375 9.609375 15.09375 11.078125 15.09375 12.453125 
z
" id="CMSS17-98"/>
     <path d="M 41.796875 43 
L 34 43 
C 25.5 20.21875 22.59375 10.96875 22.40625 5.984375 
L 22.296875 5.984375 
C 22 10.875 17.59375 22.8125 14.09375 31.359375 
L 9.40625 43 
L 1.296875 43 
L 19 0.203125 
C 17.90625 -2.78125 16.296875 -7.265625 15.796875 -8.265625 
C 13.59375 -13.828125 12.09375 -13.828125 10.5 -13.828125 
C 10.09375 -13.828125 6.90625 -13.828125 3.296875 -12.640625 
L 3.90625 -19.203125 
C 6.40625 -19.703125 8.90625 -20 10.703125 -20 
C 13.203125 -20 18.203125 -20 22.796875 -7.765625 
z
" id="CMSS17-121"/>
    </defs>
    <g transform="translate(175.381232 32.374092)scale(0.204 -0.204)">
     <use transform="scale(0.996264)" xlink:href="#CMSS17-78"/>
     <use transform="translate(66.061519 0)scale(0.996264)" xlink:href="#CMSS17-111"/>
     <use transform="translate(112.905143 0)scale(0.996264)" xlink:href="#CMSS17-110"/>
     <use transform="translate(161.110086 0)scale(0.996264)" xlink:href="#CMSS17-45"/>
     <use transform="translate(192.339199 0)scale(0.996264)" xlink:href="#CMSS17-100"/>
     <use transform="translate(240.544142 0)scale(0.996264)" xlink:href="#CMSS17-101"/>
     <use transform="translate(282.182964 0)scale(0.996264)" xlink:href="#CMSS17-102"/>
     <use transform="translate(310.809623 0)scale(0.996264)" xlink:href="#CMSS17-97"/>
     <use transform="translate(355.731543 0)scale(0.996264)" xlink:href="#CMSS17-117"/>
     <use transform="translate(403.936486 0)scale(0.996264)" xlink:href="#CMSS17-108"/>
     <use transform="translate(426.117209 0)scale(0.996264)" xlink:href="#CMSS17-116"/>
     <use transform="translate(491.177889 0)scale(0.996264)" xlink:href="#CMSS17-114"/>
     <use transform="translate(523.087661 0)scale(0.996264)" xlink:href="#CMSS17-97"/>
     <use transform="translate(568.009582 0)scale(0.996264)" xlink:href="#CMSS17-116"/>
     <use transform="translate(601.841149 0)scale(0.996264)" xlink:href="#CMSS17-101"/>
     <use transform="translate(674.709083 0)scale(0.996264)" xlink:href="#CMSS17-98"/>
     <use transform="translate(720.311573 0)scale(0.996264)" xlink:href="#CMSS17-121"/>
     <use transform="translate(794.540827 0)scale(0.996264)" xlink:href="#CMSS17-70"/>
     <use transform="translate(847.830386 0)scale(0.996264)" xlink:href="#CMSS17-73"/>
     <use transform="translate(873.614312 0)scale(0.996264)" xlink:href="#CMSS17-67"/>
     <use transform="translate(933.470084 0)scale(0.996264)" xlink:href="#CMSS17-79"/>
     <use transform="translate(1033.723452 0)scale(0.996264)" xlink:href="#CMSS17-115"/>
     <use transform="translate(1069.636994 0)scale(0.996264)" xlink:href="#CMSS17-99"/>
     <use transform="translate(1111.275816 0)scale(0.996264)" xlink:href="#CMSS17-111"/>
     <use transform="translate(1155.516985 0)scale(0.996264)" xlink:href="#CMSS17-114"/>
     <use transform="translate(1187.426758 0)scale(0.996264)" xlink:href="#CMSS17-101"/>
    </g>
   </g>
   <g id="legend_1">
    <g id="patch_7">
     <path d="M 83.217102 158.493278 
L 193.599262 158.493278 
Q 196.999262 158.493278 196.999262 155.093278 
L 196.999262 62.01613 
Q 196.999262 58.61613 193.599262 58.61613 
L 83.217102 58.61613 
Q 79.817102 58.61613 79.817102 62.01613 
L 79.817102 155.093278 
Q 79.817102 158.493278 83.217102 158.493278 
z
" style="fill:#ffffff;opacity:0.8;stroke:#cccccc;stroke-linejoin:miter;"/>
    </g>
    <g id="line2d_17">
     <path d="M 86.617102 71.36613 
L 120.617102 71.36613 
" style="fill:none;stroke:#0000ff;stroke-linecap:square;stroke-width:3;"/>
    </g>
    <g id="line2d_18"/>
    <g id="text_16">
     <!-- Asian -->
     <defs>
      <path d="M 35.5 69 
L 26.90625 69 
L 2.59375 0 
L 10.203125 0 
L 17.203125 20 
L 44 20 
L 51.09375 0 
L 59.796875 0 
z
M 42.09375 25.578125 
L 19.09375 25.578125 
C 23.90625 39.5 29.90625 56.84375 30.59375 61.328125 
L 30.703125 61.328125 
C 31.40625 57.234375 33.40625 51.265625 35.09375 46.1875 
z
" id="CMSS17-65"/>
      <path d="M 15.296875 65.359375 
L 6.90625 65.359375 
L 6.90625 57 
L 15.296875 57 
z
M 14.796875 42.796875 
L 7.40625 42.796875 
L 7.40625 0 
L 14.796875 0 
z
" id="CMSS17-105"/>
     </defs>
     <g transform="translate(134.217102 77.31613)scale(0.17 -0.17)">
      <use transform="scale(0.996264)" xlink:href="#CMSS17-65"/>
      <use transform="translate(62.217855 0)scale(0.996264)" xlink:href="#CMSS17-115"/>
      <use transform="translate(98.131397 0)scale(0.996264)" xlink:href="#CMSS17-105"/>
      <use transform="translate(120.31212 0)scale(0.996264)" xlink:href="#CMSS17-97"/>
      <use transform="translate(165.234041 0)scale(0.996264)" xlink:href="#CMSS17-110"/>
     </g>
    </g>
    <g id="line2d_19">
     <path d="M 86.617102 95.060417 
L 120.617102 95.060417 
" style="fill:none;stroke:#008000;stroke-dasharray:11.1,4.8;stroke-dashoffset:0;stroke-width:3;"/>
    </g>
    <g id="line2d_20"/>
    <g id="text_17">
     <!-- White -->
     <defs>
      <path d="M 87.203125 69 
L 79.59375 69 
L 71.203125 38.078125 
C 69.90625 33.09375 68.703125 28.140625 67.5 23.15625 
C 65.703125 15.796875 64.40625 10.640625 64.203125 8.046875 
L 64.09375 8.046875 
C 63.90625 10.734375 62.59375 16.390625 61 22.765625 
C 59.796875 28.046875 58.5 33.296875 57.09375 38.46875 
L 48.796875 69 
L 40.40625 69 
L 32.5 40.03125 
L 28.5 24.203125 
C 25.5 11.671875 25.40625 9.875 25.203125 7.890625 
L 25.09375 7.890625 
C 25.09375 8.484375 24.703125 11.765625 21.90625 23.40625 
C 20.5 29.1875 19.09375 35.0625 17.59375 40.640625 
L 9.90625 69 
L 1.296875 69 
L 20.296875 0 
L 28.59375 0 
L 36.5 28.734375 
L 40.5 44.546875 
C 43.203125 55.6875 43.796875 58.46875 44 60.953125 
L 44.09375 60.953125 
C 44.09375 60.5625 45 54.28125 48.90625 39.765625 
L 59.5 0 
L 68.203125 0 
z
" id="CMSS17-87"/>
      <path d="M 40.90625 29.546875 
C 40.90625 35.8125 39.40625 44.0625 28.09375 44.0625 
C 21.796875 44.0625 17.703125 40.984375 14.796875 37.609375 
L 14.796875 69.5 
L 7.40625 69.5 
L 7.40625 0.5 
L 15 0.5 
L 15 24.578125 
C 15 30.828125 17.40625 38 24.203125 38 
C 33 38 33.296875 32.125 33.296875 28.734375 
L 33.296875 0.5 
L 40.90625 0.5 
z
" id="CMSS17-104"/>
     </defs>
     <g transform="translate(134.217102 101.010417)scale(0.17 -0.17)">
      <use transform="scale(0.996264)" xlink:href="#CMSS17-87"/>
      <use transform="translate(88.242166 0)scale(0.996264)" xlink:href="#CMSS17-104"/>
      <use transform="translate(136.447109 0)scale(0.996264)" xlink:href="#CMSS17-105"/>
      <use transform="translate(158.627832 0)scale(0.996264)" xlink:href="#CMSS17-116"/>
      <use transform="translate(192.459399 0)scale(0.996264)" xlink:href="#CMSS17-101"/>
     </g>
    </g>
    <g id="line2d_21">
     <path d="M 86.617102 118.754704 
L 120.617102 118.754704 
" style="fill:none;stroke:#ff0000;stroke-dasharray:19.2,4.8,3,4.8;stroke-dashoffset:0;stroke-width:3;"/>
    </g>
    <g id="line2d_22"/>
    <g id="text_18">
     <!-- Hispanic -->
     <defs>
      <path d="M 57.40625 69 
L 49 69 
L 49 39.078125 
L 17.203125 39.078125 
L 17.203125 69 
L 8.796875 69 
L 8.796875 0 
L 17.203125 0 
L 17.203125 33 
L 49 33 
L 49 0 
L 57.40625 0 
z
" id="CMSS17-72"/>
      <path d="M 15.09375 5.203125 
C 18.40625 2.015625 22.90625 -0.078125 27.703125 -0.078125 
C 37 -0.078125 45 9.421875 45 22.0625 
C 45 33.734375 39 44 30.40625 44 
C 25.40625 44 19.40625 42.21875 14.90625 38.625 
L 14.90625 43.203125 
L 7.5 43.203125 
L 7.5 -19 
L 15.09375 -19 
z
M 15.09375 32.8125 
C 15.90625 34 19.296875 37.734375 24.796875 37.734375 
C 31.796875 37.734375 37.40625 30.625 37.40625 22.0625 
C 37.40625 12.296875 30.59375 6 23.90625 6 
C 21.90625 6 19.796875 6.484375 17.796875 8.171875 
C 15.09375 10.53125 15.09375 12 15.09375 13.390625 
z
" id="CMSS17-112"/>
     </defs>
     <g transform="translate(134.217102 124.704704)scale(0.17 -0.17)">
      <use transform="scale(0.996264)" xlink:href="#CMSS17-72"/>
      <use transform="translate(66.061519 0)scale(0.996264)" xlink:href="#CMSS17-105"/>
      <use transform="translate(88.242242 0)scale(0.996264)" xlink:href="#CMSS17-115"/>
      <use transform="translate(124.155784 0)scale(0.996264)" xlink:href="#CMSS17-112"/>
      <use transform="translate(172.360727 0)scale(0.996264)" xlink:href="#CMSS17-97"/>
      <use transform="translate(217.282648 0)scale(0.996264)" xlink:href="#CMSS17-110"/>
      <use transform="translate(265.487591 0)scale(0.996264)" xlink:href="#CMSS17-105"/>
      <use transform="translate(287.668314 0)scale(0.996264)" xlink:href="#CMSS17-99"/>
     </g>
    </g>
    <g id="line2d_23">
     <path d="M 86.617102 142.448991 
L 120.617102 142.448991 
" style="fill:none;stroke:#00bfbf;stroke-dasharray:3,4.95;stroke-dashoffset:0;stroke-width:3;"/>
    </g>
    <g id="line2d_24"/>
    <g id="text_19">
     <!-- Black -->
     <defs>
      <path d="M 8.90625 69 
L 8.90625 0 
L 33.796875 0 
C 47.40625 0 57.296875 8.96875 57.296875 18.75 
C 57.296875 26.328125 50.796875 34 39.09375 36.203125 
C 52.09375 39.96875 54.703125 47.5 54.703125 51.765625 
C 54.703125 60.671875 44.90625 69 31.203125 69 
z
M 17 39 
L 17 63.421875 
L 28.5 63.421875 
C 38.796875 63.421875 46.90625 58.1875 46.90625 51.65625 
C 46.90625 45.71875 40.5 39 27.59375 39 
z
M 17 5.578125 
L 17 32.921875 
L 30.296875 32.921875 
C 41.09375 32.921875 49.40625 26.234375 49.40625 18.84375 
C 49.40625 12.0625 42.09375 5.578125 31 5.578125 
z
" id="CMSS17-66"/>
      <path d="M 26.5 26.375 
L 42 42.796875 
L 32.40625 42.796875 
L 14.90625 24.28125 
L 14.90625 69 
L 7.5 69 
L 7.5 0 
L 14.796875 0 
L 14.796875 13.9375 
L 21.5 21 
L 35.59375 0 
L 44.09375 0 
z
" id="CMSS17-107"/>
     </defs>
     <g transform="translate(134.217102 148.398991)scale(0.17 -0.17)">
      <use transform="scale(0.996264)" xlink:href="#CMSS17-66"/>
      <use transform="translate(62.33804 0)scale(0.996264)" xlink:href="#CMSS17-108"/>
      <use transform="translate(84.518763 0)scale(0.996264)" xlink:href="#CMSS17-97"/>
      <use transform="translate(129.440684 0)scale(0.996264)" xlink:href="#CMSS17-99"/>
      <use transform="translate(171.079506 0)scale(0.996264)" xlink:href="#CMSS17-107"/>
     </g>
    </g>
   </g>
  </g>
  <g id="axes_2">
   <g id="patch_8">
    <path d="M 600.262631 441.517384 
L 1059.12 441.517384 
L 1059.12 50.11613 
L 600.262631 50.11613 
z
" style="fill:#ffffff;"/>
   </g>
   <g id="matplotlib.axis_3">
    <g id="xtick_7">
     <g id="line2d_25">
      <g>
       <use style="stroke:#000000;stroke-width:0.8;" x="621.119784" xlink:href="#m515c70a91e" y="441.517384"/>
      </g>
     </g>
     <g id="text_20">
      <!-- $300$ -->
      <g transform="translate(609.468712 460.278835)scale(0.17 -0.17)">
       <use transform="scale(0.996264)" xlink:href="#CMR17-51"/>
       <use transform="translate(45.690477 0)scale(0.996264)" xlink:href="#CMR17-48"/>
       <use transform="translate(91.380954 0)scale(0.996264)" xlink:href="#CMR17-48"/>
      </g>
     </g>
    </g>
    <g id="xtick_8">
     <g id="line2d_26">
      <g>
       <use style="stroke:#000000;stroke-width:0.8;" x="696.963977" xlink:href="#m515c70a91e" y="441.517384"/>
      </g>
     </g>
     <g id="text_21">
      <!-- $400$ -->
      <g transform="translate(685.312906 460.278835)scale(0.17 -0.17)">
       <use transform="scale(0.996264)" xlink:href="#CMR17-52"/>
       <use transform="translate(45.690477 0)scale(0.996264)" xlink:href="#CMR17-48"/>
       <use transform="translate(91.380954 0)scale(0.996264)" xlink:href="#CMR17-48"/>
      </g>
     </g>
    </g>
    <g id="xtick_9">
     <g id="line2d_27">
      <g>
       <use style="stroke:#000000;stroke-width:0.8;" x="772.80817" xlink:href="#m515c70a91e" y="441.517384"/>
      </g>
     </g>
     <g id="text_22">
      <!-- $500$ -->
      <g transform="translate(761.157099 460.278835)scale(0.17 -0.17)">
       <use transform="scale(0.996264)" xlink:href="#CMR17-53"/>
       <use transform="translate(45.690477 0)scale(0.996264)" xlink:href="#CMR17-48"/>
       <use transform="translate(91.380954 0)scale(0.996264)" xlink:href="#CMR17-48"/>
      </g>
     </g>
    </g>
    <g id="xtick_10">
     <g id="line2d_28">
      <g>
       <use style="stroke:#000000;stroke-width:0.8;" x="848.652364" xlink:href="#m515c70a91e" y="441.517384"/>
      </g>
     </g>
     <g id="text_23">
      <!-- $600$ -->
      <g transform="translate(837.001292 460.278835)scale(0.17 -0.17)">
       <use transform="scale(0.996264)" xlink:href="#CMR17-54"/>
       <use transform="translate(45.690477 0)scale(0.996264)" xlink:href="#CMR17-48"/>
       <use transform="translate(91.380954 0)scale(0.996264)" xlink:href="#CMR17-48"/>
      </g>
     </g>
    </g>
    <g id="xtick_11">
     <g id="line2d_29">
      <g>
       <use style="stroke:#000000;stroke-width:0.8;" x="924.496557" xlink:href="#m515c70a91e" y="441.517384"/>
      </g>
     </g>
     <g id="text_24">
      <!-- $700$ -->
      <g transform="translate(912.845485 460.278835)scale(0.17 -0.17)">
       <use transform="scale(0.996264)" xlink:href="#CMR17-55"/>
       <use transform="translate(45.690477 0)scale(0.996264)" xlink:href="#CMR17-48"/>
       <use transform="translate(91.380954 0)scale(0.996264)" xlink:href="#CMR17-48"/>
      </g>
     </g>
    </g>
    <g id="xtick_12">
     <g id="line2d_30">
      <g>
       <use style="stroke:#000000;stroke-width:0.8;" x="1000.34075" xlink:href="#m515c70a91e" y="441.517384"/>
      </g>
     </g>
     <g id="text_25">
      <!-- $800$ -->
      <g transform="translate(988.689679 460.278835)scale(0.17 -0.17)">
       <use transform="scale(0.996264)" xlink:href="#CMR17-56"/>
       <use transform="translate(45.690477 0)scale(0.996264)" xlink:href="#CMR17-48"/>
       <use transform="translate(91.380954 0)scale(0.996264)" xlink:href="#CMR17-48"/>
      </g>
     </g>
    </g>
    <g id="text_26">
     <!-- FICO score -->
     <g transform="translate(785.369842 481.686853)scale(0.204 -0.204)">
      <use transform="scale(0.996264)" xlink:href="#CMSS17-70"/>
      <use transform="translate(53.289559 0)scale(0.996264)" xlink:href="#CMSS17-73"/>
      <use transform="translate(79.073485 0)scale(0.996264)" xlink:href="#CMSS17-67"/>
      <use transform="translate(138.929256 0)scale(0.996264)" xlink:href="#CMSS17-79"/>
      <use transform="translate(239.182624 0)scale(0.996264)" xlink:href="#CMSS17-115"/>
      <use transform="translate(275.096166 0)scale(0.996264)" xlink:href="#CMSS17-99"/>
      <use transform="translate(316.734989 0)scale(0.996264)" xlink:href="#CMSS17-111"/>
      <use transform="translate(360.976158 0)scale(0.996264)" xlink:href="#CMSS17-114"/>
      <use transform="translate(392.885931 0)scale(0.996264)" xlink:href="#CMSS17-101"/>
     </g>
    </g>
   </g>
   <g id="matplotlib.axis_4">
    <g id="ytick_7">
     <g id="line2d_31">
      <g>
       <use style="stroke:#000000;stroke-width:0.8;" x="600.262631" xlink:href="#m9886fb1b3c" y="423.726418"/>
      </g>
     </g>
     <g id="text_27">
      <!-- $0.0$ -->
      <defs>
       <path d="M 18.40625 4.796875 
C 18.40625 7.6875 16 9.671875 13.59375 9.671875 
C 10.703125 9.671875 8.703125 7.28125 8.703125 4.890625 
C 8.703125 2 11.09375 0 13.5 0 
C 16.40625 0 18.40625 2.390625 18.40625 4.796875 
z
" id="CMMI12-58"/>
      </defs>
      <g transform="translate(573.121348 429.607143)scale(0.17 -0.17)">
       <use transform="scale(0.996264)" xlink:href="#CMR17-48"/>
       <use transform="translate(45.690477 0)scale(0.996264)" xlink:href="#CMMI12-58"/>
       <use transform="translate(72.787654 0)scale(0.996264)" xlink:href="#CMR17-48"/>
      </g>
     </g>
    </g>
    <g id="ytick_8">
     <g id="line2d_32">
      <g>
       <use style="stroke:#000000;stroke-width:0.8;" x="600.262631" xlink:href="#m9886fb1b3c" y="352.562553"/>
      </g>
     </g>
     <g id="text_28">
      <!-- $0.2$ -->
      <defs>
       <path d="M 41.703125 15.453125 
L 39.90625 15.453125 
C 38.90625 8.375 38.09375 7.171875 37.703125 6.5625 
C 37.203125 5.765625 30 5.765625 28.59375 5.765625 
L 9.40625 5.765625 
C 13 9.671875 20 16.75 28.5 24.953125 
C 34.59375 30.734375 41.703125 37.53125 41.703125 47.421875 
C 41.703125 59.21875 32.296875 66 21.796875 66 
C 10.796875 66 4.09375 56.3125 4.09375 47.34375 
C 4.09375 43.4375 7 42.9375 8.203125 42.9375 
C 9.203125 42.9375 12.203125 43.546875 12.203125 47.03125 
C 12.203125 50.109375 9.59375 51 8.203125 51 
C 7.59375 51 7 50.90625 6.59375 50.703125 
C 8.5 59.21875 14.296875 63.40625 20.40625 63.40625 
C 29.09375 63.40625 34.796875 56.515625 34.796875 47.421875 
C 34.796875 38.734375 29.703125 31.25 24 24.75 
L 4.09375 2.28125 
L 4.09375 0 
L 39.296875 0 
z
" id="CMR17-50"/>
      </defs>
      <g transform="translate(573.121348 358.443279)scale(0.17 -0.17)">
       <use transform="scale(0.996264)" xlink:href="#CMR17-48"/>
       <use transform="translate(45.690477 0)scale(0.996264)" xlink:href="#CMMI12-58"/>
       <use transform="translate(72.787654 0)scale(0.996264)" xlink:href="#CMR17-50"/>
      </g>
     </g>
    </g>
    <g id="ytick_9">
     <g id="line2d_33">
      <g>
       <use style="stroke:#000000;stroke-width:0.8;" x="600.262631" xlink:href="#m9886fb1b3c" y="281.398689"/>
      </g>
     </g>
     <g id="text_29">
      <!-- $0.4$ -->
      <g transform="translate(573.121348 287.279415)scale(0.17 -0.17)">
       <use transform="scale(0.996264)" xlink:href="#CMR17-48"/>
       <use transform="translate(45.690477 0)scale(0.996264)" xlink:href="#CMMI12-58"/>
       <use transform="translate(72.787654 0)scale(0.996264)" xlink:href="#CMR17-52"/>
      </g>
     </g>
    </g>
    <g id="ytick_10">
     <g id="line2d_34">
      <g>
       <use style="stroke:#000000;stroke-width:0.8;" x="600.262631" xlink:href="#m9886fb1b3c" y="210.234825"/>
      </g>
     </g>
     <g id="text_30">
      <!-- $0.6$ -->
      <g transform="translate(573.121348 216.115551)scale(0.17 -0.17)">
       <use transform="scale(0.996264)" xlink:href="#CMR17-48"/>
       <use transform="translate(45.690477 0)scale(0.996264)" xlink:href="#CMMI12-58"/>
       <use transform="translate(72.787654 0)scale(0.996264)" xlink:href="#CMR17-54"/>
      </g>
     </g>
    </g>
    <g id="ytick_11">
     <g id="line2d_35">
      <g>
       <use style="stroke:#000000;stroke-width:0.8;" x="600.262631" xlink:href="#m9886fb1b3c" y="139.07096"/>
      </g>
     </g>
     <g id="text_31">
      <!-- $0.8$ -->
      <g transform="translate(573.121348 144.951686)scale(0.17 -0.17)">
       <use transform="scale(0.996264)" xlink:href="#CMR17-48"/>
       <use transform="translate(45.690477 0)scale(0.996264)" xlink:href="#CMMI12-58"/>
       <use transform="translate(72.787654 0)scale(0.996264)" xlink:href="#CMR17-56"/>
      </g>
     </g>
    </g>
    <g id="ytick_12">
     <g id="line2d_36">
      <g>
       <use style="stroke:#000000;stroke-width:0.8;" x="600.262631" xlink:href="#m9886fb1b3c" y="67.907096"/>
      </g>
     </g>
     <g id="text_32">
      <!-- $1.0$ -->
      <defs>
       <path d="M 26.59375 63.40625 
C 26.59375 65.5 26.5 65.5 25.09375 65.5 
C 21.203125 61.1875 15.296875 59.796875 9.703125 59.796875 
C 9.40625 59.796875 8.90625 59.796875 8.796875 59.5 
C 8.703125 59.296875 8.703125 59.09375 8.703125 57 
C 11.796875 57 17 57.59375 21 59.984375 
L 21 7.203125 
C 21 3.6875 20.796875 2.5 12.203125 2.5 
L 9.203125 2.5 
L 9.203125 0 
C 14 0 19 0 23.796875 0 
C 28.59375 0 33.59375 0 38.40625 0 
L 38.40625 2.5 
L 35.40625 2.5 
C 26.796875 2.5 26.59375 3.59375 26.59375 7.15625 
z
" id="CMR17-49"/>
      </defs>
      <g transform="translate(573.121348 73.787822)scale(0.17 -0.17)">
       <use transform="scale(0.996264)" xlink:href="#CMR17-49"/>
       <use transform="translate(45.690477 0)scale(0.996264)" xlink:href="#CMMI12-58"/>
       <use transform="translate(72.787654 0)scale(0.996264)" xlink:href="#CMR17-48"/>
      </g>
     </g>
    </g>
    <g id="text_33">
     <!-- Fraction of group below -->
     <defs>
      <path d="M 44.5 43.875 
C 38.796875 43.875 33.90625 42.78125 29.90625 40.890625 
C 26.59375 43.390625 23.203125 43.875 20.90625 43.875 
C 12.203125 43.875 5.59375 36.703125 5.59375 28.34375 
C 5.59375 22.9375 8.59375 18.859375 8.796875 18.671875 
C 7 16.171875 6 13.484375 6 10.5 
C 6 7 7.40625 4.515625 8.5 3.125 
C 3.296875 -0.046875 2.59375 -4.90625 2.59375 -6.796875 
C 2.59375 -14.03125 11.703125 -20 23.40625 -20 
C 35.203125 -20 44.296875 -14.03125 44.296875 -6.6875 
C 44.296875 7 29 7 24.796875 7 
L 16.703125 7 
C 15.203125 7 11.203125 7 11.203125 12.359375 
C 11.203125 14.390625 12.09375 15.6875 12.203125 15.78125 
C 13.703125 14.6875 16.796875 13 20.90625 13 
C 29.203125 13 36.09375 19.96875 36.09375 28.546875 
C 36.09375 33.3125 33.90625 36.796875 33 38 
L 33.296875 38 
C 33.59375 38 37.796875 38 39.296875 38 
C 42.5 38 42.796875 37.953125 45.59375 37.796875 
z
M 20.90625 18.46875 
C 17.5 18.46875 12.703125 20.546875 12.703125 28.484375 
C 12.703125 37.109375 18.203125 38.5 20.796875 38.5 
C 24.203125 38.5 29 36.421875 29 28.484375 
C 29 19.859375 23.5 18.46875 20.90625 18.46875 
z
M 24.703125 -0.15625 
C 27.09375 -0.15625 37.203125 -0.15625 37.203125 -6.90625 
C 37.203125 -11.15625 31 -14.515625 23.5 -14.515625 
C 15.90625 -14.515625 9.703125 -11.25 9.703125 -6.796875 
C 9.703125 -6.296875 9.703125 -0.15625 16.59375 -0.15625 
z
" id="CMSS17-103"/>
      <path d="M 62.703125 43 
L 55.09375 43 
L 49.796875 25.015625 
C 48.703125 21.21875 45.59375 10.703125 45.203125 5.796875 
L 45.09375 5.796875 
C 44.90625 8.8125 43.203125 16 40.40625 25.515625 
L 35.296875 43 
L 28.40625 43 
L 23.40625 25.90625 
C 20.90625 17.203125 19 9.796875 18.796875 5.796875 
L 18.703125 5.796875 
C 18.296875 11.703125 14.203125 25.515625 13.59375 27.703125 
L 9.09375 43 
L 1.296875 43 
L 14.296875 0 
L 21.90625 0 
C 27.09375 17.125 31.09375 30.359375 31.40625 37.03125 
C 31.59375 33.75 33.296875 26.671875 34.296875 23.1875 
L 40.90625 0 
L 49.703125 0 
z
" id="CMSS17-119"/>
     </defs>
     <g transform="translate(565.168201 341.091838)rotate(-90)scale(0.204 -0.204)">
      <use transform="scale(0.996264)" xlink:href="#CMSS17-70"/>
      <use transform="translate(50.687105 0)scale(0.996264)" xlink:href="#CMSS17-114"/>
      <use transform="translate(82.596878 0)scale(0.996264)" xlink:href="#CMSS17-97"/>
      <use transform="translate(127.518799 0)scale(0.996264)" xlink:href="#CMSS17-99"/>
      <use transform="translate(169.157621 0)scale(0.996264)" xlink:href="#CMSS17-116"/>
      <use transform="translate(202.989187 0)scale(0.996264)" xlink:href="#CMSS17-105"/>
      <use transform="translate(225.16991 0)scale(0.996264)" xlink:href="#CMSS17-111"/>
      <use transform="translate(272.013534 0)scale(0.996264)" xlink:href="#CMSS17-110"/>
      <use transform="translate(351.44759 0)scale(0.996264)" xlink:href="#CMSS17-111"/>
      <use transform="translate(398.291213 0)scale(0.996264)" xlink:href="#CMSS17-102"/>
      <use transform="translate(458.146985 0)scale(0.996264)" xlink:href="#CMSS17-103"/>
      <use transform="translate(504.990608 0)scale(0.996264)" xlink:href="#CMSS17-114"/>
      <use transform="translate(536.900381 0)scale(0.996264)" xlink:href="#CMSS17-111"/>
      <use transform="translate(583.744004 0)scale(0.996264)" xlink:href="#CMSS17-117"/>
      <use transform="translate(631.948948 0)scale(0.996264)" xlink:href="#CMSS17-112"/>
      <use transform="translate(711.383003 0)scale(0.996264)" xlink:href="#CMSS17-98"/>
      <use transform="translate(762.190385 0)scale(0.996264)" xlink:href="#CMSS17-101"/>
      <use transform="translate(803.829207 0)scale(0.996264)" xlink:href="#CMSS17-108"/>
      <use transform="translate(826.00993 0)scale(0.996264)" xlink:href="#CMSS17-111"/>
      <use transform="translate(870.2511 0)scale(0.996264)" xlink:href="#CMSS17-119"/>
     </g>
    </g>
   </g>
   <g id="line2d_37">
    <path clip-path="url(#p71c576c20e)" d="M 621.119784 423.726418 
L 630.148855 423.263852 
L 639.177925 420.595208 
L 648.206996 419.919151 
L 657.236066 419.029603 
L 662.653509 418.353546 
L 667.168044 417.214924 
L 671.682579 415.898392 
L 676.197115 414.902098 
L 680.71165 414.546279 
L 685.226185 412.696019 
L 694.255256 409.849464 
L 698.368499 409.208989 
L 708.902415 405.864288 
L 712.41372 405.437304 
L 715.925026 404.583338 
L 719.436331 404.049609 
L 722.947636 403.302389 
L 726.458941 402.946569 
L 729.970246 401.48771 
L 733.481552 400.740489 
L 736.636324 398.996975 
L 745.387578 395.367618 
L 748.304662 393.837595 
L 751.221746 392.8413 
L 754.138831 391.382441 
L 757.055915 390.101492 
L 765.807168 387.005864 
L 768.724252 386.258643 
L 771.641337 384.72862 
L 774.24825 384.194891 
L 776.648383 382.771614 
L 779.048515 381.739738 
L 781.448648 379.711567 
L 786.248914 377.398742 
L 788.649046 376.615939 
L 791.049179 375.33499 
L 795.849444 373.235656 
L 798.249577 372.452853 
L 800.64971 370.531429 
L 803.049842 369.641881 
L 805.449975 368.538841 
L 807.850108 367.79162 
L 810.250241 366.154851 
L 812.310354 364.589246 
L 814.285464 362.881314 
L 816.260573 361.813856 
L 818.235682 360.034759 
L 820.210791 358.718228 
L 822.1859 356.36982 
L 824.16101 355.551436 
L 826.136119 353.523265 
L 828.111228 351.922078 
L 830.086337 349.00436 
L 834.036556 346.122224 
L 837.986774 342.172629 
L 839.961883 340.749352 
L 841.936992 338.50769 
L 843.912102 337.119995 
L 845.887211 334.309022 
L 847.86232 333.063654 
L 849.600416 330.644083 
L 851.180503 329.434297 
L 852.760591 326.267505 
L 854.340678 325.200047 
L 855.920766 322.175583 
L 857.500853 321.214871 
L 859.08094 318.190407 
L 860.661028 317.443186 
L 863.821202 313.956157 
L 865.40129 311.501004 
L 866.981377 310.362382 
L 868.561464 308.013974 
L 870.141552 306.483951 
L 873.301727 302.463193 
L 874.881814 299.723384 
L 879.622076 293.176309 
L 881.202163 290.792319 
L 882.782251 288.799731 
L 884.362338 285.668521 
L 885.942425 283.782678 
L 887.398854 280.900542 
L 888.772843 279.334937 
L 891.520821 275.52767 
L 892.89481 272.930189 
L 894.268799 271.506912 
L 895.642788 268.482448 
L 897.016777 266.738933 
L 898.390766 263.643305 
L 899.764755 261.366061 
L 903.886722 252.150341 
L 905.260711 250.264498 
L 906.6347 246.706305 
L 908.008689 245.247446 
L 909.382678 242.721129 
L 910.756667 240.621795 
L 912.130656 237.59733 
L 913.504645 235.818234 
L 914.878634 233.434244 
L 916.252623 231.406074 
L 917.626612 228.417192 
L 919.000601 226.424604 
L 920.37459 223.04432 
L 923.122568 219.414963 
L 924.496557 217.173301 
L 925.611913 214.860476 
L 926.727269 211.44461 
L 927.842624 209.238531 
L 930.073336 203.616585 
L 931.188692 202.335636 
L 932.304047 199.489081 
L 933.419403 197.852312 
L 935.650115 193.262243 
L 936.765471 192.265949 
L 937.880826 188.636592 
L 938.996182 187.711462 
L 940.111538 186.39493 
L 941.226894 183.548376 
L 943.457605 179.919018 
L 946.803673 175.791514 
L 947.919028 172.58914 
L 950.14974 168.497218 
L 951.265096 167.500924 
L 952.380452 165.792991 
L 953.495807 163.266674 
L 955.726519 159.281498 
L 956.841875 157.822639 
L 957.95723 155.972378 
L 959.072586 150.421597 
L 961.303298 147.290387 
L 962.418654 145.973855 
L 964.818786 142.522408 
L 967.218919 138.750723 
L 968.418985 135.370439 
L 974.419317 126.510538 
L 975.619383 123.806311 
L 976.81945 122.66769 
L 978.019516 121.351158 
L 979.219582 118.753677 
L 980.419649 117.437146 
L 981.619715 115.159902 
L 982.819782 114.092444 
L 984.019848 111.779618 
L 985.219914 110.534251 
L 986.419981 108.221425 
L 987.620047 106.691402 
L 988.820113 104.129503 
L 990.02018 102.848553 
L 991.220246 101.389694 
L 992.420312 100.357818 
L 993.620379 98.970123 
L 994.820445 97.226608 
L 997.220578 94.380054 
L 998.420644 92.138392 
L 1001.67135 87.370413 
L 1004.99785 84.986424 
L 1008.32435 84.061293 
L 1011.650849 81.143575 
L 1014.977349 80.360772 
L 1018.303849 78.154693 
L 1021.630348 75.272556 
L 1024.956848 71.678781 
L 1028.283348 69.294791 
L 1031.609847 68.298497 
L 1038.262847 67.907096 
L 1038.262847 67.907096 
" style="fill:none;stroke:#0000ff;stroke-linecap:square;stroke-width:3;"/>
   </g>
   <g id="line2d_38">
    <path clip-path="url(#p71c576c20e)" d="M 621.119784 423.690836 
L 630.148855 422.801287 
L 639.177925 419.598913 
L 648.206996 418.638201 
L 657.236066 417.32167 
L 662.653509 416.289794 
L 667.168044 414.653025 
L 676.197115 411.664143 
L 680.71165 411.130414 
L 685.226185 408.817588 
L 694.255256 404.939157 
L 698.368499 403.942863 
L 701.879805 401.985857 
L 705.39111 401.167473 
L 708.902415 399.495122 
L 712.41372 398.747901 
L 715.925026 397.609279 
L 719.436331 396.684149 
L 722.947636 395.438782 
L 726.458941 394.549233 
L 729.970246 393.054792 
L 733.481552 391.91617 
L 736.636324 389.71009 
L 739.553409 388.429141 
L 742.470493 386.721208 
L 745.387578 385.440259 
L 748.304662 383.127433 
L 751.221746 381.917647 
L 754.138831 379.996223 
L 757.055915 378.857601 
L 759.972999 377.149668 
L 762.890084 375.939883 
L 765.807168 374.481023 
L 768.724252 373.449147 
L 771.641337 371.919124 
L 774.24825 370.92283 
L 776.648383 369.499553 
L 779.048515 368.574423 
L 781.448648 364.873902 
L 783.848781 363.664116 
L 786.248914 361.920601 
L 788.649046 360.959889 
L 791.049179 359.429866 
L 793.449312 358.326826 
L 798.249577 355.658181 
L 800.64971 353.523265 
L 803.049842 352.242316 
L 805.449975 350.641129 
L 807.850108 349.573671 
L 812.310354 346.620371 
L 814.285464 344.485455 
L 816.260573 343.240087 
L 818.235682 341.211917 
L 820.210791 339.930967 
L 822.1859 337.333486 
L 824.16101 335.803463 
L 826.136119 333.917621 
L 828.111228 332.672253 
L 830.086337 330.430591 
L 832.061446 329.149642 
L 834.036556 327.406127 
L 836.011665 325.947268 
L 837.986774 324.097008 
L 839.961883 322.67373 
L 841.936992 320.752306 
L 843.912102 319.008791 
L 845.887211 316.41131 
L 847.86232 315.48618 
L 849.600416 312.817535 
L 851.180503 311.643331 
L 852.760591 308.903523 
L 854.340678 307.693737 
L 855.920766 305.025092 
L 857.500853 303.957634 
L 859.08094 301.609226 
L 860.661028 300.75526 
L 862.241115 298.869418 
L 863.821202 297.481722 
L 865.40129 295.41797 
L 866.981377 294.457258 
L 868.561464 292.180014 
L 870.141552 290.827901 
L 871.721639 288.621821 
L 873.301727 287.234126 
L 874.881814 285.028046 
L 876.461901 283.035458 
L 879.622076 279.406101 
L 881.202163 277.377931 
L 882.782251 276.061399 
L 884.362338 273.357172 
L 885.942425 272.182969 
L 887.398854 269.407578 
L 888.772843 267.984301 
L 891.520821 264.604017 
L 892.89481 262.433519 
L 894.268799 261.366061 
L 895.642788 259.373473 
L 897.016777 257.84345 
L 898.390766 255.779698 
L 899.764755 254.356421 
L 901.138744 252.363832 
L 902.512733 250.584736 
L 903.886722 248.343074 
L 905.260711 247.275616 
L 906.6347 244.927209 
L 908.008689 243.610677 
L 909.382678 241.511343 
L 910.756667 240.194812 
L 912.130656 238.024314 
L 913.504645 236.743364 
L 914.878634 234.537284 
L 916.252623 233.042843 
L 917.626612 230.836763 
L 919.000601 229.271158 
L 920.37459 226.887169 
L 921.748579 225.748547 
L 924.496557 222.154772 
L 926.727269 218.454251 
L 928.95798 214.433493 
L 930.073336 212.262995 
L 931.188692 211.266701 
L 932.304047 209.202949 
L 933.419403 207.886417 
L 934.534759 205.751501 
L 936.765471 203.438676 
L 937.880826 200.94794 
L 938.996182 200.129556 
L 940.111538 199.026516 
L 941.226894 196.500199 
L 944.572961 191.91013 
L 946.803673 189.52614 
L 947.919028 186.857495 
L 952.380452 180.950895 
L 954.611163 175.791514 
L 957.95723 170.596552 
L 959.072586 166.718122 
L 961.303298 163.053183 
L 962.418654 161.487578 
L 963.61872 159.210334 
L 964.818786 157.644729 
L 967.218919 153.481643 
L 968.418985 149.674376 
L 972.019184 144.443832 
L 973.219251 142.55799 
L 974.419317 139.996091 
L 975.619383 136.971626 
L 978.019516 133.591343 
L 979.219582 130.139895 
L 980.419649 128.147307 
L 981.619715 125.727736 
L 982.819782 124.268877 
L 984.019848 121.38674 
L 985.219914 119.963463 
L 986.419981 117.081326 
L 987.620047 115.515721 
L 988.820113 112.206602 
L 991.220246 108.790736 
L 992.420312 107.723278 
L 993.620379 106.050927 
L 994.820445 103.560192 
L 997.220578 100.037581 
L 998.420644 97.013117 
L 1001.67135 90.394877 
L 1004.99785 87.228085 
L 1008.32435 85.982718 
L 1011.650849 82.673598 
L 1014.977349 81.748468 
L 1018.303849 79.40006 
L 1021.630348 76.126522 
L 1024.956848 71.678781 
L 1028.283348 69.25921 
L 1031.609847 68.227333 
L 1034.936347 67.97826 
L 1038.262847 67.907096 
L 1038.262847 67.907096 
" style="fill:none;stroke:#008000;stroke-dasharray:11.1,4.8;stroke-dashoffset:0;stroke-width:3;"/>
   </g>
   <g id="line2d_39">
    <path clip-path="url(#p71c576c20e)" d="M 621.119784 423.690836 
L 630.148855 422.054067 
L 639.177925 415.827229 
L 648.206996 413.976968 
L 657.236066 411.308323 
L 662.653509 409.351317 
L 667.168044 405.864288 
L 671.682579 403.195643 
L 676.197115 400.242342 
L 680.71165 399.103721 
L 685.226185 394.478069 
L 689.740721 390.599639 
L 694.255256 387.504011 
L 698.368499 385.297931 
L 701.879805 381.241591 
L 705.39111 379.675986 
L 708.902415 376.829431 
L 712.41372 375.33499 
L 715.925026 373.591475 
L 722.947636 369.641881 
L 726.458941 367.898366 
L 729.970246 365.443213 
L 733.481552 363.521788 
L 736.636324 359.572194 
L 739.553409 357.615188 
L 742.470493 354.839797 
L 745.387578 352.740463 
L 748.304662 348.648541 
L 751.221746 346.300133 
L 754.138831 343.240087 
L 757.055915 341.140753 
L 759.972999 338.258617 
L 762.890084 335.874627 
L 765.807168 333.028073 
L 768.724252 331.32014 
L 771.641337 329.007314 
L 774.24825 327.299381 
L 776.648383 324.87981 
L 779.048515 323.349787 
L 781.448648 315.877581 
L 783.848781 313.671501 
L 786.248914 310.220054 
L 788.649046 308.761195 
L 791.049179 306.27046 
L 793.449312 304.349035 
L 795.849444 301.893882 
L 798.249577 298.976163 
L 800.64971 294.955405 
L 803.049842 292.784907 
L 805.449975 289.653697 
L 807.850108 287.910183 
L 812.310354 282.644057 
L 814.285464 279.263773 
L 816.260573 276.844202 
L 818.235682 273.535082 
L 820.210791 270.973183 
L 822.1859 267.130334 
L 824.16101 265.244492 
L 826.136119 262.469101 
L 828.111228 260.97466 
L 830.086337 257.594376 
L 832.061446 255.63737 
L 834.036556 252.755234 
L 836.011665 250.30008 
L 839.961883 245.959085 
L 843.912102 241.26227 
L 845.887211 237.988732 
L 847.86232 236.423127 
L 849.600416 233.114007 
L 851.180503 231.726312 
L 852.760591 227.883463 
L 854.340678 226.673677 
L 855.920766 223.079902 
L 857.500853 221.94128 
L 859.08094 218.952398 
L 860.661028 217.956104 
L 862.241115 216.03468 
L 863.821202 214.540238 
L 865.40129 212.120667 
L 866.981377 210.839718 
L 868.561464 208.099909 
L 870.141552 206.46314 
L 871.721639 203.936823 
L 873.301727 202.442382 
L 874.881814 199.453499 
L 876.461901 197.496493 
L 878.041989 195.219249 
L 879.622076 193.262243 
L 881.202163 191.127327 
L 882.782251 189.917541 
L 884.362338 187.213315 
L 885.942425 186.003529 
L 887.398854 183.548376 
L 888.772843 182.231844 
L 891.520821 178.993888 
L 892.89481 176.858972 
L 894.268799 175.791514 
L 895.642788 173.727762 
L 897.016777 172.304485 
L 898.390766 170.276315 
L 902.512733 165.010189 
L 903.886722 162.946437 
L 905.260711 161.843397 
L 906.6347 159.708481 
L 908.008689 158.39195 
L 909.382678 156.363779 
L 910.756667 154.976084 
L 912.130656 152.841168 
L 913.504645 151.666964 
L 914.878634 149.674376 
L 916.252623 148.322263 
L 917.626612 146.61433 
L 919.000601 145.33338 
L 920.37459 143.376374 
L 921.748579 142.273334 
L 924.496557 139.711435 
L 926.727269 136.829299 
L 927.842624 135.868586 
L 930.073336 132.666213 
L 931.188692 131.812246 
L 932.304047 130.282223 
L 933.419403 129.641748 
L 934.534759 128.254053 
L 935.650115 127.115431 
L 936.765471 126.403793 
L 937.880826 124.589114 
L 940.111538 123.237001 
L 941.226894 121.671396 
L 945.688317 117.935293 
L 946.803673 117.188072 
L 947.919028 115.622467 
L 952.380452 112.740331 
L 954.611163 109.858194 
L 955.726519 108.968646 
L 956.841875 108.221425 
L 957.95723 107.260713 
L 959.072586 104.912306 
L 961.303298 103.168791 
L 962.418654 102.563898 
L 967.218919 98.649885 
L 968.418985 97.119862 
L 969.619052 96.301478 
L 972.019184 94.842619 
L 973.219251 94.095398 
L 974.419317 93.134686 
L 975.619383 91.746991 
L 976.81945 90.964188 
L 978.019516 90.359295 
L 979.219582 88.864854 
L 980.419649 88.259961 
L 981.619715 87.050176 
L 982.819782 86.623192 
L 984.019848 85.591316 
L 985.219914 85.022005 
L 986.419981 84.061293 
L 987.620047 83.63431 
L 988.820113 82.566852 
L 991.220246 81.285903 
L 992.420312 81.001247 
L 993.620379 80.5031 
L 994.820445 79.613552 
L 997.220578 78.47493 
L 998.420644 77.336308 
L 1001.67135 75.272556 
L 1004.99785 74.276262 
L 1008.32435 73.813697 
L 1011.650849 72.746239 
L 1014.977349 72.497165 
L 1018.303849 71.749945 
L 1021.630348 70.611323 
L 1024.956848 69.116882 
L 1028.283348 68.334079 
L 1031.609847 67.97826 
L 1038.262847 67.907096 
L 1038.262847 67.907096 
" style="fill:none;stroke:#ff0000;stroke-dasharray:19.2,4.8,3,4.8;stroke-dashoffset:0;stroke-width:3;"/>
   </g>
   <g id="line2d_40">
    <path clip-path="url(#p71c576c20e)" d="M 621.119784 423.477344 
L 630.148855 419.492168 
L 639.177925 404.761248 
L 648.206996 400.704907 
L 657.236066 395.652273 
L 662.653509 390.741966 
L 667.168044 383.874654 
L 671.682579 378.110381 
L 676.197115 371.84796 
L 680.71165 369.784208 
L 685.226185 360.675234 
L 689.740721 353.23861 
L 694.255256 346.442461 
L 698.368499 342.137047 
L 701.879805 335.874627 
L 705.39111 332.956909 
L 708.902415 327.83311 
L 712.41372 325.698194 
L 715.925026 321.997674 
L 719.436331 319.186701 
L 722.947636 315.379434 
L 726.458941 312.853117 
L 729.970246 308.832359 
L 733.481552 305.131838 
L 736.636324 298.798254 
L 739.553409 295.382388 
L 742.470493 291.36163 
L 745.387578 287.767855 
L 748.304662 282.14591 
L 751.221746 278.730044 
L 754.138831 274.033229 
L 757.055915 271.044347 
L 759.972999 267.023588 
L 762.890084 264.034706 
L 765.807168 260.654423 
L 768.724252 257.985778 
L 771.641337 255.068059 
L 774.24825 252.68407 
L 776.648383 250.228916 
L 779.048515 248.343074 
L 781.448648 234.964268 
L 783.848781 231.441656 
L 786.248914 227.171824 
L 788.649046 224.823417 
L 791.049179 221.763371 
L 793.449312 219.592873 
L 795.849444 216.639572 
L 798.249577 214.291165 
L 800.64971 210.234825 
L 803.049842 208.028745 
L 805.449975 205.075445 
L 807.850108 202.833783 
L 810.250241 199.809319 
L 812.310354 197.638821 
L 814.285464 194.614356 
L 816.260573 192.443859 
L 818.235682 189.419394 
L 820.210791 187.426806 
L 822.1859 184.331178 
L 824.16101 183.014647 
L 826.136119 180.452747 
L 828.111228 178.744815 
L 830.086337 176.111752 
L 832.061446 174.724056 
L 834.036556 172.517977 
L 836.011665 170.881208 
L 841.936992 165.152517 
L 843.912102 163.444584 
L 845.887211 160.598029 
L 847.86232 159.708481 
L 849.600416 157.466819 
L 851.180503 156.470525 
L 852.760591 153.766298 
L 854.340678 152.734422 
L 855.920766 150.172523 
L 857.500853 149.069483 
L 859.08094 147.183641 
L 860.661028 146.365256 
L 862.241115 145.048725 
L 863.821202 143.518702 
L 865.40129 141.632859 
L 866.981377 140.885639 
L 868.561464 138.857469 
L 870.141552 137.540937 
L 871.721639 135.690677 
L 873.301727 134.729965 
L 874.881814 132.80854 
L 878.041989 130.246641 
L 881.202163 127.577996 
L 882.782251 126.90194 
L 884.362338 125.300753 
L 885.942425 124.553532 
L 887.398854 123.201419 
L 888.772843 122.48978 
L 891.520821 120.568356 
L 892.89481 119.287406 
L 894.268799 118.611349 
L 895.642788 117.543891 
L 898.390766 116.085032 
L 899.764755 115.266648 
L 903.886722 112.17102 
L 905.260711 111.672873 
L 906.6347 110.391923 
L 912.130656 107.260713 
L 913.504645 106.869312 
L 914.878634 106.157673 
L 916.252623 105.588362 
L 917.626612 104.62765 
L 919.000601 104.022757 
L 920.37459 102.919717 
L 921.748579 102.492734 
L 926.727269 99.717343 
L 930.073336 97.618009 
L 933.419403 96.265896 
L 934.534759 95.732167 
L 936.765471 95.091692 
L 937.880826 94.166562 
L 940.111538 93.561669 
L 941.226894 92.956776 
L 943.457605 92.138392 
L 944.572961 91.604663 
L 946.803673 90.893024 
L 947.919028 90.288131 
L 950.14974 89.327419 
L 951.265096 89.042764 
L 952.380452 88.544617 
L 954.611163 87.121339 
L 957.95723 85.769226 
L 959.072586 84.772932 
L 961.303298 84.025711 
L 962.418654 83.81222 
L 966.018853 82.495688 
L 968.418985 81.072411 
L 972.019184 80.004953 
L 974.419317 79.115405 
L 975.619383 78.581676 
L 978.019516 77.834455 
L 979.219582 77.087235 
L 980.419649 76.766997 
L 981.619715 76.304432 
L 982.819782 75.984195 
L 984.019848 75.414884 
L 985.219914 75.272556 
L 986.419981 74.845573 
L 987.620047 74.632081 
L 988.820113 74.169516 
L 991.220246 73.778115 
L 993.620379 73.457877 
L 994.820445 72.995312 
L 997.220578 72.426001 
L 999.62071 71.572035 
L 1001.67135 71.038306 
L 1004.99785 70.718069 
L 1008.32435 70.575741 
L 1011.650849 70.113176 
L 1014.977349 69.970848 
L 1018.303849 69.650611 
L 1021.630348 69.152464 
L 1024.956848 68.298497 
L 1031.609847 67.942678 
L 1038.262847 67.907096 
L 1038.262847 67.907096 
" style="fill:none;stroke:#00bfbf;stroke-dasharray:3,4.95;stroke-dashoffset:0;stroke-width:3;"/>
   </g>
   <g id="patch_9">
    <path d="M 600.262631 441.517384 
L 600.262631 50.11613 
" style="fill:none;stroke:#000000;stroke-linecap:square;stroke-linejoin:miter;stroke-width:0.8;"/>
   </g>
   <g id="patch_10">
    <path d="M 1059.12 441.517384 
L 1059.12 50.11613 
" style="fill:none;stroke:#000000;stroke-linecap:square;stroke-linejoin:miter;stroke-width:0.8;"/>
   </g>
   <g id="patch_11">
    <path d="M 600.262631 441.517384 
L 1059.12 441.517384 
" style="fill:none;stroke:#000000;stroke-linecap:square;stroke-linejoin:miter;stroke-width:0.8;"/>
   </g>
   <g id="patch_12">
    <path d="M 600.262631 50.11613 
L 1059.12 50.11613 
" style="fill:none;stroke:#000000;stroke-linecap:square;stroke-linejoin:miter;stroke-width:0.8;"/>
   </g>
   <g id="text_34">
    <!-- CDF of FICO score by group -->
    <defs>
     <path d="M 8.90625 69 
L 8.90625 0 
L 33.5 0 
C 49.90625 0 62.5 15.3125 62.5 33.90625 
C 62.5 53.09375 49.90625 69 33.5 69 
z
M 17.09375 5.578125 
L 17.09375 63.421875 
L 31.296875 63.421875 
C 44.703125 63.421875 54.296875 51.203125 54.296875 33.90625 
C 54.296875 17.296875 44.796875 5.578125 31.296875 5.578125 
z
" id="CMSS17-68"/>
    </defs>
    <g transform="translate(714.818104 32.374092)scale(0.204 -0.204)">
     <use transform="scale(0.996264)" xlink:href="#CMSS17-67"/>
     <use transform="translate(59.855772 0)scale(0.996264)" xlink:href="#CMSS17-68"/>
     <use transform="translate(127.398613 0)scale(0.996264)" xlink:href="#CMSS17-70"/>
     <use transform="translate(211.917285 0)scale(0.996264)" xlink:href="#CMSS17-111"/>
     <use transform="translate(258.760909 0)scale(0.996264)" xlink:href="#CMSS17-102"/>
     <use transform="translate(318.61668 0)scale(0.996264)" xlink:href="#CMSS17-70"/>
     <use transform="translate(371.90624 0)scale(0.996264)" xlink:href="#CMSS17-73"/>
     <use transform="translate(397.690165 0)scale(0.996264)" xlink:href="#CMSS17-67"/>
     <use transform="translate(457.545937 0)scale(0.996264)" xlink:href="#CMSS17-79"/>
     <use transform="translate(557.799305 0)scale(0.996264)" xlink:href="#CMSS17-115"/>
     <use transform="translate(593.712847 0)scale(0.996264)" xlink:href="#CMSS17-99"/>
     <use transform="translate(635.351669 0)scale(0.996264)" xlink:href="#CMSS17-111"/>
     <use transform="translate(679.592839 0)scale(0.996264)" xlink:href="#CMSS17-114"/>
     <use transform="translate(711.502611 0)scale(0.996264)" xlink:href="#CMSS17-101"/>
     <use transform="translate(784.370546 0)scale(0.996264)" xlink:href="#CMSS17-98"/>
     <use transform="translate(829.973035 0)scale(0.996264)" xlink:href="#CMSS17-121"/>
     <use transform="translate(904.20229 0)scale(0.996264)" xlink:href="#CMSS17-103"/>
     <use transform="translate(951.045913 0)scale(0.996264)" xlink:href="#CMSS17-114"/>
     <use transform="translate(982.955686 0)scale(0.996264)" xlink:href="#CMSS17-111"/>
     <use transform="translate(1029.799309 0)scale(0.996264)" xlink:href="#CMSS17-117"/>
     <use transform="translate(1078.004252 0)scale(0.996264)" xlink:href="#CMSS17-112"/>
    </g>
   </g>
   <g id="legend_2">
    <g id="patch_13">
     <path d="M 612.162631 158.493278 
L 722.544791 158.493278 
Q 725.944791 158.493278 725.944791 155.093278 
L 725.944791 62.01613 
Q 725.944791 58.61613 722.544791 58.61613 
L 612.162631 58.61613 
Q 608.762631 58.61613 608.762631 62.01613 
L 608.762631 155.093278 
Q 608.762631 158.493278 612.162631 158.493278 
z
" style="fill:#ffffff;opacity:0.8;stroke:#cccccc;stroke-linejoin:miter;"/>
    </g>
    <g id="line2d_41">
     <path d="M 615.562631 71.36613 
L 649.562631 71.36613 
" style="fill:none;stroke:#0000ff;stroke-linecap:square;stroke-width:3;"/>
    </g>
    <g id="line2d_42"/>
    <g id="text_35">
     <!-- Asian -->
     <g transform="translate(663.162631 77.31613)scale(0.17 -0.17)">
      <use transform="scale(0.996264)" xlink:href="#CMSS17-65"/>
      <use transform="translate(62.217855 0)scale(0.996264)" xlink:href="#CMSS17-115"/>
      <use transform="translate(98.131397 0)scale(0.996264)" xlink:href="#CMSS17-105"/>
      <use transform="translate(120.31212 0)scale(0.996264)" xlink:href="#CMSS17-97"/>
      <use transform="translate(165.234041 0)scale(0.996264)" xlink:href="#CMSS17-110"/>
     </g>
    </g>
    <g id="line2d_43">
     <path d="M 615.562631 95.060417 
L 649.562631 95.060417 
" style="fill:none;stroke:#008000;stroke-dasharray:11.1,4.8;stroke-dashoffset:0;stroke-width:3;"/>
    </g>
    <g id="line2d_44"/>
    <g id="text_36">
     <!-- White -->
     <g transform="translate(663.162631 101.010417)scale(0.17 -0.17)">
      <use transform="scale(0.996264)" xlink:href="#CMSS17-87"/>
      <use transform="translate(88.242166 0)scale(0.996264)" xlink:href="#CMSS17-104"/>
      <use transform="translate(136.447109 0)scale(0.996264)" xlink:href="#CMSS17-105"/>
      <use transform="translate(158.627832 0)scale(0.996264)" xlink:href="#CMSS17-116"/>
      <use transform="translate(192.459399 0)scale(0.996264)" xlink:href="#CMSS17-101"/>
     </g>
    </g>
    <g id="line2d_45">
     <path d="M 615.562631 118.754704 
L 649.562631 118.754704 
" style="fill:none;stroke:#ff0000;stroke-dasharray:19.2,4.8,3,4.8;stroke-dashoffset:0;stroke-width:3;"/>
    </g>
    <g id="line2d_46"/>
    <g id="text_37">
     <!-- Hispanic -->
     <g transform="translate(663.162631 124.704704)scale(0.17 -0.17)">
      <use transform="scale(0.996264)" xlink:href="#CMSS17-72"/>
      <use transform="translate(66.061519 0)scale(0.996264)" xlink:href="#CMSS17-105"/>
      <use transform="translate(88.242242 0)scale(0.996264)" xlink:href="#CMSS17-115"/>
      <use transform="translate(124.155784 0)scale(0.996264)" xlink:href="#CMSS17-112"/>
      <use transform="translate(172.360727 0)scale(0.996264)" xlink:href="#CMSS17-97"/>
      <use transform="translate(217.282648 0)scale(0.996264)" xlink:href="#CMSS17-110"/>
      <use transform="translate(265.487591 0)scale(0.996264)" xlink:href="#CMSS17-105"/>
      <use transform="translate(287.668314 0)scale(0.996264)" xlink:href="#CMSS17-99"/>
     </g>
    </g>
    <g id="line2d_47">
     <path d="M 615.562631 142.448991 
L 649.562631 142.448991 
" style="fill:none;stroke:#00bfbf;stroke-dasharray:3,4.95;stroke-dashoffset:0;stroke-width:3;"/>
    </g>
    <g id="line2d_48"/>
    <g id="text_38">
     <!-- Black -->
     <g transform="translate(663.162631 148.398991)scale(0.17 -0.17)">
      <use transform="scale(0.996264)" xlink:href="#CMSS17-66"/>
      <use transform="translate(62.33804 0)scale(0.996264)" xlink:href="#CMSS17-108"/>
      <use transform="translate(84.518763 0)scale(0.996264)" xlink:href="#CMSS17-97"/>
      <use transform="translate(129.440684 0)scale(0.996264)" xlink:href="#CMSS17-99"/>
      <use transform="translate(171.079506 0)scale(0.996264)" xlink:href="#CMSS17-107"/>
     </g>
    </g>
   </g>
  </g>
 </g>
 <defs>
  <clipPath id="p918dc27501">
   <rect height="391.401254" width="458.857369" x="71.317102" y="50.11613"/>
  </clipPath>
  <clipPath id="p71c576c20e">
   <rect height="391.401254" width="458.857369" x="600.262631" y="50.11613"/>
  </clipPath>
 </defs>
</svg>
