<?xml version="1.0" encoding="utf-8" standalone="no"?>
<!DOCTYPE svg PUBLIC "-//W3C//DTD SVG 1.1//EN"
  "http://www.w3.org/Graphics/SVG/1.1/DTD/svg11.dtd">
<!-- Created with matplotlib (http://matplotlib.org/) -->
<svg height="504pt" version="1.1" viewBox="0 0 1080 504" width="1080pt" xmlns="http://www.w3.org/2000/svg" xmlns:xlink="http://www.w3.org/1999/xlink">
 <defs>
  <style type="text/css">
*{stroke-linecap:butt;stroke-linejoin:round;}
  </style>
 </defs>
 <g id="figure_1">
  <g id="patch_1">
   <path d="M 0 504 
L 1080 504 
L 1080 0 
L 0 0 
z
" style="fill:#ffffff;"/>
  </g>
  <g id="axes_1">
   <g id="patch_2">
    <path d="M 604.120416 441.517384 
L 1049.694888 441.517384 
L 1049.694888 71.005754 
L 604.120416 71.005754 
z
" style="fill:#ffffff;"/>
   </g>
   <g id="matplotlib.axis_1">
    <g id="xtick_1">
     <g id="line2d_1">
      <defs>
       <path d="M 0 0 
L 0 3.5 
" id="m623816333c" style="stroke:#000000;stroke-width:0.8;"/>
      </defs>
      <g>
       <use style="stroke:#000000;stroke-width:0.8;" x="604.120416" xlink:href="#m623816333c" y="441.517384"/>
      </g>
     </g>
     <g id="text_1">
      <!-- 0% -->
      <defs>
       <path d="M 43.09375 31.9375 
C 43.09375 37.578125 43 48.078125 38.90625 56.1875 
C 34.796875 64 28.203125 66.078125 23.5 66.078125 
C 16.703125 66.078125 10.90625 62.109375 7.90625 55.78125 
C 4.703125 49.15625 3.796875 42.328125 3.796875 31.9375 
C 3.796875 24.828125 4.09375 16.109375 7.703125 8.484375 
C 11.796875 0.078125 18.703125 -2 23.40625 -2 
C 29.59375 -2 35.59375 1.265625 39 8.09375 
C 42.5 15.21875 43.09375 23.03125 43.09375 31.9375 
z
M 23.40625 4.078125 
C 15.796875 4.078125 13.5 12.671875 12.796875 15.546875 
C 11.59375 20.46875 11.40625 25.21875 11.40625 33.03125 
C 11.40625 39.15625 11.40625 46.0625 13.296875 51.515625 
C 15.59375 57.828125 19.59375 60 23.40625 60 
C 30.796875 60 33.203125 52.6875 34 50.125 
C 35.5 44.890625 35.5 38.765625 35.5 33.03125 
C 35.5 23.84375 35.5 4.078125 23.40625 4.078125 
z
" id="CMSS17-48"/>
      </defs>
      <g transform="translate(600.138711 460.278835)scale(0.17 -0.17)">
       <use transform="scale(0.996264)" xlink:href="#CMSS17-48"/>
      </g>
     </g>
    </g>
    <g id="xtick_2">
     <g id="line2d_2">
      <g>
       <use style="stroke:#000000;stroke-width:0.8;" x="693.23531" xlink:href="#m623816333c" y="441.517384"/>
      </g>
     </g>
     <g id="text_2">
      <!-- 20% -->
      <defs>
       <path d="M 25.796875 21.203125 
C 28.59375 24.078125 32.796875 27.5625 35.703125 31.046875 
C 38.5 34.4375 42.203125 39.234375 42.203125 46.203125 
C 42.203125 57.140625 34.796875 67 22.203125 67 
C 12.296875 67 6.59375 60.828125 3.90625 51.15625 
L 7.796875 45.765625 
C 10 54.84375 13.09375 60.625 20.90625 60.625 
C 29.5 60.625 34.296875 53.640625 34.296875 45.96875 
C 34.296875 36.796875 27.296875 29.703125 22 24.421875 
C 16.09375 18.546875 10.296875 12.5625 4.703125 6.375 
L 4.703125 0 
L 42.203125 0 
L 42.203125 6.765625 
L 25.203125 6.765625 
C 24 6.765625 22.796875 6.765625 21.59375 6.765625 
L 11.59375 6.765625 
L 11.59375 6.859375 
z
" id="CMSS17-50"/>
      </defs>
      <g transform="translate(685.271902 460.278835)scale(0.17 -0.17)">
       <use transform="scale(0.996264)" xlink:href="#CMSS17-50"/>
       <use transform="translate(46.843624 0)scale(0.996264)" xlink:href="#CMSS17-48"/>
      </g>
     </g>
    </g>
    <g id="xtick_3">
     <g id="line2d_3">
      <g>
       <use style="stroke:#000000;stroke-width:0.8;" x="782.350204" xlink:href="#m623816333c" y="441.517384"/>
      </g>
     </g>
     <g id="text_3">
      <!-- 40% -->
      <defs>
       <path d="M 35.203125 17 
L 44.296875 17 
L 44.296875 23.078125 
L 35.203125 23.078125 
L 35.203125 65.5 
L 26.40625 65.5 
L 2.59375 23.078125 
L 2.59375 17 
L 27.296875 17 
L 27.296875 0 
L 35.203125 0 
z
M 10.296875 23.078125 
C 16.09375 33.234375 27.59375 53.734375 27.59375 60.703125 
L 27.59375 23.078125 
z
" id="CMSS17-52"/>
      </defs>
      <g transform="translate(774.386796 460.278835)scale(0.17 -0.17)">
       <use transform="scale(0.996264)" xlink:href="#CMSS17-52"/>
       <use transform="translate(46.843624 0)scale(0.996264)" xlink:href="#CMSS17-48"/>
      </g>
     </g>
    </g>
    <g id="xtick_4">
     <g id="line2d_4">
      <g>
       <use style="stroke:#000000;stroke-width:0.8;" x="871.465099" xlink:href="#m623816333c" y="441.517384"/>
      </g>
     </g>
     <g id="text_4">
      <!-- 60% -->
      <defs>
       <path d="M 39 64.078125 
C 34.796875 65.78125 31.796875 66.078125 29 66.078125 
C 16 66.078125 3.90625 52.625 3.90625 31.34375 
C 3.90625 4.140625 15.40625 -2 23.59375 -2 
C 28.09375 -2 32.59375 -0.609375 36.90625 4.375 
C 41.296875 9.640625 43 14.03125 43 21.703125 
C 43 34.046875 36.90625 45 27.796875 45 
C 21.203125 45 15.5 41.515625 12 37.125 
C 13 50.90625 19.59375 60 29.09375 60 
C 31.703125 60 35.09375 59.625 39 57.96875 
z
M 12.09375 21.390625 
C 12.09375 22.1875 12.09375 22.6875 12.203125 24.1875 
C 12.203125 31.953125 16.703125 38.921875 24 38.921875 
C 28.703125 38.921875 31.09375 36.4375 32.90625 33.359375 
C 35 29.46875 35.09375 25.78125 35.09375 21.6875 
C 35.09375 17.8125 35.09375 13.921875 32.796875 9.953125 
C 30.90625 6.859375 28.40625 4.171875 23.59375 4.171875 
C 14.09375 4.171875 12.5 17.40625 12.09375 21.390625 
z
" id="CMSS17-54"/>
      </defs>
      <g transform="translate(863.501691 460.278835)scale(0.17 -0.17)">
       <use transform="scale(0.996264)" xlink:href="#CMSS17-54"/>
       <use transform="translate(46.843624 0)scale(0.996264)" xlink:href="#CMSS17-48"/>
      </g>
     </g>
    </g>
    <g id="xtick_5">
     <g id="line2d_5">
      <g>
       <use style="stroke:#000000;stroke-width:0.8;" x="960.579993" xlink:href="#m623816333c" y="441.517384"/>
      </g>
     </g>
     <g id="text_5">
      <!-- 80% -->
      <defs>
       <path d="M 30.203125 34.71875 
C 37.796875 37.1875 41.703125 43.125 41.703125 48.96875 
C 41.703125 58.15625 33.703125 66.078125 23.5 66.078125 
C 12.90625 66.078125 5.203125 57.9375 5.203125 49.125 
C 5.203125 43.4375 9 37.546875 16.703125 35.015625 
C 6.90625 31.203125 3.90625 23.625 3.90625 17.953125 
C 3.90625 6.96875 12.796875 -2 23.40625 -2 
C 34.40625 -2 43 7.109375 43 17.78125 
C 43 24.328125 39.09375 31.25 30.203125 34.71875 
z
M 23.5 38 
C 16.796875 38 12.296875 42.375 12.296875 49 
C 12.296875 55.71875 16.796875 60 23.5 60 
C 29.703125 60 34.59375 56.109375 34.59375 49 
C 34.59375 41.984375 29.796875 38 23.5 38 
z
M 23.5 4.171875 
C 17.796875 4.171875 11.703125 8.078125 11.703125 18.0625 
C 11.703125 28.328125 18.5 31.921875 23.40625 31.921875 
C 28.796875 31.921875 35.203125 28.125 35.203125 18.0625 
C 35.203125 7.671875 28.59375 4.171875 23.5 4.171875 
z
" id="CMSS17-56"/>
      </defs>
      <g transform="translate(952.616585 460.278835)scale(0.17 -0.17)">
       <use transform="scale(0.996264)" xlink:href="#CMSS17-56"/>
       <use transform="translate(46.843624 0)scale(0.996264)" xlink:href="#CMSS17-48"/>
      </g>
     </g>
    </g>
    <g id="xtick_6">
     <g id="line2d_6">
      <g>
       <use style="stroke:#000000;stroke-width:0.8;" x="1049.694888" xlink:href="#m623816333c" y="441.517384"/>
      </g>
     </g>
     <g id="text_6">
      <!-- 100% -->
      <defs>
       <path d="M 28.40625 67 
L 26.5 67 
C 21.09375 61.5625 14.796875 60.78125 8.40625 60.78125 
L 8.40625 55 
C 11.296875 55 16 55 20.703125 57.296875 
L 20.703125 5.765625 
L 8.90625 5.765625 
L 8.90625 0 
L 40.203125 0 
L 40.203125 5.765625 
L 28.40625 5.765625 
z
" id="CMSS17-49"/>
      </defs>
      <g transform="translate(1037.749776 460.278835)scale(0.17 -0.17)">
       <use transform="scale(0.996264)" xlink:href="#CMSS17-49"/>
       <use transform="translate(46.843624 0)scale(0.996264)" xlink:href="#CMSS17-48"/>
       <use transform="translate(93.687247 0)scale(0.996264)" xlink:href="#CMSS17-48"/>
      </g>
     </g>
    </g>
    <g id="text_7">
     <!-- Minimal non-default rate for profitability -->
     <defs>
      <path d="M 49.90625 37.046875 
L 45.09375 23.015625 
C 44.296875 20.421875 41.59375 12.359375 41 9.171875 
L 40.90625 9.171875 
C 40.59375 11.171875 40 13.265625 38.40625 18.34375 
C 37.5 21.328125 36.5 24.40625 35.5 27.203125 
L 20.703125 69 
L 9 69 
L 9 0 
L 16.796875 0 
L 16.796875 60.9375 
L 16.90625 60.9375 
C 16.90625 60.84375 17.796875 56.453125 23.90625 39.046875 
L 37.09375 1.5 
L 44.5 1.5 
L 56.40625 34.859375 
C 57.203125 37.15625 59.703125 44.421875 60.796875 47.90625 
C 61.796875 50.890625 64.296875 58.25 64.90625 61.140625 
L 65 61.140625 
L 65 0 
L 72.90625 0 
L 72.90625 69 
L 61.296875 69 
z
" id="CMSS17-77"/>
      <path d="M 15.296875 65.359375 
L 6.90625 65.359375 
L 6.90625 57 
L 15.296875 57 
z
M 14.796875 42.796875 
L 7.40625 42.796875 
L 7.40625 0 
L 14.796875 0 
z
" id="CMSS17-105"/>
      <path d="M 40.90625 29.328125 
C 40.90625 35.671875 39.40625 44 28.09375 44 
C 21.703125 44 17.5 40.71875 14.703125 37.328125 
L 14.703125 43.09375 
L 7.40625 43.09375 
L 7.40625 0 
L 15 0 
L 15 24.359375 
C 15 30.6875 17.40625 37.9375 24.203125 37.9375 
C 33 37.9375 33.296875 32 33.296875 28.578125 
L 33.296875 0 
L 40.90625 0 
z
" id="CMSS17-110"/>
      <path d="M 67 29.328125 
C 67 36.0625 65.296875 44 54.09375 44 
C 46.59375 44 42.09375 39.3125 40.09375 36.421875 
C 38.296875 41.71875 34.09375 44 28.09375 44 
C 21.296875 44 17 40.125 14.703125 37.328125 
L 14.703125 43.09375 
L 7.40625 43.09375 
L 7.40625 0 
L 15 0 
L 15 24.359375 
C 15 30.296875 17.203125 37.9375 24.296875 37.9375 
C 33.40625 37.9375 33.40625 31.5 33.40625 28.578125 
L 33.40625 0 
L 41 0 
L 41 24.359375 
C 41 30.296875 43.203125 37.9375 50.296875 37.9375 
C 59.40625 37.9375 59.40625 31.5 59.40625 28.578125 
L 59.40625 0 
L 67 0 
z
" id="CMSS17-109"/>
      <path d="M 37.59375 27.984375 
C 37.59375 37.375 30.90625 43.875 21.90625 43.875 
C 17.5 43.875 12.703125 43.078125 7.203125 39.890625 
L 7.796875 33.359375 
C 10.296875 35.125 14.59375 38 21.796875 38 
C 26.90625 38 30 34.0625 30 27.84375 
L 30 24 
C 14 24 4 19.34375 4 11.34375 
C 4 7.203125 6.5 -1 14.796875 -1 
C 16.296875 -1 24.40625 -1 30.203125 3.390625 
L 30.203125 -0.296875 
L 37.59375 -0.296875 
z
M 30 12.75 
C 30 10.953125 30 8.5625 27 6.78125 
C 24.40625 5.078125 21.09375 5.078125 19.703125 5.078125 
C 14.703125 5.078125 11.296875 7.984375 11.296875 11.625 
C 11.296875 18.921875 26.90625 18.921875 30 18.921875 
z
" id="CMSS17-97"/>
      <path d="M 14.796875 69 
L 7.40625 69 
L 7.40625 0 
L 14.796875 0 
z
" id="CMSS17-108"/>
      <path d="M 44.203125 21.1875 
C 44.203125 34 34.703125 44 23.5 44 
C 12 44 2.703125 33.703125 2.703125 21.1875 
C 2.703125 8.5 12.296875 -1 23.40625 -1 
C 34.796875 -1 44.203125 8.796875 44.203125 21.1875 
z
M 23.5 5.265625 
C 16.40625 5.265625 10.296875 11.078125 10.296875 22 
C 10.296875 33.609375 17.40625 37.921875 23.40625 37.921875 
C 29.90625 37.921875 36.59375 33.21875 36.59375 22 
C 36.59375 10.671875 30.09375 5.265625 23.5 5.265625 
z
" id="CMSS17-111"/>
      <path d="M 26 19 
L 26 24.765625 
L 1 24.765625 
L 1 19 
z
" id="CMSS17-45"/>
      <path d="M 40.796875 69 
L 33.40625 69 
L 33.40625 38.09375 
C 30.296875 40.671875 25.203125 43.0625 19.59375 43.0625 
C 10.5 43.0625 3.296875 33.296875 3.296875 21.046875 
C 3.296875 8.78125 10.40625 -1 19.296875 -1 
C 26.203125 -1 30.796875 2.6875 33.203125 4.78125 
L 33.203125 -0.203125 
L 40.796875 -0.203125 
z
M 33.203125 13.0625 
C 33.203125 11.671875 33.203125 10.203125 30.09375 7.53125 
C 28.09375 5.859375 25.703125 5.078125 23.40625 5.078125 
C 18 5.078125 10.90625 9 10.90625 20.9375 
C 10.90625 33.34375 18.90625 37 24.40625 37 
C 28.09375 37 31.09375 35.21875 33.203125 32.265625 
z
" id="CMSS17-100"/>
      <path d="M 39.09375 21.515625 
C 39.09375 24.84375 38.90625 31.296875 35.703125 36.640625 
C 32.203125 42.390625 26.5 44 22.203125 44 
C 11.796875 44 3 34.1875 3 21.484375 
C 3 9.09375 12.09375 -1 23.59375 -1 
C 28.09375 -1 33.59375 0.296875 38.59375 3.875 
C 38.59375 4.28125 38.40625 6.46875 38.296875 6.5625 
C 38.296875 6.765625 38 9.84375 38 10.25 
C 33.203125 6.359375 27.703125 5.078125 23.703125 5.078125 
C 17.296875 5.078125 10.40625 10.421875 10.09375 21.515625 
z
M 10.90625 27 
C 12.203125 32.5625 16.59375 37.828125 22.203125 37.828125 
C 23.703125 37.828125 30.703125 37.828125 32.5 27 
z
" id="CMSS17-101"/>
      <path d="M 16.796875 37 
L 26.90625 37 
L 26.90625 42.765625 
L 16.59375 42.765625 
L 16.59375 55.609375 
C 16.59375 62.71875 22 63.9375 25.09375 63.9375 
C 26.09375 63.9375 28.90625 63.9375 32.5 62.640625 
L 32.5 69.203125 
C 30.203125 69.703125 27.40625 70 25.203125 70 
C 15.90625 70 9.40625 62.390625 9.40625 52.484375 
L 9.40625 42.765625 
L 2.5 42.765625 
L 2.5 37 
L 9.40625 37 
L 9.40625 0 
L 16.796875 0 
z
" id="CMSS17-102"/>
      <path d="M 40.90625 42.796875 
L 33.296875 42.796875 
L 33.296875 15.1875 
C 33.296875 7.78125 27.90625 4.78125 22.203125 4.78125 
C 15.59375 4.78125 15 6.984375 15 11.078125 
L 15 42.796875 
L 7.40625 42.796875 
L 7.40625 10.59375 
C 7.40625 2.796875 10.09375 -1 17 -1 
C 20.40625 -1 28.09375 -0.203125 33.5 4.78125 
L 33.5 0 
L 40.90625 0 
z
" id="CMSS17-117"/>
      <path d="M 16.703125 37 
L 29.703125 37 
L 29.703125 42.765625 
L 16.703125 42.765625 
L 16.703125 55 
L 9.59375 55 
L 9.59375 42.765625 
L 1.703125 42.765625 
L 1.703125 37 
L 9.40625 37 
L 9.40625 11.703125 
C 9.40625 6 10.703125 -1 17.296875 -1 
C 22.296875 -1 26.90625 0.390625 31.296875 2.6875 
L 29.703125 8.5625 
C 27.296875 6.46875 24.40625 5.265625 21.296875 5.265625 
C 16.90625 5.265625 16.703125 10.875 16.703125 13.375 
z
" id="CMSS17-116"/>
      <path d="M 14.90625 21.296875 
C 14.90625 30.703125 21.796875 37 30.59375 37 
L 30.59375 43.578125 
C 24.203125 43.578125 18.203125 40.390625 14.59375 35.203125 
L 14.59375 43.09375 
L 7.5 43.09375 
L 7.5 0 
L 14.90625 0 
z
" id="CMSS17-114"/>
      <path d="M 15.09375 5.203125 
C 18.40625 2.015625 22.90625 -0.078125 27.703125 -0.078125 
C 37 -0.078125 45 9.421875 45 22.0625 
C 45 33.734375 39 44 30.40625 44 
C 25.40625 44 19.40625 42.21875 14.90625 38.625 
L 14.90625 43.203125 
L 7.5 43.203125 
L 7.5 -19 
L 15.09375 -19 
z
M 15.09375 32.8125 
C 15.90625 34 19.296875 37.734375 24.796875 37.734375 
C 31.796875 37.734375 37.40625 30.625 37.40625 22.0625 
C 37.40625 12.296875 30.59375 6 23.90625 6 
C 21.90625 6 19.796875 6.484375 17.796875 8.171875 
C 15.09375 10.53125 15.09375 12 15.09375 13.390625 
z
" id="CMSS17-112"/>
      <path d="M 43 69 
L 35 69 
L 35 61.03125 
L 43 61.03125 
z
M 42.703125 42.765625 
L 35.296875 42.765625 
L 35.296875 0 
L 42.703125 0 
z
M 16.796875 37 
L 27.703125 37 
L 27.703125 42.765625 
L 16.59375 42.765625 
L 16.59375 55.90625 
C 16.59375 61.234375 19 63.9375 22.203125 63.9375 
C 24.09375 63.9375 26 63.375 27.703125 62.375 
L 27.703125 68.90625 
C 26.90625 69.1875 24.59375 70 22.203125 70 
C 14.703125 70 9.40625 62.390625 9.40625 52.6875 
L 9.40625 42.765625 
L 2.5 42.765625 
L 2.5 37 
L 9.40625 37 
L 9.40625 0 
L 16.796875 0 
z
" id="CMSS17-12"/>
      <path d="M 14.90625 69 
L 7.5 69 
L 7.5 -0.203125 
L 15.09375 -0.203125 
L 15.09375 4.28125 
C 18.90625 0.59375 23.5 -1 27.59375 -1 
C 37.203125 -1 45 8.578125 45 21.125 
C 45 32.59375 39 43.0625 30.09375 43.0625 
C 23.796875 43.0625 18.203125 40.484375 14.90625 37.796875 
z
M 15.09375 31.96875 
C 17.296875 34.71875 20.40625 37 24.796875 37 
C 30.703125 37 37.40625 32.765625 37.40625 21.125 
C 37.40625 8.71875 29.40625 5.078125 23.90625 5.078125 
C 21.90625 5.078125 19.796875 5.5625 17.796875 7.25 
C 15.09375 9.609375 15.09375 11.078125 15.09375 12.453125 
z
" id="CMSS17-98"/>
      <path d="M 41.796875 43 
L 34 43 
C 25.5 20.21875 22.59375 10.96875 22.40625 5.984375 
L 22.296875 5.984375 
C 22 10.875 17.59375 22.8125 14.09375 31.359375 
L 9.40625 43 
L 1.296875 43 
L 19 0.203125 
C 17.90625 -2.78125 16.296875 -7.265625 15.796875 -8.265625 
C 13.59375 -13.828125 12.09375 -13.828125 10.5 -13.828125 
C 10.09375 -13.828125 6.90625 -13.828125 3.296875 -12.640625 
L 3.90625 -19.203125 
C 6.40625 -19.703125 8.90625 -20 10.703125 -20 
C 13.203125 -20 18.203125 -20 22.796875 -7.765625 
z
" id="CMSS17-121"/>
     </defs>
     <g transform="translate(665.556595 481.686853)scale(0.204 -0.204)">
      <use transform="scale(0.996264)" xlink:href="#CMSS17-77"/>
      <use transform="translate(81.67603 0)scale(0.996264)" xlink:href="#CMSS17-105"/>
      <use transform="translate(103.856753 0)scale(0.996264)" xlink:href="#CMSS17-110"/>
      <use transform="translate(152.061696 0)scale(0.996264)" xlink:href="#CMSS17-105"/>
      <use transform="translate(174.242419 0)scale(0.996264)" xlink:href="#CMSS17-109"/>
      <use transform="translate(248.471674 0)scale(0.996264)" xlink:href="#CMSS17-97"/>
      <use transform="translate(293.393594 0)scale(0.996264)" xlink:href="#CMSS17-108"/>
      <use transform="translate(346.80343 0)scale(0.996264)" xlink:href="#CMSS17-110"/>
      <use transform="translate(395.008373 0)scale(0.996264)" xlink:href="#CMSS17-111"/>
      <use transform="translate(441.851997 0)scale(0.996264)" xlink:href="#CMSS17-110"/>
      <use transform="translate(490.05694 0)scale(0.996264)" xlink:href="#CMSS17-45"/>
      <use transform="translate(521.286053 0)scale(0.996264)" xlink:href="#CMSS17-100"/>
      <use transform="translate(569.490996 0)scale(0.996264)" xlink:href="#CMSS17-101"/>
      <use transform="translate(611.129818 0)scale(0.996264)" xlink:href="#CMSS17-102"/>
      <use transform="translate(639.756477 0)scale(0.996264)" xlink:href="#CMSS17-97"/>
      <use transform="translate(684.678397 0)scale(0.996264)" xlink:href="#CMSS17-117"/>
      <use transform="translate(732.88334 0)scale(0.996264)" xlink:href="#CMSS17-108"/>
      <use transform="translate(755.064063 0)scale(0.996264)" xlink:href="#CMSS17-116"/>
      <use transform="translate(820.124743 0)scale(0.996264)" xlink:href="#CMSS17-114"/>
      <use transform="translate(852.034515 0)scale(0.996264)" xlink:href="#CMSS17-97"/>
      <use transform="translate(896.956436 0)scale(0.996264)" xlink:href="#CMSS17-116"/>
      <use transform="translate(930.788003 0)scale(0.996264)" xlink:href="#CMSS17-101"/>
      <use transform="translate(1003.655937 0)scale(0.996264)" xlink:href="#CMSS17-102"/>
      <use transform="translate(1032.282596 0)scale(0.996264)" xlink:href="#CMSS17-111"/>
      <use transform="translate(1076.523766 0)scale(0.996264)" xlink:href="#CMSS17-114"/>
      <use transform="translate(1139.662651 0)scale(0.996264)" xlink:href="#CMSS17-112"/>
      <use transform="translate(1185.26514 0)scale(0.996264)" xlink:href="#CMSS17-114"/>
      <use transform="translate(1217.174913 0)scale(0.996264)" xlink:href="#CMSS17-111"/>
      <use transform="translate(1264.018536 0)scale(0.996264)" xlink:href="#CMSS17-12"/>
      <use transform="translate(1314.145274 0)scale(0.996264)" xlink:href="#CMSS17-116"/>
      <use transform="translate(1347.97684 0)scale(0.996264)" xlink:href="#CMSS17-97"/>
      <use transform="translate(1392.898761 0)scale(0.996264)" xlink:href="#CMSS17-98"/>
      <use transform="translate(1441.103704 0)scale(0.996264)" xlink:href="#CMSS17-105"/>
      <use transform="translate(1463.284427 0)scale(0.996264)" xlink:href="#CMSS17-108"/>
      <use transform="translate(1485.46515 0)scale(0.996264)" xlink:href="#CMSS17-105"/>
      <use transform="translate(1507.645873 0)scale(0.996264)" xlink:href="#CMSS17-116"/>
      <use transform="translate(1538.874986 0)scale(0.996264)" xlink:href="#CMSS17-121"/>
     </g>
    </g>
   </g>
   <g id="matplotlib.axis_2">
    <g id="ytick_1">
     <g id="line2d_7">
      <defs>
       <path d="M 0 0 
L -3.5 0 
" id="mf735e0ef9d" style="stroke:#000000;stroke-width:0.8;"/>
      </defs>
      <g>
       <use style="stroke:#000000;stroke-width:0.8;" x="604.120416" xlink:href="#mf735e0ef9d" y="441.517384"/>
      </g>
     </g>
     <g id="text_8">
      <!-- $0.0$ -->
      <defs>
       <path d="M 42 31.640625 
C 42 37.75 41.90625 48.125 37.703125 56.109375 
C 34 63.109375 28.09375 65.59375 22.90625 65.59375 
C 18.09375 65.59375 12 63.40625 8.203125 56.203125 
C 4.203125 48.71875 3.796875 39.4375 3.796875 31.640625 
C 3.796875 25.953125 3.90625 17.28125 7 9.671875 
C 11.296875 -0.609375 19 -2 22.90625 -2 
C 27.5 -2 34.5 -0.109375 38.59375 9.375 
C 41.59375 16.28125 42 24.359375 42 31.640625 
z
M 22.90625 -0.40625 
C 16.5 -0.40625 12.703125 5.078125 11.296875 12.6875 
C 10.203125 18.5625 10.203125 27.15625 10.203125 32.75 
C 10.203125 40.4375 10.203125 46.828125 11.5 52.921875 
C 13.40625 61.390625 19 64 22.90625 64 
C 27 64 32.296875 61.296875 34.203125 53.125 
C 35.5 47.4375 35.59375 40.734375 35.59375 32.75 
C 35.59375 26.25 35.59375 18.265625 34.40625 12.375 
C 32.296875 1.484375 26.40625 -0.40625 22.90625 -0.40625 
z
" id="CMR17-48"/>
       <path d="M 18.40625 4.796875 
C 18.40625 7.6875 16 9.671875 13.59375 9.671875 
C 10.703125 9.671875 8.703125 7.28125 8.703125 4.890625 
C 8.703125 2 11.09375 0 13.5 0 
C 16.40625 0 18.40625 2.390625 18.40625 4.796875 
z
" id="CMMI12-58"/>
      </defs>
      <g transform="translate(576.979133 447.39811)scale(0.17 -0.17)">
       <use transform="scale(0.996264)" xlink:href="#CMR17-48"/>
       <use transform="translate(45.690477 0)scale(0.996264)" xlink:href="#CMMI12-58"/>
       <use transform="translate(72.787654 0)scale(0.996264)" xlink:href="#CMR17-48"/>
      </g>
     </g>
    </g>
    <g id="ytick_2">
     <g id="line2d_8">
      <g>
       <use style="stroke:#000000;stroke-width:0.8;" x="604.120416" xlink:href="#mf735e0ef9d" y="367.415058"/>
      </g>
     </g>
     <g id="text_9">
      <!-- $0.2$ -->
      <defs>
       <path d="M 41.703125 15.453125 
L 39.90625 15.453125 
C 38.90625 8.375 38.09375 7.171875 37.703125 6.5625 
C 37.203125 5.765625 30 5.765625 28.59375 5.765625 
L 9.40625 5.765625 
C 13 9.671875 20 16.75 28.5 24.953125 
C 34.59375 30.734375 41.703125 37.53125 41.703125 47.421875 
C 41.703125 59.21875 32.296875 66 21.796875 66 
C 10.796875 66 4.09375 56.3125 4.09375 47.34375 
C 4.09375 43.4375 7 42.9375 8.203125 42.9375 
C 9.203125 42.9375 12.203125 43.546875 12.203125 47.03125 
C 12.203125 50.109375 9.59375 51 8.203125 51 
C 7.59375 51 7 50.90625 6.59375 50.703125 
C 8.5 59.21875 14.296875 63.40625 20.40625 63.40625 
C 29.09375 63.40625 34.796875 56.515625 34.796875 47.421875 
C 34.796875 38.734375 29.703125 31.25 24 24.75 
L 4.09375 2.28125 
L 4.09375 0 
L 39.296875 0 
z
" id="CMR17-50"/>
      </defs>
      <g transform="translate(576.979133 373.295784)scale(0.17 -0.17)">
       <use transform="scale(0.996264)" xlink:href="#CMR17-48"/>
       <use transform="translate(45.690477 0)scale(0.996264)" xlink:href="#CMMI12-58"/>
       <use transform="translate(72.787654 0)scale(0.996264)" xlink:href="#CMR17-50"/>
      </g>
     </g>
    </g>
    <g id="ytick_3">
     <g id="line2d_9">
      <g>
       <use style="stroke:#000000;stroke-width:0.8;" x="604.120416" xlink:href="#mf735e0ef9d" y="293.312732"/>
      </g>
     </g>
     <g id="text_10">
      <!-- $0.4$ -->
      <defs>
       <path d="M 33.59375 64.40625 
C 33.59375 66.5 33.5 66.5 31.703125 66.5 
L 2 19.59375 
L 2 17 
L 27.796875 17 
L 27.796875 7.140625 
C 27.796875 3.5 27.59375 2.5 20.59375 2.5 
L 18.703125 2.5 
L 18.703125 0 
C 21.90625 0 27.296875 0 30.703125 0 
C 34.09375 0 39.5 0 42.703125 0 
L 42.703125 2.5 
L 40.796875 2.5 
C 33.796875 2.5 33.59375 3.5 33.59375 7.140625 
L 33.59375 17 
L 43.796875 17 
L 43.796875 19.59375 
L 33.59375 19.59375 
z
M 28.09375 57.859375 
L 28.09375 19.59375 
L 4 19.59375 
z
" id="CMR17-52"/>
      </defs>
      <g transform="translate(576.979133 299.193457)scale(0.17 -0.17)">
       <use transform="scale(0.996264)" xlink:href="#CMR17-48"/>
       <use transform="translate(45.690477 0)scale(0.996264)" xlink:href="#CMMI12-58"/>
       <use transform="translate(72.787654 0)scale(0.996264)" xlink:href="#CMR17-52"/>
      </g>
     </g>
    </g>
    <g id="ytick_4">
     <g id="line2d_10">
      <g>
       <use style="stroke:#000000;stroke-width:0.8;" x="604.120416" xlink:href="#mf735e0ef9d" y="219.210406"/>
      </g>
     </g>
     <g id="text_11">
      <!-- $0.6$ -->
      <defs>
       <path d="M 10.59375 34 
C 10.59375 57.65625 21.796875 63 28.296875 63 
C 30.40625 63 35.5 62.640625 37.5 59 
C 35.90625 59 32.90625 59 32.90625 55.515625 
C 32.90625 52.828125 35.09375 51.921875 36.5 51.921875 
C 37.40625 51.921875 40.09375 52.3125 40.09375 55.625 
C 40.09375 61.78125 35.09375 65.296875 28.203125 65.296875 
C 16.296875 65.296875 3.796875 52.96875 3.796875 31 
C 3.796875 3.953125 15.09375 -2 23.09375 -2 
C 32.796875 -2 42 6.671875 42 20.046875 
C 42 32.515625 33.90625 41.59375 23.703125 41.59375 
C 17.59375 41.59375 13.09375 37.609375 10.59375 30.625 
z
M 23.09375 0.390625 
C 10.796875 0.390625 10.796875 18.75 10.796875 22.4375 
C 10.796875 29.625 14.203125 40 23.5 40 
C 25.203125 40 30.09375 40 33.40625 33.125 
C 35.203125 29.21875 35.203125 25.140625 35.203125 20.140625 
C 35.203125 14.75 35.203125 10.78125 33.09375 6.78125 
C 30.90625 2.671875 27.703125 0.390625 23.09375 0.390625 
z
" id="CMR17-54"/>
      </defs>
      <g transform="translate(576.979133 225.091131)scale(0.17 -0.17)">
       <use transform="scale(0.996264)" xlink:href="#CMR17-48"/>
       <use transform="translate(45.690477 0)scale(0.996264)" xlink:href="#CMMI12-58"/>
       <use transform="translate(72.787654 0)scale(0.996264)" xlink:href="#CMR17-54"/>
      </g>
     </g>
    </g>
    <g id="ytick_5">
     <g id="line2d_11">
      <g>
       <use style="stroke:#000000;stroke-width:0.8;" x="604.120416" xlink:href="#mf735e0ef9d" y="145.10808"/>
      </g>
     </g>
     <g id="text_12">
      <!-- $0.8$ -->
      <defs>
       <path d="M 27.203125 35.375 
C 33.5 38.546875 39.90625 43.328125 39.90625 50.984375 
C 39.90625 60.015625 31.09375 65.296875 23 65.296875 
C 13.90625 65.296875 5.90625 58.734375 5.90625 49.6875 
C 5.90625 47.203125 6.5 42.921875 10.40625 39.140625 
C 11.40625 38.15625 15.59375 35.171875 18.296875 33.28125 
C 13.796875 30.984375 3.296875 25.53125 3.296875 14.59375 
C 3.296875 4.359375 13.09375 -2 22.796875 -2 
C 33.5 -2 42.5 5.65625 42.5 15.78125 
C 42.5 24.84375 36.40625 29.015625 32.40625 31.703125 
z
M 14.09375 44.09375 
C 13.296875 44.59375 9.296875 47.671875 9.296875 52.359375 
C 9.296875 58.421875 15.59375 63 22.796875 63 
C 30.703125 63 36.5 57.4375 36.5 50.96875 
C 36.5 41.703125 26.09375 36.421875 25.59375 36.421875 
C 25.5 36.421875 25.40625 36.421875 24.59375 37.03125 
z
M 32.5 23.734375 
C 34 22.640625 38.796875 19.375 38.796875 13.296875 
C 38.796875 5.953125 31.40625 0.390625 23 0.390625 
C 13.90625 0.390625 7 6.84375 7 14.6875 
C 7 22.546875 13.09375 29.09375 20 32.1875 
z
" id="CMR17-56"/>
      </defs>
      <g transform="translate(576.979133 150.988805)scale(0.17 -0.17)">
       <use transform="scale(0.996264)" xlink:href="#CMR17-48"/>
       <use transform="translate(45.690477 0)scale(0.996264)" xlink:href="#CMMI12-58"/>
       <use transform="translate(72.787654 0)scale(0.996264)" xlink:href="#CMR17-56"/>
      </g>
     </g>
    </g>
    <g id="ytick_6">
     <g id="line2d_12">
      <g>
       <use style="stroke:#000000;stroke-width:0.8;" x="604.120416" xlink:href="#mf735e0ef9d" y="71.005754"/>
      </g>
     </g>
     <g id="text_13">
      <!-- $1.0$ -->
      <defs>
       <path d="M 26.59375 63.40625 
C 26.59375 65.5 26.5 65.5 25.09375 65.5 
C 21.203125 61.1875 15.296875 59.796875 9.703125 59.796875 
C 9.40625 59.796875 8.90625 59.796875 8.796875 59.5 
C 8.703125 59.296875 8.703125 59.09375 8.703125 57 
C 11.796875 57 17 57.59375 21 59.984375 
L 21 7.203125 
C 21 3.6875 20.796875 2.5 12.203125 2.5 
L 9.203125 2.5 
L 9.203125 0 
C 14 0 19 0 23.796875 0 
C 28.59375 0 33.59375 0 38.40625 0 
L 38.40625 2.5 
L 35.40625 2.5 
C 26.796875 2.5 26.59375 3.59375 26.59375 7.15625 
z
" id="CMR17-49"/>
      </defs>
      <g transform="translate(576.979133 76.886479)scale(0.17 -0.17)">
       <use transform="scale(0.996264)" xlink:href="#CMR17-49"/>
       <use transform="translate(45.690477 0)scale(0.996264)" xlink:href="#CMMI12-58"/>
       <use transform="translate(72.787654 0)scale(0.996264)" xlink:href="#CMR17-48"/>
      </g>
     </g>
    </g>
    <g id="text_14">
     <!-- Profit as a fraction of max profit -->
     <defs>
      <path d="M 32.90625 29 
C 44.90625 29 54.703125 38.328125 54.703125 49.34375 
C 54.703125 60.15625 45.296875 69.578125 32.296875 69.578125 
L 8.90625 69.578125 
L 8.90625 0 
L 17.296875 0 
L 17.296875 29 
z
M 30.09375 64 
C 41.703125 64 46.796875 56.671875 46.796875 49.328125 
C 46.796875 42.5 42.09375 34.78125 30.09375 34.78125 
L 17.09375 34.78125 
L 17.09375 64 
z
" id="CMSS17-80"/>
      <path d="M 32.203125 41.046875 
C 26.296875 43.859375 21.703125 43.859375 18.703125 43.859375 
C 11.59375 43.859375 3.09375 41.375 3.09375 31.296875 
C 3.09375 21.234375 14.09375 19.03125 17.09375 18.421875 
C 21.703125 17.53125 26.796875 16.53125 26.796875 11.5625 
C 26.796875 5.265625 19.59375 5.265625 18.296875 5.265625 
C 14.296875 5.265625 8.796875 6.359375 3.796875 9.96875 
L 2.59375 3.28125 
C 8.296875 0 13.796875 -1 18.40625 -1 
C 30.703125 -1 33.796875 6.5 33.796875 12.203125 
C 33.796875 17.09375 31 20.390625 29.09375 21.890625 
C 25.796875 24.5 24.59375 24.796875 16.40625 26.5 
C 15 26.703125 10.09375 27.796875 10.09375 32.28125 
C 10.09375 38 16.40625 38 17.796875 38 
C 24.296875 38 28.296875 35.984375 31 34.5 
z
" id="CMSS17-115"/>
      <path d="M 38.5 39.703125 
C 38.5 40.390625 33.90625 42.40625 32.703125 42.796875 
C 29.40625 44 25.203125 44 24.09375 44 
C 11.09375 44 3.296875 32.703125 3.296875 21.296875 
C 3.296875 9.296875 12 -1 23.703125 -1 
C 30.40625 -1 35.203125 1.1875 39.09375 3.78125 
L 38.5 10.375 
C 34.203125 7.078125 29.203125 5.265625 23.796875 5.265625 
C 16 5.265625 10.90625 12.09375 10.90625 21.390625 
C 10.90625 28.609375 14.203125 37.71875 24.203125 37.71875 
C 29.703125 37.71875 32.796875 36.609375 37.40625 33.515625 
z
" id="CMSS17-99"/>
      <path d="M 24.796875 22.09375 
L 41.5 42.796875 
L 32.796875 42.796875 
L 21.296875 27.765625 
L 9.40625 42.796875 
L 0.5 42.796875 
L 17.796875 22.09375 
L 0 0 
L 8.796875 0 
L 21.296875 17.515625 
L 34.296875 0 
L 43.09375 0 
z
" id="CMSS17-120"/>
     </defs>
     <g transform="translate(569.025986 386.788063)rotate(-90)scale(0.204 -0.204)">
      <use transform="scale(0.996264)" xlink:href="#CMSS17-80"/>
      <use transform="translate(59.735586 0)scale(0.996264)" xlink:href="#CMSS17-114"/>
      <use transform="translate(91.645359 0)scale(0.996264)" xlink:href="#CMSS17-111"/>
      <use transform="translate(138.488982 0)scale(0.996264)" xlink:href="#CMSS17-12"/>
      <use transform="translate(188.61572 0)scale(0.996264)" xlink:href="#CMSS17-116"/>
      <use transform="translate(253.676399 0)scale(0.996264)" xlink:href="#CMSS17-97"/>
      <use transform="translate(298.59832 0)scale(0.996264)" xlink:href="#CMSS17-115"/>
      <use transform="translate(365.740974 0)scale(0.996264)" xlink:href="#CMSS17-97"/>
      <use transform="translate(441.892008 0)scale(0.996264)" xlink:href="#CMSS17-102"/>
      <use transform="translate(470.518667 0)scale(0.996264)" xlink:href="#CMSS17-114"/>
      <use transform="translate(502.428439 0)scale(0.996264)" xlink:href="#CMSS17-97"/>
      <use transform="translate(547.35036 0)scale(0.996264)" xlink:href="#CMSS17-99"/>
      <use transform="translate(588.989182 0)scale(0.996264)" xlink:href="#CMSS17-116"/>
      <use transform="translate(622.820748 0)scale(0.996264)" xlink:href="#CMSS17-105"/>
      <use transform="translate(645.001472 0)scale(0.996264)" xlink:href="#CMSS17-111"/>
      <use transform="translate(691.845095 0)scale(0.996264)" xlink:href="#CMSS17-110"/>
      <use transform="translate(771.279151 0)scale(0.996264)" xlink:href="#CMSS17-111"/>
      <use transform="translate(818.122774 0)scale(0.996264)" xlink:href="#CMSS17-102"/>
      <use transform="translate(877.978546 0)scale(0.996264)" xlink:href="#CMSS17-109"/>
      <use transform="translate(952.2078 0)scale(0.996264)" xlink:href="#CMSS17-97"/>
      <use transform="translate(997.129721 0)scale(0.996264)" xlink:href="#CMSS17-120"/>
      <use transform="translate(1071.358975 0)scale(0.996264)" xlink:href="#CMSS17-112"/>
      <use transform="translate(1116.961465 0)scale(0.996264)" xlink:href="#CMSS17-114"/>
      <use transform="translate(1148.871237 0)scale(0.996264)" xlink:href="#CMSS17-111"/>
      <use transform="translate(1195.714861 0)scale(0.996264)" xlink:href="#CMSS17-12"/>
      <use transform="translate(1245.841598 0)scale(0.996264)" xlink:href="#CMSS17-116"/>
     </g>
    </g>
   </g>
   <g id="line2d_13"/>
   <g id="line2d_14">
    <path clip-path="url(#pd5ef883b46)" d="M 604.120416 71.005754 
L 626.399139 71.044975 
L 648.677863 71.073683 
L 670.956586 71.3958 
L 693.23531 71.618557 
L 715.514034 71.492543 
L 737.792757 71.366588 
L 760.071481 71.413898 
L 782.350204 71.436229 
L 804.628928 71.439669 
L 826.907652 71.509242 
L 849.186375 71.576015 
L 871.465099 71.746911 
L 893.743823 71.995922 
L 916.022546 72.11253 
L 938.30127 72.314399 
L 960.579993 72.871709 
L 982.858717 73.529845 
L 1005.137441 75.336902 
L 1009.593185 77.036835 
L 1014.04893 78.261233 
L 1018.504675 79.195795 
L 1022.96042 81.195005 
L 1027.416164 84.01797 
L 1031.871909 85.684321 
L 1036.327654 93.141997 
L 1040.783398 114.375525 
L 1045.239143 275.116387 
" style="fill:none;stroke:#008000;stroke-dasharray:11.1,4.8;stroke-dashoffset:0;stroke-width:3;"/>
   </g>
   <g id="line2d_15">
    <path clip-path="url(#pd5ef883b46)" d="M 604.120416 71.036303 
L 626.399139 71.173762 
L 648.677863 71.62182 
L 670.956586 72.58155 
L 693.23531 73.68205 
L 715.514034 74.874168 
L 737.792757 76.383134 
L 760.071481 77.957134 
L 782.350204 79.765802 
L 804.628928 81.28045 
L 826.907652 82.303245 
L 849.186375 84.131169 
L 871.465099 84.592185 
L 893.743823 84.998758 
L 916.022546 87.128719 
L 938.30127 89.866063 
L 960.579993 95.425982 
L 982.858717 102.52719 
L 1005.137441 116.484877 
L 1009.593185 120.916242 
L 1014.04893 125.375334 
L 1018.504675 132.723418 
L 1022.96042 141.346681 
L 1027.416164 152.606775 
L 1031.871909 169.697092 
L 1036.327654 205.851404 
L 1040.783398 240.923097 
L 1045.239143 417.673974 
" style="fill:none;stroke:#ff0000;stroke-dasharray:19.2,4.8,3,4.8;stroke-dashoffset:0;stroke-width:3;"/>
   </g>
   <g id="line2d_16">
    <path clip-path="url(#pd5ef883b46)" d="M 604.120416 71.037941 
L 626.399139 71.440835 
L 648.677863 72.708102 
L 670.956586 75.148422 
L 693.23531 78.435128 
L 715.514034 82.183899 
L 737.792757 86.531998 
L 760.071481 90.951183 
L 782.350204 93.840416 
L 804.628928 94.839862 
L 826.907652 95.271266 
L 849.186375 96.625735 
L 871.465099 99.24917 
L 893.743823 103.77511 
L 916.022546 111.320532 
L 938.30127 122.871212 
L 960.579993 137.671557 
L 982.858717 157.994397 
L 1005.137441 199.574324 
L 1009.593185 214.771955 
L 1014.04893 235.265466 
L 1018.504675 255.323064 
L 1022.96042 262.135851 
L 1027.416164 270.10524 
L 1031.871909 282.21735 
L 1036.327654 304.825783 
L 1040.783398 353.574453 
L 1045.239143 441.517384 
" style="fill:none;stroke:#00bfbf;stroke-dasharray:3,4.95;stroke-dashoffset:0;stroke-width:3;"/>
   </g>
   <g id="line2d_17">
    <path clip-path="url(#pd5ef883b46)" d="M 604.120416 71.004988 
L 626.399139 71.296164 
L 648.677863 71.941101 
L 670.956586 73.399533 
L 693.23531 75.278563 
L 715.514034 77.393749 
L 737.792757 80.379949 
L 760.071481 83.357763 
L 782.350204 87.369198 
L 804.628928 91.963648 
L 826.907652 97.275135 
L 849.186375 103.459042 
L 871.465099 111.643035 
L 893.743823 120.914349 
L 916.022546 133.935726 
L 938.30127 151.298306 
L 960.579993 174.470419 
L 982.858717 200.154404 
L 1005.137441 228.58468 
L 1009.593185 239.494624 
L 1014.04893 245.833781 
L 1018.504675 251.984139 
L 1022.96042 263.756551 
L 1027.416164 275.484738 
L 1031.871909 292.60033 
L 1036.327654 313.401007 
L 1040.783398 320.788418 
L 1045.239143 487.818604 
" style="fill:none;stroke:#bfbf00;stroke-linecap:square;stroke-width:3;"/>
   </g>
   <g id="patch_3">
    <path d="M 604.120416 441.517384 
L 604.120416 71.005754 
" style="fill:none;stroke:#000000;stroke-linecap:square;stroke-linejoin:miter;stroke-width:0.8;"/>
   </g>
   <g id="patch_4">
    <path d="M 1049.694888 441.517384 
L 1049.694888 71.005754 
" style="fill:none;stroke:#000000;stroke-linecap:square;stroke-linejoin:miter;stroke-width:0.8;"/>
   </g>
   <g id="patch_5">
    <path d="M 604.120416 441.517384 
L 1049.694888 441.517384 
" style="fill:none;stroke:#000000;stroke-linecap:square;stroke-linejoin:miter;stroke-width:0.8;"/>
   </g>
   <g id="patch_6">
    <path d="M 604.120416 71.005754 
L 1049.694888 71.005754 
" style="fill:none;stroke:#000000;stroke-linecap:square;stroke-linejoin:miter;stroke-width:0.8;"/>
   </g>
   <g id="text_15">
    <!-- Fraction of max profit earned as a -->
    <defs>
     <path d="M 45.59375 31 
L 45.59375 37.078125 
L 17.203125 37.078125 
L 17.203125 62 
L 29.40625 62 
C 30.59375 62 31.796875 62 33 62 
L 49.5 62 
L 49.5 68.359375 
L 8.796875 68.359375 
L 8.796875 -0.5 
L 17.203125 -0.5 
L 17.203125 31 
z
" id="CMSS17-70"/>
    </defs>
    <g transform="translate(690.921103 33.000781)scale(0.204 -0.204)">
     <use transform="scale(0.996264)" xlink:href="#CMSS17-70"/>
     <use transform="translate(50.687105 0)scale(0.996264)" xlink:href="#CMSS17-114"/>
     <use transform="translate(82.596878 0)scale(0.996264)" xlink:href="#CMSS17-97"/>
     <use transform="translate(127.518799 0)scale(0.996264)" xlink:href="#CMSS17-99"/>
     <use transform="translate(169.157621 0)scale(0.996264)" xlink:href="#CMSS17-116"/>
     <use transform="translate(202.989187 0)scale(0.996264)" xlink:href="#CMSS17-105"/>
     <use transform="translate(225.16991 0)scale(0.996264)" xlink:href="#CMSS17-111"/>
     <use transform="translate(272.013534 0)scale(0.996264)" xlink:href="#CMSS17-110"/>
     <use transform="translate(351.44759 0)scale(0.996264)" xlink:href="#CMSS17-111"/>
     <use transform="translate(398.291213 0)scale(0.996264)" xlink:href="#CMSS17-102"/>
     <use transform="translate(458.146985 0)scale(0.996264)" xlink:href="#CMSS17-109"/>
     <use transform="translate(532.376239 0)scale(0.996264)" xlink:href="#CMSS17-97"/>
     <use transform="translate(577.29816 0)scale(0.996264)" xlink:href="#CMSS17-120"/>
     <use transform="translate(651.527414 0)scale(0.996264)" xlink:href="#CMSS17-112"/>
     <use transform="translate(697.129903 0)scale(0.996264)" xlink:href="#CMSS17-114"/>
     <use transform="translate(729.039676 0)scale(0.996264)" xlink:href="#CMSS17-111"/>
     <use transform="translate(775.8833 0)scale(0.996264)" xlink:href="#CMSS17-12"/>
     <use transform="translate(826.010037 0)scale(0.996264)" xlink:href="#CMSS17-116"/>
     <use transform="translate(891.070716 0)scale(0.996264)" xlink:href="#CMSS17-101"/>
     <use transform="translate(932.709538 0)scale(0.996264)" xlink:href="#CMSS17-97"/>
     <use transform="translate(975.029005 0)scale(0.996264)" xlink:href="#CMSS17-114"/>
     <use transform="translate(1006.938778 0)scale(0.996264)" xlink:href="#CMSS17-110"/>
     <use transform="translate(1055.143721 0)scale(0.996264)" xlink:href="#CMSS17-101"/>
     <use transform="translate(1096.782543 0)scale(0.996264)" xlink:href="#CMSS17-100"/>
     <use transform="translate(1176.216599 0)scale(0.996264)" xlink:href="#CMSS17-97"/>
     <use transform="translate(1221.138519 0)scale(0.996264)" xlink:href="#CMSS17-115"/>
     <use transform="translate(1288.281174 0)scale(0.996264)" xlink:href="#CMSS17-97"/>
    </g>
    <!-- function of minimal desired non-default rate -->
    <g transform="translate(651.308169 53.890405)scale(0.204 -0.204)">
     <use transform="scale(0.996264)" xlink:href="#CMSS17-102"/>
     <use transform="translate(28.626659 0)scale(0.996264)" xlink:href="#CMSS17-117"/>
     <use transform="translate(76.831602 0)scale(0.996264)" xlink:href="#CMSS17-110"/>
     <use transform="translate(125.036545 0)scale(0.996264)" xlink:href="#CMSS17-99"/>
     <use transform="translate(166.675367 0)scale(0.996264)" xlink:href="#CMSS17-116"/>
     <use transform="translate(200.506934 0)scale(0.996264)" xlink:href="#CMSS17-105"/>
     <use transform="translate(222.687657 0)scale(0.996264)" xlink:href="#CMSS17-111"/>
     <use transform="translate(269.53128 0)scale(0.996264)" xlink:href="#CMSS17-110"/>
     <use transform="translate(348.965336 0)scale(0.996264)" xlink:href="#CMSS17-111"/>
     <use transform="translate(395.80896 0)scale(0.996264)" xlink:href="#CMSS17-102"/>
     <use transform="translate(455.664731 0)scale(0.996264)" xlink:href="#CMSS17-109"/>
     <use transform="translate(529.893986 0)scale(0.996264)" xlink:href="#CMSS17-105"/>
     <use transform="translate(552.074709 0)scale(0.996264)" xlink:href="#CMSS17-110"/>
     <use transform="translate(600.279652 0)scale(0.996264)" xlink:href="#CMSS17-105"/>
     <use transform="translate(622.460375 0)scale(0.996264)" xlink:href="#CMSS17-109"/>
     <use transform="translate(696.689629 0)scale(0.996264)" xlink:href="#CMSS17-97"/>
     <use transform="translate(741.61155 0)scale(0.996264)" xlink:href="#CMSS17-108"/>
     <use transform="translate(795.021386 0)scale(0.996264)" xlink:href="#CMSS17-100"/>
     <use transform="translate(843.226329 0)scale(0.996264)" xlink:href="#CMSS17-101"/>
     <use transform="translate(884.865151 0)scale(0.996264)" xlink:href="#CMSS17-115"/>
     <use transform="translate(920.778693 0)scale(0.996264)" xlink:href="#CMSS17-105"/>
     <use transform="translate(942.959416 0)scale(0.996264)" xlink:href="#CMSS17-114"/>
     <use transform="translate(974.869189 0)scale(0.996264)" xlink:href="#CMSS17-101"/>
     <use transform="translate(1016.508011 0)scale(0.996264)" xlink:href="#CMSS17-100"/>
     <use transform="translate(1095.942067 0)scale(0.996264)" xlink:href="#CMSS17-110"/>
     <use transform="translate(1144.14701 0)scale(0.996264)" xlink:href="#CMSS17-111"/>
     <use transform="translate(1190.990633 0)scale(0.996264)" xlink:href="#CMSS17-110"/>
     <use transform="translate(1239.195576 0)scale(0.996264)" xlink:href="#CMSS17-45"/>
     <use transform="translate(1270.424689 0)scale(0.996264)" xlink:href="#CMSS17-100"/>
     <use transform="translate(1318.629632 0)scale(0.996264)" xlink:href="#CMSS17-101"/>
     <use transform="translate(1360.268454 0)scale(0.996264)" xlink:href="#CMSS17-102"/>
     <use transform="translate(1388.895113 0)scale(0.996264)" xlink:href="#CMSS17-97"/>
     <use transform="translate(1433.817034 0)scale(0.996264)" xlink:href="#CMSS17-117"/>
     <use transform="translate(1482.021977 0)scale(0.996264)" xlink:href="#CMSS17-108"/>
     <use transform="translate(1504.2027 0)scale(0.996264)" xlink:href="#CMSS17-116"/>
     <use transform="translate(1569.263379 0)scale(0.996264)" xlink:href="#CMSS17-114"/>
     <use transform="translate(1601.173152 0)scale(0.996264)" xlink:href="#CMSS17-97"/>
     <use transform="translate(1646.095073 0)scale(0.996264)" xlink:href="#CMSS17-116"/>
     <use transform="translate(1679.926639 0)scale(0.996264)" xlink:href="#CMSS17-101"/>
    </g>
   </g>
   <g id="legend_1">
    <g id="patch_7">
     <path d="M 616.020416 433.017384 
L 776.034403 433.017384 
Q 779.434403 433.017384 779.434403 429.617384 
L 779.434403 336.540235 
Q 779.434403 333.140235 776.034403 333.140235 
L 616.020416 333.140235 
Q 612.620416 333.140235 612.620416 336.540235 
L 612.620416 429.617384 
Q 612.620416 433.017384 616.020416 433.017384 
z
" style="fill:#ffffff;opacity:0.8;stroke:#cccccc;stroke-linejoin:miter;"/>
    </g>
    <g id="line2d_18">
     <path d="M 619.420416 345.890235 
L 653.420416 345.890235 
" style="fill:none;stroke:#008000;stroke-dasharray:11.1,4.8;stroke-dashoffset:0;stroke-width:3;"/>
    </g>
    <g id="line2d_19"/>
    <g id="text_16">
     <!-- Single threshold -->
     <defs>
      <path d="M 43.703125 65.140625 
C 39.296875 67.71875 34.5 70 26.40625 70 
C 13.5 70 5.203125 60.609375 5.203125 51.03125 
C 5.203125 47.265625 6.296875 43.015625 10.203125 38.671875 
C 14.09375 34.3125 18.5 33.140625 24.09375 31.765625 
C 26.40625 31.15625 30.296875 30.0625 31 29.78125 
C 36.59375 27.609375 39.296875 22.5625 39.296875 17.8125 
C 39.296875 11.59375 34.40625 4.96875 25.703125 4.96875 
C 22.703125 4.96875 13.90625 4.96875 5.59375 12.796875 
L 4.203125 4.96875 
C 12.40625 -1 21.296875 -2 25.796875 -2 
C 38.09375 -2 46.90625 7.625 46.90625 18.53125 
C 46.90625 22.5 45.703125 27.546875 41.5 32.203125 
C 37.40625 36.671875 33.796875 37.65625 25.59375 39.828125 
C 20.90625 41.03125 17.90625 41.828125 15.40625 44.890625 
C 13.703125 47.078125 12.796875 49.15625 12.796875 51.828125 
C 12.796875 57.390625 17.59375 63.4375 26.40625 63.4375 
C 30.796875 63.4375 36.5 62.53125 42.296875 57.1875 
z
" id="CMSS17-83"/>
      <path d="M 44.5 43.875 
C 38.796875 43.875 33.90625 42.78125 29.90625 40.890625 
C 26.59375 43.390625 23.203125 43.875 20.90625 43.875 
C 12.203125 43.875 5.59375 36.703125 5.59375 28.34375 
C 5.59375 22.9375 8.59375 18.859375 8.796875 18.671875 
C 7 16.171875 6 13.484375 6 10.5 
C 6 7 7.40625 4.515625 8.5 3.125 
C 3.296875 -0.046875 2.59375 -4.90625 2.59375 -6.796875 
C 2.59375 -14.03125 11.703125 -20 23.40625 -20 
C 35.203125 -20 44.296875 -14.03125 44.296875 -6.6875 
C 44.296875 7 29 7 24.796875 7 
L 16.703125 7 
C 15.203125 7 11.203125 7 11.203125 12.359375 
C 11.203125 14.390625 12.09375 15.6875 12.203125 15.78125 
C 13.703125 14.6875 16.796875 13 20.90625 13 
C 29.203125 13 36.09375 19.96875 36.09375 28.546875 
C 36.09375 33.3125 33.90625 36.796875 33 38 
L 33.296875 38 
C 33.59375 38 37.796875 38 39.296875 38 
C 42.5 38 42.796875 37.953125 45.59375 37.796875 
z
M 20.90625 18.46875 
C 17.5 18.46875 12.703125 20.546875 12.703125 28.484375 
C 12.703125 37.109375 18.203125 38.5 20.796875 38.5 
C 24.203125 38.5 29 36.421875 29 28.484375 
C 29 19.859375 23.5 18.46875 20.90625 18.46875 
z
M 24.703125 -0.15625 
C 27.09375 -0.15625 37.203125 -0.15625 37.203125 -6.90625 
C 37.203125 -11.15625 31 -14.515625 23.5 -14.515625 
C 15.90625 -14.515625 9.703125 -11.25 9.703125 -6.796875 
C 9.703125 -6.296875 9.703125 -0.15625 16.59375 -0.15625 
z
" id="CMSS17-103"/>
      <path d="M 40.90625 29.546875 
C 40.90625 35.8125 39.40625 44.0625 28.09375 44.0625 
C 21.796875 44.0625 17.703125 40.984375 14.796875 37.609375 
L 14.796875 69.5 
L 7.40625 69.5 
L 7.40625 0.5 
L 15 0.5 
L 15 24.578125 
C 15 30.828125 17.40625 38 24.203125 38 
C 33 38 33.296875 32.125 33.296875 28.734375 
L 33.296875 0.5 
L 40.90625 0.5 
z
" id="CMSS17-104"/>
     </defs>
     <g transform="translate(667.020416 351.840235)scale(0.17 -0.17)">
      <use transform="scale(0.996264)" xlink:href="#CMSS17-83"/>
      <use transform="translate(52.048516 0)scale(0.996264)" xlink:href="#CMSS17-105"/>
      <use transform="translate(74.229239 0)scale(0.996264)" xlink:href="#CMSS17-110"/>
      <use transform="translate(122.434182 0)scale(0.996264)" xlink:href="#CMSS17-103"/>
      <use transform="translate(169.277806 0)scale(0.996264)" xlink:href="#CMSS17-108"/>
      <use transform="translate(191.458529 0)scale(0.996264)" xlink:href="#CMSS17-101"/>
      <use transform="translate(264.326464 0)scale(0.996264)" xlink:href="#CMSS17-116"/>
      <use transform="translate(298.15803 0)scale(0.996264)" xlink:href="#CMSS17-104"/>
      <use transform="translate(346.362974 0)scale(0.996264)" xlink:href="#CMSS17-114"/>
      <use transform="translate(378.272746 0)scale(0.996264)" xlink:href="#CMSS17-101"/>
      <use transform="translate(419.911568 0)scale(0.996264)" xlink:href="#CMSS17-115"/>
      <use transform="translate(455.82511 0)scale(0.996264)" xlink:href="#CMSS17-104"/>
      <use transform="translate(504.030053 0)scale(0.996264)" xlink:href="#CMSS17-111"/>
      <use transform="translate(550.873677 0)scale(0.996264)" xlink:href="#CMSS17-108"/>
      <use transform="translate(573.0544 0)scale(0.996264)" xlink:href="#CMSS17-100"/>
     </g>
    </g>
    <g id="line2d_20">
     <path d="M 619.420416 369.584522 
L 653.420416 369.584522 
" style="fill:none;stroke:#ff0000;stroke-dasharray:19.2,4.8,3,4.8;stroke-dashoffset:0;stroke-width:3;"/>
    </g>
    <g id="line2d_21"/>
    <g id="text_17">
     <!-- Opportunity -->
     <defs>
      <path d="M 64 34.03125 
C 64 54.734375 50.296875 70.265625 34.59375 70.265625 
C 18.90625 70.265625 5.203125 54.640625 5.203125 34.03125 
C 5.203125 13.234375 19.09375 -2 34.59375 -2 
C 50.09375 -2 64 13.234375 64 34.03125 
z
M 34.59375 4.265625 
C 23.59375 4.265625 13.59375 16.515625 13.59375 35.328125 
C 13.59375 53.640625 24.203125 64 34.59375 64 
C 45 64 55.59375 53.640625 55.59375 35.328125 
C 55.59375 16.421875 45.5 4.265625 34.59375 4.265625 
z
" id="CMSS17-79"/>
     </defs>
     <g transform="translate(667.020416 375.534522)scale(0.17 -0.17)">
      <use transform="scale(0.996264)" xlink:href="#CMSS17-79"/>
      <use transform="translate(69.024255 0)scale(0.996264)" xlink:href="#CMSS17-112"/>
      <use transform="translate(117.229198 0)scale(0.996264)" xlink:href="#CMSS17-112"/>
      <use transform="translate(168.03658 0)scale(0.996264)" xlink:href="#CMSS17-111"/>
      <use transform="translate(212.27775 0)scale(0.996264)" xlink:href="#CMSS17-114"/>
      <use transform="translate(244.187522 0)scale(0.996264)" xlink:href="#CMSS17-116"/>
      <use transform="translate(278.019089 0)scale(0.996264)" xlink:href="#CMSS17-117"/>
      <use transform="translate(326.224032 0)scale(0.996264)" xlink:href="#CMSS17-110"/>
      <use transform="translate(374.428975 0)scale(0.996264)" xlink:href="#CMSS17-105"/>
      <use transform="translate(396.609698 0)scale(0.996264)" xlink:href="#CMSS17-116"/>
      <use transform="translate(427.838811 0)scale(0.996264)" xlink:href="#CMSS17-121"/>
     </g>
    </g>
    <g id="line2d_22">
     <path d="M 619.420416 393.27881 
L 653.420416 393.27881 
" style="fill:none;stroke:#00bfbf;stroke-dasharray:3,4.95;stroke-dashoffset:0;stroke-width:3;"/>
    </g>
    <g id="line2d_23"/>
    <g id="text_18">
     <!-- Equal odds -->
     <defs>
      <path d="M 30.59375 6.765625 
C 22.59375 6.765625 19 6.765625 17.203125 6.765625 
L 17.203125 32.921875 
L 48.203125 32.921875 
L 48.203125 39 
L 17.203125 39 
L 17.203125 62.640625 
L 30.09375 62.640625 
C 31.296875 62.640625 32.5 62.640625 33.703125 62.640625 
L 50.796875 62.640625 
L 50.796875 69 
L 8.796875 69 
L 8.796875 0 
L 52.09375 0 
L 52.09375 6.765625 
z
" id="CMSS17-69"/>
      <path d="M 40.796875 44 
L 33.40625 44 
L 33.40625 37.9375 
C 33 38.4375 28.40625 44 20.59375 44 
C 11.5 44 3.296875 34.8125 3.296875 21.859375 
C 3.296875 9.890625 10.203125 -0.078125 19.203125 -0.078125 
C 23.40625 -0.078125 28.703125 1.421875 33.203125 5.703125 
L 33.203125 -19 
L 40.796875 -19 
z
M 33.40625 14.28125 
C 33.40625 13 33.40625 11.21875 30.296875 8.65625 
C 29.5 7.96875 27.296875 6 23.5 6 
C 16.40625 6 10.90625 13.28125 10.90625 21.859375 
C 10.90625 31.421875 17.59375 37.734375 24.40625 37.734375 
C 30.09375 37.734375 33.40625 32.203125 33.40625 28.078125 
z
" id="CMSS17-113"/>
     </defs>
     <g transform="translate(667.020416 399.22881)scale(0.17 -0.17)">
      <use transform="scale(0.996264)" xlink:href="#CMSS17-69"/>
      <use transform="translate(55.892013 0)scale(0.996264)" xlink:href="#CMSS17-113"/>
      <use transform="translate(104.096956 0)scale(0.996264)" xlink:href="#CMSS17-117"/>
      <use transform="translate(152.301899 0)scale(0.996264)" xlink:href="#CMSS17-97"/>
      <use transform="translate(197.22382 0)scale(0.996264)" xlink:href="#CMSS17-108"/>
      <use transform="translate(250.633656 0)scale(0.996264)" xlink:href="#CMSS17-111"/>
      <use transform="translate(300.079718 0)scale(0.996264)" xlink:href="#CMSS17-100"/>
      <use transform="translate(348.284661 0)scale(0.996264)" xlink:href="#CMSS17-100"/>
      <use transform="translate(396.489604 0)scale(0.996264)" xlink:href="#CMSS17-115"/>
     </g>
    </g>
    <g id="line2d_24">
     <path d="M 619.420416 416.973097 
L 653.420416 416.973097 
" style="fill:none;stroke:#bfbf00;stroke-linecap:square;stroke-width:3;"/>
    </g>
    <g id="line2d_25"/>
    <g id="text_19">
     <!-- Demography -->
     <defs>
      <path d="M 8.90625 69 
L 8.90625 0 
L 33.5 0 
C 49.90625 0 62.5 15.3125 62.5 33.90625 
C 62.5 53.09375 49.90625 69 33.5 69 
z
M 17.09375 5.578125 
L 17.09375 63.421875 
L 31.296875 63.421875 
C 44.703125 63.421875 54.296875 51.203125 54.296875 33.90625 
C 54.296875 17.296875 44.796875 5.578125 31.296875 5.578125 
z
" id="CMSS17-68"/>
     </defs>
     <g transform="translate(667.020416 422.923097)scale(0.17 -0.17)">
      <use transform="scale(0.996264)" xlink:href="#CMSS17-68"/>
      <use transform="translate(67.542842 0)scale(0.996264)" xlink:href="#CMSS17-101"/>
      <use transform="translate(109.181664 0)scale(0.996264)" xlink:href="#CMSS17-109"/>
      <use transform="translate(183.410918 0)scale(0.996264)" xlink:href="#CMSS17-111"/>
      <use transform="translate(230.254542 0)scale(0.996264)" xlink:href="#CMSS17-103"/>
      <use transform="translate(277.098165 0)scale(0.996264)" xlink:href="#CMSS17-114"/>
      <use transform="translate(309.007938 0)scale(0.996264)" xlink:href="#CMSS17-97"/>
      <use transform="translate(353.929858 0)scale(0.996264)" xlink:href="#CMSS17-112"/>
      <use transform="translate(402.134802 0)scale(0.996264)" xlink:href="#CMSS17-104"/>
      <use transform="translate(450.339745 0)scale(0.996264)" xlink:href="#CMSS17-121"/>
     </g>
    </g>
   </g>
  </g>
  <g id="axes_2">
   <g id="patch_8">
    <path d="M 88.457783 441.517384 
L 534.032256 441.517384 
L 534.032256 71.005754 
L 88.457783 71.005754 
z
" style="fill:#ffffff;"/>
   </g>
   <g id="patch_9">
    <path clip-path="url(#p01309c4d50)" d="M 105.595263 441.517384 
L 122.732743 441.517384 
L 122.732743 126.720508 
L 105.595263 126.720508 
z
" style="fill:#0000ff;"/>
   </g>
   <g id="patch_10">
    <path clip-path="url(#p01309c4d50)" d="M 208.420141 441.517384 
L 225.557621 441.517384 
L 225.557621 136.239078 
L 208.420141 136.239078 
z
" style="fill:#0000ff;"/>
   </g>
   <g id="patch_11">
    <path clip-path="url(#p01309c4d50)" d="M 311.24502 441.517384 
L 328.382499 441.517384 
L 328.382499 226.384392 
L 311.24502 226.384392 
z
" style="fill:#0000ff;"/>
   </g>
   <g id="patch_12">
    <path clip-path="url(#p01309c4d50)" d="M 414.069898 441.517384 
L 431.207377 441.517384 
L 431.207377 282.512124 
L 414.069898 282.512124 
z
" style="fill:#0000ff;"/>
   </g>
   <g id="patch_13">
    <path clip-path="url(#p01309c4d50)" d="M 122.732743 441.517384 
L 139.870222 441.517384 
L 139.870222 139.044501 
L 122.732743 139.044501 
z
" style="fill:#008000;"/>
   </g>
   <g id="patch_14">
    <path clip-path="url(#p01309c4d50)" d="M 225.557621 441.517384 
L 242.695101 441.517384 
L 242.695101 139.958143 
L 225.557621 139.958143 
z
" style="fill:#008000;"/>
   </g>
   <g id="patch_15">
    <path clip-path="url(#p01309c4d50)" d="M 328.382499 441.517384 
L 345.519979 441.517384 
L 345.519979 198.19259 
L 328.382499 198.19259 
z
" style="fill:#008000;"/>
   </g>
   <g id="patch_16">
    <path clip-path="url(#p01309c4d50)" d="M 431.207377 441.517384 
L 448.344857 441.517384 
L 448.344857 237.441368 
L 431.207377 237.441368 
z
" style="fill:#008000;"/>
   </g>
   <g id="patch_17">
    <path clip-path="url(#p01309c4d50)" d="M 139.870222 441.517384 
L 157.007702 441.517384 
L 157.007702 162.660039 
L 139.870222 162.660039 
z
" style="fill:#ff0000;"/>
   </g>
   <g id="patch_18">
    <path clip-path="url(#p01309c4d50)" d="M 242.695101 441.517384 
L 259.83258 441.517384 
L 259.83258 162.660039 
L 242.695101 162.660039 
z
" style="fill:#ff0000;"/>
   </g>
   <g id="patch_19">
    <path clip-path="url(#p01309c4d50)" d="M 345.519979 441.517384 
L 362.657459 441.517384 
L 362.657459 162.660039 
L 345.519979 162.660039 
z
" style="fill:#ff0000;"/>
   </g>
   <g id="patch_20">
    <path clip-path="url(#p01309c4d50)" d="M 448.344857 441.517384 
L 465.482337 441.517384 
L 465.482337 162.660039 
L 448.344857 162.660039 
z
" style="fill:#ff0000;"/>
   </g>
   <g id="patch_21">
    <path clip-path="url(#p01309c4d50)" d="M 157.007702 441.517384 
L 174.145182 441.517384 
L 174.145182 174.818603 
L 157.007702 174.818603 
z
" style="fill:#00bfbf;"/>
   </g>
   <g id="patch_22">
    <path clip-path="url(#p01309c4d50)" d="M 259.83258 441.517384 
L 276.97006 441.517384 
L 276.97006 174.818603 
L 259.83258 174.818603 
z
" style="fill:#00bfbf;"/>
   </g>
   <g id="patch_23">
    <path clip-path="url(#p01309c4d50)" d="M 362.657459 441.517384 
L 379.794938 441.517384 
L 379.794938 174.818603 
L 362.657459 174.818603 
z
" style="fill:#00bfbf;"/>
   </g>
   <g id="patch_24">
    <path clip-path="url(#p01309c4d50)" d="M 465.482337 441.517384 
L 482.619817 441.517384 
L 482.619817 174.818603 
L 465.482337 174.818603 
z
" style="fill:#00bfbf;"/>
   </g>
   <g id="patch_25">
    <path clip-path="url(#p01309c4d50)" d="M 174.145182 441.517384 
L 191.282662 441.517384 
L 191.282662 203.625654 
L 174.145182 203.625654 
z
" style="fill:#bfbf00;"/>
   </g>
   <g id="patch_26">
    <path clip-path="url(#p01309c4d50)" d="M 276.97006 441.517384 
L 294.10754 441.517384 
L 294.10754 190.551395 
L 276.97006 190.551395 
z
" style="fill:#bfbf00;"/>
   </g>
   <g id="patch_27">
    <path clip-path="url(#p01309c4d50)" d="M 379.794938 441.517384 
L 396.932418 441.517384 
L 396.932418 145.117411 
L 379.794938 145.117411 
z
" style="fill:#bfbf00;"/>
   </g>
   <g id="patch_28">
    <path clip-path="url(#p01309c4d50)" d="M 482.619817 441.517384 
L 499.757296 441.517384 
L 499.757296 106.223186 
L 482.619817 106.223186 
z
" style="fill:#bfbf00;"/>
   </g>
   <g id="matplotlib.axis_3">
    <g id="xtick_7">
     <g id="line2d_26">
      <g>
       <use style="stroke:#000000;stroke-width:0.8;" x="157.007702" xlink:href="#m623816333c" y="441.517384"/>
      </g>
     </g>
     <g id="text_20">
      <!-- Asian -->
      <defs>
       <path d="M 35.5 69 
L 26.90625 69 
L 2.59375 0 
L 10.203125 0 
L 17.203125 20 
L 44 20 
L 51.09375 0 
L 59.796875 0 
z
M 42.09375 25.578125 
L 19.09375 25.578125 
C 23.90625 39.5 29.90625 56.84375 30.59375 61.328125 
L 30.703125 61.328125 
C 31.40625 57.234375 33.40625 51.265625 35.09375 46.1875 
z
" id="CMSS17-65"/>
      </defs>
      <g transform="translate(138.865401 460.278835)scale(0.17 -0.17)">
       <use transform="scale(0.996264)" xlink:href="#CMSS17-65"/>
       <use transform="translate(62.217855 0)scale(0.996264)" xlink:href="#CMSS17-115"/>
       <use transform="translate(98.131397 0)scale(0.996264)" xlink:href="#CMSS17-105"/>
       <use transform="translate(120.31212 0)scale(0.996264)" xlink:href="#CMSS17-97"/>
       <use transform="translate(165.234041 0)scale(0.996264)" xlink:href="#CMSS17-110"/>
      </g>
     </g>
    </g>
    <g id="xtick_8">
     <g id="line2d_27">
      <g>
       <use style="stroke:#000000;stroke-width:0.8;" x="259.83258" xlink:href="#m623816333c" y="441.517384"/>
      </g>
     </g>
     <g id="text_21">
      <!-- White -->
      <defs>
       <path d="M 87.203125 69 
L 79.59375 69 
L 71.203125 38.078125 
C 69.90625 33.09375 68.703125 28.140625 67.5 23.15625 
C 65.703125 15.796875 64.40625 10.640625 64.203125 8.046875 
L 64.09375 8.046875 
C 63.90625 10.734375 62.59375 16.390625 61 22.765625 
C 59.796875 28.046875 58.5 33.296875 57.09375 38.46875 
L 48.796875 69 
L 40.40625 69 
L 32.5 40.03125 
L 28.5 24.203125 
C 25.5 11.671875 25.40625 9.875 25.203125 7.890625 
L 25.09375 7.890625 
C 25.09375 8.484375 24.703125 11.765625 21.90625 23.40625 
C 20.5 29.1875 19.09375 35.0625 17.59375 40.640625 
L 9.90625 69 
L 1.296875 69 
L 20.296875 0 
L 28.59375 0 
L 36.5 28.734375 
L 40.5 44.546875 
C 43.203125 55.6875 43.796875 58.46875 44 60.953125 
L 44.09375 60.953125 
C 44.09375 60.5625 45 54.28125 48.90625 39.765625 
L 59.5 0 
L 68.203125 0 
z
" id="CMSS17-87"/>
      </defs>
      <g transform="translate(239.934245 460.278835)scale(0.17 -0.17)">
       <use transform="scale(0.996264)" xlink:href="#CMSS17-87"/>
       <use transform="translate(88.242166 0)scale(0.996264)" xlink:href="#CMSS17-104"/>
       <use transform="translate(136.447109 0)scale(0.996264)" xlink:href="#CMSS17-105"/>
       <use transform="translate(158.627832 0)scale(0.996264)" xlink:href="#CMSS17-116"/>
       <use transform="translate(192.459399 0)scale(0.996264)" xlink:href="#CMSS17-101"/>
      </g>
     </g>
    </g>
    <g id="xtick_9">
     <g id="line2d_28">
      <g>
       <use style="stroke:#000000;stroke-width:0.8;" x="362.657459" xlink:href="#m623816333c" y="441.517384"/>
      </g>
     </g>
     <g id="text_22">
      <!-- Hispanic -->
      <defs>
       <path d="M 57.40625 69 
L 49 69 
L 49 39.078125 
L 17.203125 39.078125 
L 17.203125 69 
L 8.796875 69 
L 8.796875 0 
L 17.203125 0 
L 17.203125 33 
L 49 33 
L 49 0 
L 57.40625 0 
z
" id="CMSS17-72"/>
      </defs>
      <g transform="translate(334.666379 460.278835)scale(0.17 -0.17)">
       <use transform="scale(0.996264)" xlink:href="#CMSS17-72"/>
       <use transform="translate(66.061519 0)scale(0.996264)" xlink:href="#CMSS17-105"/>
       <use transform="translate(88.242242 0)scale(0.996264)" xlink:href="#CMSS17-115"/>
       <use transform="translate(124.155784 0)scale(0.996264)" xlink:href="#CMSS17-112"/>
       <use transform="translate(172.360727 0)scale(0.996264)" xlink:href="#CMSS17-97"/>
       <use transform="translate(217.282648 0)scale(0.996264)" xlink:href="#CMSS17-110"/>
       <use transform="translate(265.487591 0)scale(0.996264)" xlink:href="#CMSS17-105"/>
       <use transform="translate(287.668314 0)scale(0.996264)" xlink:href="#CMSS17-99"/>
      </g>
     </g>
    </g>
    <g id="xtick_10">
     <g id="line2d_29">
      <g>
       <use style="stroke:#000000;stroke-width:0.8;" x="465.482337" xlink:href="#m623816333c" y="441.517384"/>
      </g>
     </g>
     <g id="text_23">
      <!-- Black -->
      <defs>
       <path d="M 8.90625 69 
L 8.90625 0 
L 33.796875 0 
C 47.40625 0 57.296875 8.96875 57.296875 18.75 
C 57.296875 26.328125 50.796875 34 39.09375 36.203125 
C 52.09375 39.96875 54.703125 47.5 54.703125 51.765625 
C 54.703125 60.671875 44.90625 69 31.203125 69 
z
M 17 39 
L 17 63.421875 
L 28.5 63.421875 
C 38.796875 63.421875 46.90625 58.1875 46.90625 51.65625 
C 46.90625 45.71875 40.5 39 27.59375 39 
z
M 17 5.578125 
L 17 32.921875 
L 30.296875 32.921875 
C 41.09375 32.921875 49.40625 26.234375 49.40625 18.84375 
C 49.40625 12.0625 42.09375 5.578125 31 5.578125 
z
" id="CMSS17-66"/>
       <path d="M 26.5 26.375 
L 42 42.796875 
L 32.40625 42.796875 
L 14.90625 24.28125 
L 14.90625 69 
L 7.5 69 
L 7.5 0 
L 14.796875 0 
L 14.796875 13.9375 
L 21.5 21 
L 35.59375 0 
L 44.09375 0 
z
" id="CMSS17-107"/>
      </defs>
      <g transform="translate(447.064382 460.278835)scale(0.17 -0.17)">
       <use transform="scale(0.996264)" xlink:href="#CMSS17-66"/>
       <use transform="translate(62.33804 0)scale(0.996264)" xlink:href="#CMSS17-108"/>
       <use transform="translate(84.518763 0)scale(0.996264)" xlink:href="#CMSS17-97"/>
       <use transform="translate(129.440684 0)scale(0.996264)" xlink:href="#CMSS17-99"/>
       <use transform="translate(171.079506 0)scale(0.996264)" xlink:href="#CMSS17-107"/>
      </g>
     </g>
    </g>
   </g>
   <g id="matplotlib.axis_4">
    <g id="ytick_7">
     <g id="line2d_30">
      <g>
       <use style="stroke:#000000;stroke-width:0.8;" x="88.457783" xlink:href="#mf735e0ef9d" y="441.517384"/>
      </g>
     </g>
     <g id="text_24">
      <!-- $0.0$ -->
      <g transform="translate(61.316501 447.39811)scale(0.17 -0.17)">
       <use transform="scale(0.996264)" xlink:href="#CMR17-48"/>
       <use transform="translate(45.690477 0)scale(0.996264)" xlink:href="#CMMI12-58"/>
       <use transform="translate(72.787654 0)scale(0.996264)" xlink:href="#CMR17-48"/>
      </g>
     </g>
    </g>
    <g id="ytick_8">
     <g id="line2d_31">
      <g>
       <use style="stroke:#000000;stroke-width:0.8;" x="88.457783" xlink:href="#mf735e0ef9d" y="367.415058"/>
      </g>
     </g>
     <g id="text_25">
      <!-- $0.2$ -->
      <g transform="translate(61.316501 373.295784)scale(0.17 -0.17)">
       <use transform="scale(0.996264)" xlink:href="#CMR17-48"/>
       <use transform="translate(45.690477 0)scale(0.996264)" xlink:href="#CMMI12-58"/>
       <use transform="translate(72.787654 0)scale(0.996264)" xlink:href="#CMR17-50"/>
      </g>
     </g>
    </g>
    <g id="ytick_9">
     <g id="line2d_32">
      <g>
       <use style="stroke:#000000;stroke-width:0.8;" x="88.457783" xlink:href="#mf735e0ef9d" y="293.312732"/>
      </g>
     </g>
     <g id="text_26">
      <!-- $0.4$ -->
      <g transform="translate(61.316501 299.193457)scale(0.17 -0.17)">
       <use transform="scale(0.996264)" xlink:href="#CMR17-48"/>
       <use transform="translate(45.690477 0)scale(0.996264)" xlink:href="#CMMI12-58"/>
       <use transform="translate(72.787654 0)scale(0.996264)" xlink:href="#CMR17-52"/>
      </g>
     </g>
    </g>
    <g id="ytick_10">
     <g id="line2d_33">
      <g>
       <use style="stroke:#000000;stroke-width:0.8;" x="88.457783" xlink:href="#mf735e0ef9d" y="219.210406"/>
      </g>
     </g>
     <g id="text_27">
      <!-- $0.6$ -->
      <g transform="translate(61.316501 225.091131)scale(0.17 -0.17)">
       <use transform="scale(0.996264)" xlink:href="#CMR17-48"/>
       <use transform="translate(45.690477 0)scale(0.996264)" xlink:href="#CMMI12-58"/>
       <use transform="translate(72.787654 0)scale(0.996264)" xlink:href="#CMR17-54"/>
      </g>
     </g>
    </g>
    <g id="ytick_11">
     <g id="line2d_34">
      <g>
       <use style="stroke:#000000;stroke-width:0.8;" x="88.457783" xlink:href="#mf735e0ef9d" y="145.10808"/>
      </g>
     </g>
     <g id="text_28">
      <!-- $0.8$ -->
      <g transform="translate(61.316501 150.988805)scale(0.17 -0.17)">
       <use transform="scale(0.996264)" xlink:href="#CMR17-48"/>
       <use transform="translate(45.690477 0)scale(0.996264)" xlink:href="#CMMI12-58"/>
       <use transform="translate(72.787654 0)scale(0.996264)" xlink:href="#CMR17-56"/>
      </g>
     </g>
    </g>
    <g id="ytick_12">
     <g id="line2d_35">
      <g>
       <use style="stroke:#000000;stroke-width:0.8;" x="88.457783" xlink:href="#mf735e0ef9d" y="71.005754"/>
      </g>
     </g>
     <g id="text_29">
      <!-- $1.0$ -->
      <g transform="translate(61.316501 76.886479)scale(0.17 -0.17)">
       <use transform="scale(0.996264)" xlink:href="#CMR17-49"/>
       <use transform="translate(45.690477 0)scale(0.996264)" xlink:href="#CMMI12-58"/>
       <use transform="translate(72.787654 0)scale(0.996264)" xlink:href="#CMR17-48"/>
      </g>
     </g>
    </g>
    <g id="text_30">
     <!-- Fraction non-defaulters getting -->
     <g transform="translate(32.47373 379.437218)rotate(-90)scale(0.204 -0.204)">
      <use transform="scale(0.996264)" xlink:href="#CMSS17-70"/>
      <use transform="translate(50.687105 0)scale(0.996264)" xlink:href="#CMSS17-114"/>
      <use transform="translate(82.596878 0)scale(0.996264)" xlink:href="#CMSS17-97"/>
      <use transform="translate(127.518799 0)scale(0.996264)" xlink:href="#CMSS17-99"/>
      <use transform="translate(169.157621 0)scale(0.996264)" xlink:href="#CMSS17-116"/>
      <use transform="translate(202.989187 0)scale(0.996264)" xlink:href="#CMSS17-105"/>
      <use transform="translate(225.16991 0)scale(0.996264)" xlink:href="#CMSS17-111"/>
      <use transform="translate(272.013534 0)scale(0.996264)" xlink:href="#CMSS17-110"/>
      <use transform="translate(351.44759 0)scale(0.996264)" xlink:href="#CMSS17-110"/>
      <use transform="translate(399.652533 0)scale(0.996264)" xlink:href="#CMSS17-111"/>
      <use transform="translate(446.496156 0)scale(0.996264)" xlink:href="#CMSS17-110"/>
      <use transform="translate(494.7011 0)scale(0.996264)" xlink:href="#CMSS17-45"/>
      <use transform="translate(525.930212 0)scale(0.996264)" xlink:href="#CMSS17-100"/>
      <use transform="translate(574.135155 0)scale(0.996264)" xlink:href="#CMSS17-101"/>
      <use transform="translate(615.773977 0)scale(0.996264)" xlink:href="#CMSS17-102"/>
      <use transform="translate(644.400636 0)scale(0.996264)" xlink:href="#CMSS17-97"/>
      <use transform="translate(689.322557 0)scale(0.996264)" xlink:href="#CMSS17-117"/>
      <use transform="translate(737.5275 0)scale(0.996264)" xlink:href="#CMSS17-108"/>
      <use transform="translate(759.708223 0)scale(0.996264)" xlink:href="#CMSS17-116"/>
      <use transform="translate(793.53979 0)scale(0.996264)" xlink:href="#CMSS17-101"/>
      <use transform="translate(835.178612 0)scale(0.996264)" xlink:href="#CMSS17-114"/>
      <use transform="translate(867.088384 0)scale(0.996264)" xlink:href="#CMSS17-115"/>
      <use transform="translate(934.231039 0)scale(0.996264)" xlink:href="#CMSS17-103"/>
      <use transform="translate(981.074663 0)scale(0.996264)" xlink:href="#CMSS17-101"/>
      <use transform="translate(1022.713485 0)scale(0.996264)" xlink:href="#CMSS17-116"/>
      <use transform="translate(1056.545051 0)scale(0.996264)" xlink:href="#CMSS17-116"/>
      <use transform="translate(1090.376618 0)scale(0.996264)" xlink:href="#CMSS17-105"/>
      <use transform="translate(1112.557341 0)scale(0.996264)" xlink:href="#CMSS17-110"/>
      <use transform="translate(1160.762284 0)scale(0.996264)" xlink:href="#CMSS17-103"/>
     </g>
     <!-- loan -->
     <g transform="translate(53.363354 272.800971)rotate(-90)scale(0.204 -0.204)">
      <use transform="scale(0.996264)" xlink:href="#CMSS17-108"/>
      <use transform="translate(22.180723 0)scale(0.996264)" xlink:href="#CMSS17-111"/>
      <use transform="translate(69.024347 0)scale(0.996264)" xlink:href="#CMSS17-97"/>
      <use transform="translate(113.946267 0)scale(0.996264)" xlink:href="#CMSS17-110"/>
     </g>
    </g>
   </g>
   <g id="patch_29">
    <path d="M 88.457783 441.517384 
L 88.457783 71.005754 
" style="fill:none;stroke:#000000;stroke-linecap:square;stroke-linejoin:miter;stroke-width:0.8;"/>
   </g>
   <g id="patch_30">
    <path d="M 534.032256 441.517384 
L 534.032256 71.005754 
" style="fill:none;stroke:#000000;stroke-linecap:square;stroke-linejoin:miter;stroke-width:0.8;"/>
   </g>
   <g id="patch_31">
    <path d="M 88.457783 441.517384 
L 534.032256 441.517384 
" style="fill:none;stroke:#000000;stroke-linecap:square;stroke-linejoin:miter;stroke-width:0.8;"/>
   </g>
   <g id="patch_32">
    <path d="M 88.457783 71.005754 
L 534.032256 71.005754 
" style="fill:none;stroke:#000000;stroke-linecap:square;stroke-linejoin:miter;stroke-width:0.8;"/>
   </g>
   <g id="text_31">
    <!-- Fraction non-defaulters getting -->
    <g transform="translate(188.06937 33.000781)scale(0.204 -0.204)">
     <use transform="scale(0.996264)" xlink:href="#CMSS17-70"/>
     <use transform="translate(50.687105 0)scale(0.996264)" xlink:href="#CMSS17-114"/>
     <use transform="translate(82.596878 0)scale(0.996264)" xlink:href="#CMSS17-97"/>
     <use transform="translate(127.518799 0)scale(0.996264)" xlink:href="#CMSS17-99"/>
     <use transform="translate(169.157621 0)scale(0.996264)" xlink:href="#CMSS17-116"/>
     <use transform="translate(202.989187 0)scale(0.996264)" xlink:href="#CMSS17-105"/>
     <use transform="translate(225.16991 0)scale(0.996264)" xlink:href="#CMSS17-111"/>
     <use transform="translate(272.013534 0)scale(0.996264)" xlink:href="#CMSS17-110"/>
     <use transform="translate(351.44759 0)scale(0.996264)" xlink:href="#CMSS17-110"/>
     <use transform="translate(399.652533 0)scale(0.996264)" xlink:href="#CMSS17-111"/>
     <use transform="translate(446.496156 0)scale(0.996264)" xlink:href="#CMSS17-110"/>
     <use transform="translate(494.7011 0)scale(0.996264)" xlink:href="#CMSS17-45"/>
     <use transform="translate(525.930212 0)scale(0.996264)" xlink:href="#CMSS17-100"/>
     <use transform="translate(574.135155 0)scale(0.996264)" xlink:href="#CMSS17-101"/>
     <use transform="translate(615.773977 0)scale(0.996264)" xlink:href="#CMSS17-102"/>
     <use transform="translate(644.400636 0)scale(0.996264)" xlink:href="#CMSS17-97"/>
     <use transform="translate(689.322557 0)scale(0.996264)" xlink:href="#CMSS17-117"/>
     <use transform="translate(737.5275 0)scale(0.996264)" xlink:href="#CMSS17-108"/>
     <use transform="translate(759.708223 0)scale(0.996264)" xlink:href="#CMSS17-116"/>
     <use transform="translate(793.53979 0)scale(0.996264)" xlink:href="#CMSS17-101"/>
     <use transform="translate(835.178612 0)scale(0.996264)" xlink:href="#CMSS17-114"/>
     <use transform="translate(867.088384 0)scale(0.996264)" xlink:href="#CMSS17-115"/>
     <use transform="translate(934.231039 0)scale(0.996264)" xlink:href="#CMSS17-103"/>
     <use transform="translate(981.074663 0)scale(0.996264)" xlink:href="#CMSS17-101"/>
     <use transform="translate(1022.713485 0)scale(0.996264)" xlink:href="#CMSS17-116"/>
     <use transform="translate(1056.545051 0)scale(0.996264)" xlink:href="#CMSS17-116"/>
     <use transform="translate(1090.376618 0)scale(0.996264)" xlink:href="#CMSS17-105"/>
     <use transform="translate(1112.557341 0)scale(0.996264)" xlink:href="#CMSS17-110"/>
     <use transform="translate(1160.762284 0)scale(0.996264)" xlink:href="#CMSS17-103"/>
    </g>
    <!-- loan -->
    <g transform="translate(294.705617 53.890405)scale(0.204 -0.204)">
     <use transform="scale(0.996264)" xlink:href="#CMSS17-108"/>
     <use transform="translate(22.180723 0)scale(0.996264)" xlink:href="#CMSS17-111"/>
     <use transform="translate(69.024347 0)scale(0.996264)" xlink:href="#CMSS17-97"/>
     <use transform="translate(113.946267 0)scale(0.996264)" xlink:href="#CMSS17-110"/>
    </g>
   </g>
   <g id="legend_2">
    <g id="patch_33">
     <path d="M 139.861561 435.618384 
L 482.628478 435.618384 
Q 484.988078 435.618384 484.988078 433.258784 
L 484.988078 401.552421 
Q 484.988078 399.192821 482.628478 399.192821 
L 139.861561 399.192821 
Q 137.501961 399.192821 137.501961 401.552421 
L 137.501961 433.258784 
Q 137.501961 435.618384 139.861561 435.618384 
z
" style="fill:#ffffff;opacity:0.8;stroke:#cccccc;stroke-linejoin:miter;"/>
    </g>
    <g id="patch_34">
     <path d="M 142.221161 412.170621 
L 165.817161 412.170621 
L 165.817161 403.912021 
L 142.221161 403.912021 
z
" style="fill:#0000ff;"/>
    </g>
    <g id="text_32">
     <!-- Max profit -->
     <g transform="translate(175.255561 412.170621)scale(0.11798 -0.11798)">
      <use transform="scale(0.996264)" xlink:href="#CMSS17-77"/>
      <use transform="translate(81.67603 0)scale(0.996264)" xlink:href="#CMSS17-97"/>
      <use transform="translate(126.597951 0)scale(0.996264)" xlink:href="#CMSS17-120"/>
      <use transform="translate(200.827205 0)scale(0.996264)" xlink:href="#CMSS17-112"/>
      <use transform="translate(246.429694 0)scale(0.996264)" xlink:href="#CMSS17-114"/>
      <use transform="translate(278.339467 0)scale(0.996264)" xlink:href="#CMSS17-111"/>
      <use transform="translate(325.18309 0)scale(0.996264)" xlink:href="#CMSS17-12"/>
      <use transform="translate(375.309828 0)scale(0.996264)" xlink:href="#CMSS17-116"/>
     </g>
    </g>
    <g id="patch_35">
     <path d="M 142.221161 428.613702 
L 165.817161 428.613702 
L 165.817161 420.355102 
L 142.221161 420.355102 
z
" style="fill:#00bfbf;"/>
    </g>
    <g id="text_33">
     <!-- Equal odds -->
     <g transform="translate(175.255561 428.613702)scale(0.11798 -0.11798)">
      <use transform="scale(0.996264)" xlink:href="#CMSS17-69"/>
      <use transform="translate(55.892013 0)scale(0.996264)" xlink:href="#CMSS17-113"/>
      <use transform="translate(104.096956 0)scale(0.996264)" xlink:href="#CMSS17-117"/>
      <use transform="translate(152.301899 0)scale(0.996264)" xlink:href="#CMSS17-97"/>
      <use transform="translate(197.22382 0)scale(0.996264)" xlink:href="#CMSS17-108"/>
      <use transform="translate(250.633656 0)scale(0.996264)" xlink:href="#CMSS17-111"/>
      <use transform="translate(300.079718 0)scale(0.996264)" xlink:href="#CMSS17-100"/>
      <use transform="translate(348.284661 0)scale(0.996264)" xlink:href="#CMSS17-100"/>
      <use transform="translate(396.489604 0)scale(0.996264)" xlink:href="#CMSS17-115"/>
     </g>
    </g>
    <g id="patch_36">
     <path d="M 253.246214 412.170621 
L 276.842214 412.170621 
L 276.842214 403.912021 
L 253.246214 403.912021 
z
" style="fill:#008000;"/>
    </g>
    <g id="text_34">
     <!-- Single threshold -->
     <g transform="translate(286.280614 412.170621)scale(0.11798 -0.11798)">
      <use transform="scale(0.996264)" xlink:href="#CMSS17-83"/>
      <use transform="translate(52.048516 0)scale(0.996264)" xlink:href="#CMSS17-105"/>
      <use transform="translate(74.229239 0)scale(0.996264)" xlink:href="#CMSS17-110"/>
      <use transform="translate(122.434182 0)scale(0.996264)" xlink:href="#CMSS17-103"/>
      <use transform="translate(169.277806 0)scale(0.996264)" xlink:href="#CMSS17-108"/>
      <use transform="translate(191.458529 0)scale(0.996264)" xlink:href="#CMSS17-101"/>
      <use transform="translate(264.326464 0)scale(0.996264)" xlink:href="#CMSS17-116"/>
      <use transform="translate(298.15803 0)scale(0.996264)" xlink:href="#CMSS17-104"/>
      <use transform="translate(346.362974 0)scale(0.996264)" xlink:href="#CMSS17-114"/>
      <use transform="translate(378.272746 0)scale(0.996264)" xlink:href="#CMSS17-101"/>
      <use transform="translate(419.911568 0)scale(0.996264)" xlink:href="#CMSS17-115"/>
      <use transform="translate(455.82511 0)scale(0.996264)" xlink:href="#CMSS17-104"/>
      <use transform="translate(504.030053 0)scale(0.996264)" xlink:href="#CMSS17-111"/>
      <use transform="translate(550.873677 0)scale(0.996264)" xlink:href="#CMSS17-108"/>
      <use transform="translate(573.0544 0)scale(0.996264)" xlink:href="#CMSS17-100"/>
     </g>
    </g>
    <g id="patch_37">
     <path d="M 253.246214 428.613702 
L 276.842214 428.613702 
L 276.842214 420.355102 
L 253.246214 420.355102 
z
" style="fill:#bfbf00;"/>
    </g>
    <g id="text_35">
     <!-- Demography -->
     <g transform="translate(286.280614 428.613702)scale(0.11798 -0.11798)">
      <use transform="scale(0.996264)" xlink:href="#CMSS17-68"/>
      <use transform="translate(67.542842 0)scale(0.996264)" xlink:href="#CMSS17-101"/>
      <use transform="translate(109.181664 0)scale(0.996264)" xlink:href="#CMSS17-109"/>
      <use transform="translate(183.410918 0)scale(0.996264)" xlink:href="#CMSS17-111"/>
      <use transform="translate(230.254542 0)scale(0.996264)" xlink:href="#CMSS17-103"/>
      <use transform="translate(277.098165 0)scale(0.996264)" xlink:href="#CMSS17-114"/>
      <use transform="translate(309.007938 0)scale(0.996264)" xlink:href="#CMSS17-97"/>
      <use transform="translate(353.929858 0)scale(0.996264)" xlink:href="#CMSS17-112"/>
      <use transform="translate(402.134802 0)scale(0.996264)" xlink:href="#CMSS17-104"/>
      <use transform="translate(450.339745 0)scale(0.996264)" xlink:href="#CMSS17-121"/>
     </g>
    </g>
    <g id="patch_38">
     <path d="M 388.007695 412.170621 
L 411.603695 412.170621 
L 411.603695 403.912021 
L 388.007695 403.912021 
z
" style="fill:#ff0000;"/>
    </g>
    <g id="text_36">
     <!-- Opportunity -->
     <g transform="translate(421.042095 412.170621)scale(0.11798 -0.11798)">
      <use transform="scale(0.996264)" xlink:href="#CMSS17-79"/>
      <use transform="translate(69.024255 0)scale(0.996264)" xlink:href="#CMSS17-112"/>
      <use transform="translate(117.229198 0)scale(0.996264)" xlink:href="#CMSS17-112"/>
      <use transform="translate(168.03658 0)scale(0.996264)" xlink:href="#CMSS17-111"/>
      <use transform="translate(212.27775 0)scale(0.996264)" xlink:href="#CMSS17-114"/>
      <use transform="translate(244.187522 0)scale(0.996264)" xlink:href="#CMSS17-116"/>
      <use transform="translate(278.019089 0)scale(0.996264)" xlink:href="#CMSS17-117"/>
      <use transform="translate(326.224032 0)scale(0.996264)" xlink:href="#CMSS17-110"/>
      <use transform="translate(374.428975 0)scale(0.996264)" xlink:href="#CMSS17-105"/>
      <use transform="translate(396.609698 0)scale(0.996264)" xlink:href="#CMSS17-116"/>
      <use transform="translate(427.838811 0)scale(0.996264)" xlink:href="#CMSS17-121"/>
     </g>
    </g>
   </g>
  </g>
 </g>
 <defs>
  <clipPath id="pd5ef883b46">
   <rect height="370.51163" width="445.574472" x="604.120416" y="71.005754"/>
  </clipPath>
  <clipPath id="p01309c4d50">
   <rect height="370.51163" width="445.574472" x="88.457783" y="71.005754"/>
  </clipPath>
 </defs>
</svg>
