<?xml version="1.0" encoding="utf-8" standalone="no"?>
<!DOCTYPE svg PUBLIC "-//W3C//DTD SVG 1.1//EN"
  "http://www.w3.org/Graphics/SVG/1.1/DTD/svg11.dtd">
<!-- Created with matplotlib (http://matplotlib.org/) -->
<svg height="504pt" version="1.1" viewBox="0 0 1080 504" width="1080pt" xmlns="http://www.w3.org/2000/svg" xmlns:xlink="http://www.w3.org/1999/xlink">
 <defs>
  <style type="text/css">
*{stroke-linecap:butt;stroke-linejoin:round;}
  </style>
 </defs>
 <g id="figure_1">
  <g id="patch_1">
   <path d="M 0 504 
L 1080 504 
L 1080 0 
L 0 0 
z
" style="fill:#ffffff;"/>
  </g>
  <g id="axes_1">
   <g id="patch_2">
    <path d="M 88.457783 441.517384 
L 520.749359 441.517384 
L 520.749359 71.005754 
L 88.457783 71.005754 
z
" style="fill:#ffffff;"/>
   </g>
   <g id="matplotlib.axis_1">
    <g id="xtick_1">
     <g id="line2d_1">
      <defs>
       <path d="M 0 0 
L 0 3.5 
" id="ma13bb99465" style="stroke:#000000;stroke-width:0.8;"/>
      </defs>
      <g>
       <use style="stroke:#000000;stroke-width:0.8;" x="88.457783" xlink:href="#ma13bb99465" y="441.517384"/>
      </g>
     </g>
     <g id="text_1">
      <!-- $0.0$ -->
      <defs>
       <path d="M 42 31.640625 
C 42 37.75 41.90625 48.125 37.703125 56.109375 
C 34 63.109375 28.09375 65.59375 22.90625 65.59375 
C 18.09375 65.59375 12 63.40625 8.203125 56.203125 
C 4.203125 48.71875 3.796875 39.4375 3.796875 31.640625 
C 3.796875 25.953125 3.90625 17.28125 7 9.671875 
C 11.296875 -0.609375 19 -2 22.90625 -2 
C 27.5 -2 34.5 -0.109375 38.59375 9.375 
C 41.59375 16.28125 42 24.359375 42 31.640625 
z
M 22.90625 -0.40625 
C 16.5 -0.40625 12.703125 5.078125 11.296875 12.6875 
C 10.203125 18.5625 10.203125 27.15625 10.203125 32.75 
C 10.203125 40.4375 10.203125 46.828125 11.5 52.921875 
C 13.40625 61.390625 19 64 22.90625 64 
C 27 64 32.296875 61.296875 34.203125 53.125 
C 35.5 47.4375 35.59375 40.734375 35.59375 32.75 
C 35.59375 26.25 35.59375 18.265625 34.40625 12.375 
C 32.296875 1.484375 26.40625 -0.40625 22.90625 -0.40625 
z
" id="CMR17-48"/>
       <path d="M 18.40625 4.796875 
C 18.40625 7.6875 16 9.671875 13.59375 9.671875 
C 10.703125 9.671875 8.703125 7.28125 8.703125 4.890625 
C 8.703125 2 11.09375 0 13.5 0 
C 16.40625 0 18.40625 2.390625 18.40625 4.796875 
z
" id="CMMI12-58"/>
      </defs>
      <g transform="translate(78.387142 460.278835)scale(0.17 -0.17)">
       <use transform="scale(0.996264)" xlink:href="#CMR17-48"/>
       <use transform="translate(45.690477 0)scale(0.996264)" xlink:href="#CMMI12-58"/>
       <use transform="translate(72.787654 0)scale(0.996264)" xlink:href="#CMR17-48"/>
      </g>
     </g>
    </g>
    <g id="xtick_2">
     <g id="line2d_2">
      <g>
       <use style="stroke:#000000;stroke-width:0.8;" x="174.916098" xlink:href="#ma13bb99465" y="441.517384"/>
      </g>
     </g>
     <g id="text_2">
      <!-- $0.2$ -->
      <defs>
       <path d="M 41.703125 15.453125 
L 39.90625 15.453125 
C 38.90625 8.375 38.09375 7.171875 37.703125 6.5625 
C 37.203125 5.765625 30 5.765625 28.59375 5.765625 
L 9.40625 5.765625 
C 13 9.671875 20 16.75 28.5 24.953125 
C 34.59375 30.734375 41.703125 37.53125 41.703125 47.421875 
C 41.703125 59.21875 32.296875 66 21.796875 66 
C 10.796875 66 4.09375 56.3125 4.09375 47.34375 
C 4.09375 43.4375 7 42.9375 8.203125 42.9375 
C 9.203125 42.9375 12.203125 43.546875 12.203125 47.03125 
C 12.203125 50.109375 9.59375 51 8.203125 51 
C 7.59375 51 7 50.90625 6.59375 50.703125 
C 8.5 59.21875 14.296875 63.40625 20.40625 63.40625 
C 29.09375 63.40625 34.796875 56.515625 34.796875 47.421875 
C 34.796875 38.734375 29.703125 31.25 24 24.75 
L 4.09375 2.28125 
L 4.09375 0 
L 39.296875 0 
z
" id="CMR17-50"/>
      </defs>
      <g transform="translate(164.845457 460.278835)scale(0.17 -0.17)">
       <use transform="scale(0.996264)" xlink:href="#CMR17-48"/>
       <use transform="translate(45.690477 0)scale(0.996264)" xlink:href="#CMMI12-58"/>
       <use transform="translate(72.787654 0)scale(0.996264)" xlink:href="#CMR17-50"/>
      </g>
     </g>
    </g>
    <g id="xtick_3">
     <g id="line2d_3">
      <g>
       <use style="stroke:#000000;stroke-width:0.8;" x="261.374414" xlink:href="#ma13bb99465" y="441.517384"/>
      </g>
     </g>
     <g id="text_3">
      <!-- $0.4$ -->
      <defs>
       <path d="M 33.59375 64.40625 
C 33.59375 66.5 33.5 66.5 31.703125 66.5 
L 2 19.59375 
L 2 17 
L 27.796875 17 
L 27.796875 7.140625 
C 27.796875 3.5 27.59375 2.5 20.59375 2.5 
L 18.703125 2.5 
L 18.703125 0 
C 21.90625 0 27.296875 0 30.703125 0 
C 34.09375 0 39.5 0 42.703125 0 
L 42.703125 2.5 
L 40.796875 2.5 
C 33.796875 2.5 33.59375 3.5 33.59375 7.140625 
L 33.59375 17 
L 43.796875 17 
L 43.796875 19.59375 
L 33.59375 19.59375 
z
M 28.09375 57.859375 
L 28.09375 19.59375 
L 4 19.59375 
z
" id="CMR17-52"/>
      </defs>
      <g transform="translate(251.303772 460.278835)scale(0.17 -0.17)">
       <use transform="scale(0.996264)" xlink:href="#CMR17-48"/>
       <use transform="translate(45.690477 0)scale(0.996264)" xlink:href="#CMMI12-58"/>
       <use transform="translate(72.787654 0)scale(0.996264)" xlink:href="#CMR17-52"/>
      </g>
     </g>
    </g>
    <g id="xtick_4">
     <g id="line2d_4">
      <g>
       <use style="stroke:#000000;stroke-width:0.8;" x="347.832729" xlink:href="#ma13bb99465" y="441.517384"/>
      </g>
     </g>
     <g id="text_4">
      <!-- $0.6$ -->
      <defs>
       <path d="M 10.59375 34 
C 10.59375 57.65625 21.796875 63 28.296875 63 
C 30.40625 63 35.5 62.640625 37.5 59 
C 35.90625 59 32.90625 59 32.90625 55.515625 
C 32.90625 52.828125 35.09375 51.921875 36.5 51.921875 
C 37.40625 51.921875 40.09375 52.3125 40.09375 55.625 
C 40.09375 61.78125 35.09375 65.296875 28.203125 65.296875 
C 16.296875 65.296875 3.796875 52.96875 3.796875 31 
C 3.796875 3.953125 15.09375 -2 23.09375 -2 
C 32.796875 -2 42 6.671875 42 20.046875 
C 42 32.515625 33.90625 41.59375 23.703125 41.59375 
C 17.59375 41.59375 13.09375 37.609375 10.59375 30.625 
z
M 23.09375 0.390625 
C 10.796875 0.390625 10.796875 18.75 10.796875 22.4375 
C 10.796875 29.625 14.203125 40 23.5 40 
C 25.203125 40 30.09375 40 33.40625 33.125 
C 35.203125 29.21875 35.203125 25.140625 35.203125 20.140625 
C 35.203125 14.75 35.203125 10.78125 33.09375 6.78125 
C 30.90625 2.671875 27.703125 0.390625 23.09375 0.390625 
z
" id="CMR17-54"/>
      </defs>
      <g transform="translate(337.762087 460.278835)scale(0.17 -0.17)">
       <use transform="scale(0.996264)" xlink:href="#CMR17-48"/>
       <use transform="translate(45.690477 0)scale(0.996264)" xlink:href="#CMMI12-58"/>
       <use transform="translate(72.787654 0)scale(0.996264)" xlink:href="#CMR17-54"/>
      </g>
     </g>
    </g>
    <g id="xtick_5">
     <g id="line2d_5">
      <g>
       <use style="stroke:#000000;stroke-width:0.8;" x="434.291044" xlink:href="#ma13bb99465" y="441.517384"/>
      </g>
     </g>
     <g id="text_5">
      <!-- $0.8$ -->
      <defs>
       <path d="M 27.203125 35.375 
C 33.5 38.546875 39.90625 43.328125 39.90625 50.984375 
C 39.90625 60.015625 31.09375 65.296875 23 65.296875 
C 13.90625 65.296875 5.90625 58.734375 5.90625 49.6875 
C 5.90625 47.203125 6.5 42.921875 10.40625 39.140625 
C 11.40625 38.15625 15.59375 35.171875 18.296875 33.28125 
C 13.796875 30.984375 3.296875 25.53125 3.296875 14.59375 
C 3.296875 4.359375 13.09375 -2 22.796875 -2 
C 33.5 -2 42.5 5.65625 42.5 15.78125 
C 42.5 24.84375 36.40625 29.015625 32.40625 31.703125 
z
M 14.09375 44.09375 
C 13.296875 44.59375 9.296875 47.671875 9.296875 52.359375 
C 9.296875 58.421875 15.59375 63 22.796875 63 
C 30.703125 63 36.5 57.4375 36.5 50.96875 
C 36.5 41.703125 26.09375 36.421875 25.59375 36.421875 
C 25.5 36.421875 25.40625 36.421875 24.59375 37.03125 
z
M 32.5 23.734375 
C 34 22.640625 38.796875 19.375 38.796875 13.296875 
C 38.796875 5.953125 31.40625 0.390625 23 0.390625 
C 13.90625 0.390625 7 6.84375 7 14.6875 
C 7 22.546875 13.09375 29.09375 20 32.1875 
z
" id="CMR17-56"/>
      </defs>
      <g transform="translate(424.220403 460.278835)scale(0.17 -0.17)">
       <use transform="scale(0.996264)" xlink:href="#CMR17-48"/>
       <use transform="translate(45.690477 0)scale(0.996264)" xlink:href="#CMMI12-58"/>
       <use transform="translate(72.787654 0)scale(0.996264)" xlink:href="#CMR17-56"/>
      </g>
     </g>
    </g>
    <g id="xtick_6">
     <g id="line2d_6">
      <g>
       <use style="stroke:#000000;stroke-width:0.8;" x="520.749359" xlink:href="#ma13bb99465" y="441.517384"/>
      </g>
     </g>
     <g id="text_6">
      <!-- $1.0$ -->
      <defs>
       <path d="M 26.59375 63.40625 
C 26.59375 65.5 26.5 65.5 25.09375 65.5 
C 21.203125 61.1875 15.296875 59.796875 9.703125 59.796875 
C 9.40625 59.796875 8.90625 59.796875 8.796875 59.5 
C 8.703125 59.296875 8.703125 59.09375 8.703125 57 
C 11.796875 57 17 57.59375 21 59.984375 
L 21 7.203125 
C 21 3.6875 20.796875 2.5 12.203125 2.5 
L 9.203125 2.5 
L 9.203125 0 
C 14 0 19 0 23.796875 0 
C 28.59375 0 33.59375 0 38.40625 0 
L 38.40625 2.5 
L 35.40625 2.5 
C 26.796875 2.5 26.59375 3.59375 26.59375 7.15625 
z
" id="CMR17-49"/>
      </defs>
      <g transform="translate(510.678718 460.278835)scale(0.17 -0.17)">
       <use transform="scale(0.996264)" xlink:href="#CMR17-49"/>
       <use transform="translate(45.690477 0)scale(0.996264)" xlink:href="#CMMI12-58"/>
       <use transform="translate(72.787654 0)scale(0.996264)" xlink:href="#CMR17-48"/>
      </g>
     </g>
    </g>
    <g id="text_7">
     <!-- Fraction defaulters getting loan -->
     <defs>
      <path d="M 45.59375 31 
L 45.59375 37.078125 
L 17.203125 37.078125 
L 17.203125 62 
L 29.40625 62 
C 30.59375 62 31.796875 62 33 62 
L 49.5 62 
L 49.5 68.359375 
L 8.796875 68.359375 
L 8.796875 -0.5 
L 17.203125 -0.5 
L 17.203125 31 
z
" id="CMSS17-70"/>
      <path d="M 14.90625 21.296875 
C 14.90625 30.703125 21.796875 37 30.59375 37 
L 30.59375 43.578125 
C 24.203125 43.578125 18.203125 40.390625 14.59375 35.203125 
L 14.59375 43.09375 
L 7.5 43.09375 
L 7.5 0 
L 14.90625 0 
z
" id="CMSS17-114"/>
      <path d="M 37.59375 27.984375 
C 37.59375 37.375 30.90625 43.875 21.90625 43.875 
C 17.5 43.875 12.703125 43.078125 7.203125 39.890625 
L 7.796875 33.359375 
C 10.296875 35.125 14.59375 38 21.796875 38 
C 26.90625 38 30 34.0625 30 27.84375 
L 30 24 
C 14 24 4 19.34375 4 11.34375 
C 4 7.203125 6.5 -1 14.796875 -1 
C 16.296875 -1 24.40625 -1 30.203125 3.390625 
L 30.203125 -0.296875 
L 37.59375 -0.296875 
z
M 30 12.75 
C 30 10.953125 30 8.5625 27 6.78125 
C 24.40625 5.078125 21.09375 5.078125 19.703125 5.078125 
C 14.703125 5.078125 11.296875 7.984375 11.296875 11.625 
C 11.296875 18.921875 26.90625 18.921875 30 18.921875 
z
" id="CMSS17-97"/>
      <path d="M 38.5 39.703125 
C 38.5 40.390625 33.90625 42.40625 32.703125 42.796875 
C 29.40625 44 25.203125 44 24.09375 44 
C 11.09375 44 3.296875 32.703125 3.296875 21.296875 
C 3.296875 9.296875 12 -1 23.703125 -1 
C 30.40625 -1 35.203125 1.1875 39.09375 3.78125 
L 38.5 10.375 
C 34.203125 7.078125 29.203125 5.265625 23.796875 5.265625 
C 16 5.265625 10.90625 12.09375 10.90625 21.390625 
C 10.90625 28.609375 14.203125 37.71875 24.203125 37.71875 
C 29.703125 37.71875 32.796875 36.609375 37.40625 33.515625 
z
" id="CMSS17-99"/>
      <path d="M 16.703125 37 
L 29.703125 37 
L 29.703125 42.765625 
L 16.703125 42.765625 
L 16.703125 55 
L 9.59375 55 
L 9.59375 42.765625 
L 1.703125 42.765625 
L 1.703125 37 
L 9.40625 37 
L 9.40625 11.703125 
C 9.40625 6 10.703125 -1 17.296875 -1 
C 22.296875 -1 26.90625 0.390625 31.296875 2.6875 
L 29.703125 8.5625 
C 27.296875 6.46875 24.40625 5.265625 21.296875 5.265625 
C 16.90625 5.265625 16.703125 10.875 16.703125 13.375 
z
" id="CMSS17-116"/>
      <path d="M 15.296875 65.359375 
L 6.90625 65.359375 
L 6.90625 57 
L 15.296875 57 
z
M 14.796875 42.796875 
L 7.40625 42.796875 
L 7.40625 0 
L 14.796875 0 
z
" id="CMSS17-105"/>
      <path d="M 44.203125 21.1875 
C 44.203125 34 34.703125 44 23.5 44 
C 12 44 2.703125 33.703125 2.703125 21.1875 
C 2.703125 8.5 12.296875 -1 23.40625 -1 
C 34.796875 -1 44.203125 8.796875 44.203125 21.1875 
z
M 23.5 5.265625 
C 16.40625 5.265625 10.296875 11.078125 10.296875 22 
C 10.296875 33.609375 17.40625 37.921875 23.40625 37.921875 
C 29.90625 37.921875 36.59375 33.21875 36.59375 22 
C 36.59375 10.671875 30.09375 5.265625 23.5 5.265625 
z
" id="CMSS17-111"/>
      <path d="M 40.90625 29.328125 
C 40.90625 35.671875 39.40625 44 28.09375 44 
C 21.703125 44 17.5 40.71875 14.703125 37.328125 
L 14.703125 43.09375 
L 7.40625 43.09375 
L 7.40625 0 
L 15 0 
L 15 24.359375 
C 15 30.6875 17.40625 37.9375 24.203125 37.9375 
C 33 37.9375 33.296875 32 33.296875 28.578125 
L 33.296875 0 
L 40.90625 0 
z
" id="CMSS17-110"/>
      <path d="M 40.796875 69 
L 33.40625 69 
L 33.40625 38.09375 
C 30.296875 40.671875 25.203125 43.0625 19.59375 43.0625 
C 10.5 43.0625 3.296875 33.296875 3.296875 21.046875 
C 3.296875 8.78125 10.40625 -1 19.296875 -1 
C 26.203125 -1 30.796875 2.6875 33.203125 4.78125 
L 33.203125 -0.203125 
L 40.796875 -0.203125 
z
M 33.203125 13.0625 
C 33.203125 11.671875 33.203125 10.203125 30.09375 7.53125 
C 28.09375 5.859375 25.703125 5.078125 23.40625 5.078125 
C 18 5.078125 10.90625 9 10.90625 20.9375 
C 10.90625 33.34375 18.90625 37 24.40625 37 
C 28.09375 37 31.09375 35.21875 33.203125 32.265625 
z
" id="CMSS17-100"/>
      <path d="M 39.09375 21.515625 
C 39.09375 24.84375 38.90625 31.296875 35.703125 36.640625 
C 32.203125 42.390625 26.5 44 22.203125 44 
C 11.796875 44 3 34.1875 3 21.484375 
C 3 9.09375 12.09375 -1 23.59375 -1 
C 28.09375 -1 33.59375 0.296875 38.59375 3.875 
C 38.59375 4.28125 38.40625 6.46875 38.296875 6.5625 
C 38.296875 6.765625 38 9.84375 38 10.25 
C 33.203125 6.359375 27.703125 5.078125 23.703125 5.078125 
C 17.296875 5.078125 10.40625 10.421875 10.09375 21.515625 
z
M 10.90625 27 
C 12.203125 32.5625 16.59375 37.828125 22.203125 37.828125 
C 23.703125 37.828125 30.703125 37.828125 32.5 27 
z
" id="CMSS17-101"/>
      <path d="M 16.796875 37 
L 26.90625 37 
L 26.90625 42.765625 
L 16.59375 42.765625 
L 16.59375 55.609375 
C 16.59375 62.71875 22 63.9375 25.09375 63.9375 
C 26.09375 63.9375 28.90625 63.9375 32.5 62.640625 
L 32.5 69.203125 
C 30.203125 69.703125 27.40625 70 25.203125 70 
C 15.90625 70 9.40625 62.390625 9.40625 52.484375 
L 9.40625 42.765625 
L 2.5 42.765625 
L 2.5 37 
L 9.40625 37 
L 9.40625 0 
L 16.796875 0 
z
" id="CMSS17-102"/>
      <path d="M 40.90625 42.796875 
L 33.296875 42.796875 
L 33.296875 15.1875 
C 33.296875 7.78125 27.90625 4.78125 22.203125 4.78125 
C 15.59375 4.78125 15 6.984375 15 11.078125 
L 15 42.796875 
L 7.40625 42.796875 
L 7.40625 10.59375 
C 7.40625 2.796875 10.09375 -1 17 -1 
C 20.40625 -1 28.09375 -0.203125 33.5 4.78125 
L 33.5 0 
L 40.90625 0 
z
" id="CMSS17-117"/>
      <path d="M 14.796875 69 
L 7.40625 69 
L 7.40625 0 
L 14.796875 0 
z
" id="CMSS17-108"/>
      <path d="M 32.203125 41.046875 
C 26.296875 43.859375 21.703125 43.859375 18.703125 43.859375 
C 11.59375 43.859375 3.09375 41.375 3.09375 31.296875 
C 3.09375 21.234375 14.09375 19.03125 17.09375 18.421875 
C 21.703125 17.53125 26.796875 16.53125 26.796875 11.5625 
C 26.796875 5.265625 19.59375 5.265625 18.296875 5.265625 
C 14.296875 5.265625 8.796875 6.359375 3.796875 9.96875 
L 2.59375 3.28125 
C 8.296875 0 13.796875 -1 18.40625 -1 
C 30.703125 -1 33.796875 6.5 33.796875 12.203125 
C 33.796875 17.09375 31 20.390625 29.09375 21.890625 
C 25.796875 24.5 24.59375 24.796875 16.40625 26.5 
C 15 26.703125 10.09375 27.796875 10.09375 32.28125 
C 10.09375 38 16.40625 38 17.796875 38 
C 24.296875 38 28.296875 35.984375 31 34.5 
z
" id="CMSS17-115"/>
      <path d="M 44.5 43.875 
C 38.796875 43.875 33.90625 42.78125 29.90625 40.890625 
C 26.59375 43.390625 23.203125 43.875 20.90625 43.875 
C 12.203125 43.875 5.59375 36.703125 5.59375 28.34375 
C 5.59375 22.9375 8.59375 18.859375 8.796875 18.671875 
C 7 16.171875 6 13.484375 6 10.5 
C 6 7 7.40625 4.515625 8.5 3.125 
C 3.296875 -0.046875 2.59375 -4.90625 2.59375 -6.796875 
C 2.59375 -14.03125 11.703125 -20 23.40625 -20 
C 35.203125 -20 44.296875 -14.03125 44.296875 -6.6875 
C 44.296875 7 29 7 24.796875 7 
L 16.703125 7 
C 15.203125 7 11.203125 7 11.203125 12.359375 
C 11.203125 14.390625 12.09375 15.6875 12.203125 15.78125 
C 13.703125 14.6875 16.796875 13 20.90625 13 
C 29.203125 13 36.09375 19.96875 36.09375 28.546875 
C 36.09375 33.3125 33.90625 36.796875 33 38 
L 33.296875 38 
C 33.59375 38 37.796875 38 39.296875 38 
C 42.5 38 42.796875 37.953125 45.59375 37.796875 
z
M 20.90625 18.46875 
C 17.5 18.46875 12.703125 20.546875 12.703125 28.484375 
C 12.703125 37.109375 18.203125 38.5 20.796875 38.5 
C 24.203125 38.5 29 36.421875 29 28.484375 
C 29 19.859375 23.5 18.46875 20.90625 18.46875 
z
M 24.703125 -0.15625 
C 27.09375 -0.15625 37.203125 -0.15625 37.203125 -6.90625 
C 37.203125 -11.15625 31 -14.515625 23.5 -14.515625 
C 15.90625 -14.515625 9.703125 -11.25 9.703125 -6.796875 
C 9.703125 -6.296875 9.703125 -0.15625 16.59375 -0.15625 
z
" id="CMSS17-103"/>
     </defs>
     <g transform="translate(179.500366 481.686853)scale(0.204 -0.204)">
      <use transform="scale(0.996264)" xlink:href="#CMSS17-70"/>
      <use transform="translate(50.687105 0)scale(0.996264)" xlink:href="#CMSS17-114"/>
      <use transform="translate(82.596878 0)scale(0.996264)" xlink:href="#CMSS17-97"/>
      <use transform="translate(127.518799 0)scale(0.996264)" xlink:href="#CMSS17-99"/>
      <use transform="translate(169.157621 0)scale(0.996264)" xlink:href="#CMSS17-116"/>
      <use transform="translate(202.989187 0)scale(0.996264)" xlink:href="#CMSS17-105"/>
      <use transform="translate(225.16991 0)scale(0.996264)" xlink:href="#CMSS17-111"/>
      <use transform="translate(272.013534 0)scale(0.996264)" xlink:href="#CMSS17-110"/>
      <use transform="translate(351.44759 0)scale(0.996264)" xlink:href="#CMSS17-100"/>
      <use transform="translate(399.652533 0)scale(0.996264)" xlink:href="#CMSS17-101"/>
      <use transform="translate(441.291355 0)scale(0.996264)" xlink:href="#CMSS17-102"/>
      <use transform="translate(469.918014 0)scale(0.996264)" xlink:href="#CMSS17-97"/>
      <use transform="translate(514.839934 0)scale(0.996264)" xlink:href="#CMSS17-117"/>
      <use transform="translate(563.044877 0)scale(0.996264)" xlink:href="#CMSS17-108"/>
      <use transform="translate(585.225601 0)scale(0.996264)" xlink:href="#CMSS17-116"/>
      <use transform="translate(619.057167 0)scale(0.996264)" xlink:href="#CMSS17-101"/>
      <use transform="translate(660.695989 0)scale(0.996264)" xlink:href="#CMSS17-114"/>
      <use transform="translate(692.605762 0)scale(0.996264)" xlink:href="#CMSS17-115"/>
      <use transform="translate(759.748417 0)scale(0.996264)" xlink:href="#CMSS17-103"/>
      <use transform="translate(806.59204 0)scale(0.996264)" xlink:href="#CMSS17-101"/>
      <use transform="translate(848.230862 0)scale(0.996264)" xlink:href="#CMSS17-116"/>
      <use transform="translate(882.062429 0)scale(0.996264)" xlink:href="#CMSS17-116"/>
      <use transform="translate(915.893996 0)scale(0.996264)" xlink:href="#CMSS17-105"/>
      <use transform="translate(938.074719 0)scale(0.996264)" xlink:href="#CMSS17-110"/>
      <use transform="translate(986.279662 0)scale(0.996264)" xlink:href="#CMSS17-103"/>
      <use transform="translate(1064.352398 0)scale(0.996264)" xlink:href="#CMSS17-108"/>
      <use transform="translate(1086.533121 0)scale(0.996264)" xlink:href="#CMSS17-111"/>
      <use transform="translate(1133.376745 0)scale(0.996264)" xlink:href="#CMSS17-97"/>
      <use transform="translate(1178.298665 0)scale(0.996264)" xlink:href="#CMSS17-110"/>
     </g>
    </g>
   </g>
   <g id="matplotlib.axis_2">
    <g id="ytick_1">
     <g id="line2d_7">
      <defs>
       <path d="M 0 0 
L -3.5 0 
" id="ma7fdccc15b" style="stroke:#000000;stroke-width:0.8;"/>
      </defs>
      <g>
       <use style="stroke:#000000;stroke-width:0.8;" x="88.457783" xlink:href="#ma7fdccc15b" y="441.517384"/>
      </g>
     </g>
     <g id="text_8">
      <!-- $0.0$ -->
      <g transform="translate(61.316501 447.39811)scale(0.17 -0.17)">
       <use transform="scale(0.996264)" xlink:href="#CMR17-48"/>
       <use transform="translate(45.690477 0)scale(0.996264)" xlink:href="#CMMI12-58"/>
       <use transform="translate(72.787654 0)scale(0.996264)" xlink:href="#CMR17-48"/>
      </g>
     </g>
    </g>
    <g id="ytick_2">
     <g id="line2d_8">
      <g>
       <use style="stroke:#000000;stroke-width:0.8;" x="88.457783" xlink:href="#ma7fdccc15b" y="367.415058"/>
      </g>
     </g>
     <g id="text_9">
      <!-- $0.2$ -->
      <g transform="translate(61.316501 373.295784)scale(0.17 -0.17)">
       <use transform="scale(0.996264)" xlink:href="#CMR17-48"/>
       <use transform="translate(45.690477 0)scale(0.996264)" xlink:href="#CMMI12-58"/>
       <use transform="translate(72.787654 0)scale(0.996264)" xlink:href="#CMR17-50"/>
      </g>
     </g>
    </g>
    <g id="ytick_3">
     <g id="line2d_9">
      <g>
       <use style="stroke:#000000;stroke-width:0.8;" x="88.457783" xlink:href="#ma7fdccc15b" y="293.312732"/>
      </g>
     </g>
     <g id="text_10">
      <!-- $0.4$ -->
      <g transform="translate(61.316501 299.193457)scale(0.17 -0.17)">
       <use transform="scale(0.996264)" xlink:href="#CMR17-48"/>
       <use transform="translate(45.690477 0)scale(0.996264)" xlink:href="#CMMI12-58"/>
       <use transform="translate(72.787654 0)scale(0.996264)" xlink:href="#CMR17-52"/>
      </g>
     </g>
    </g>
    <g id="ytick_4">
     <g id="line2d_10">
      <g>
       <use style="stroke:#000000;stroke-width:0.8;" x="88.457783" xlink:href="#ma7fdccc15b" y="219.210406"/>
      </g>
     </g>
     <g id="text_11">
      <!-- $0.6$ -->
      <g transform="translate(61.316501 225.091131)scale(0.17 -0.17)">
       <use transform="scale(0.996264)" xlink:href="#CMR17-48"/>
       <use transform="translate(45.690477 0)scale(0.996264)" xlink:href="#CMMI12-58"/>
       <use transform="translate(72.787654 0)scale(0.996264)" xlink:href="#CMR17-54"/>
      </g>
     </g>
    </g>
    <g id="ytick_5">
     <g id="line2d_11">
      <g>
       <use style="stroke:#000000;stroke-width:0.8;" x="88.457783" xlink:href="#ma7fdccc15b" y="145.10808"/>
      </g>
     </g>
     <g id="text_12">
      <!-- $0.8$ -->
      <g transform="translate(61.316501 150.988805)scale(0.17 -0.17)">
       <use transform="scale(0.996264)" xlink:href="#CMR17-48"/>
       <use transform="translate(45.690477 0)scale(0.996264)" xlink:href="#CMMI12-58"/>
       <use transform="translate(72.787654 0)scale(0.996264)" xlink:href="#CMR17-56"/>
      </g>
     </g>
    </g>
    <g id="ytick_6">
     <g id="line2d_12">
      <g>
       <use style="stroke:#000000;stroke-width:0.8;" x="88.457783" xlink:href="#ma7fdccc15b" y="71.005754"/>
      </g>
     </g>
     <g id="text_13">
      <!-- $1.0$ -->
      <g transform="translate(61.316501 76.886479)scale(0.17 -0.17)">
       <use transform="scale(0.996264)" xlink:href="#CMR17-49"/>
       <use transform="translate(45.690477 0)scale(0.996264)" xlink:href="#CMMI12-58"/>
       <use transform="translate(72.787654 0)scale(0.996264)" xlink:href="#CMR17-48"/>
      </g>
     </g>
    </g>
    <g id="text_14">
     <!-- Fraction non-defaulters getting -->
     <defs>
      <path d="M 26 19 
L 26 24.765625 
L 1 24.765625 
L 1 19 
z
" id="CMSS17-45"/>
     </defs>
     <g transform="translate(32.47373 379.437218)rotate(-90)scale(0.204 -0.204)">
      <use transform="scale(0.996264)" xlink:href="#CMSS17-70"/>
      <use transform="translate(50.687105 0)scale(0.996264)" xlink:href="#CMSS17-114"/>
      <use transform="translate(82.596878 0)scale(0.996264)" xlink:href="#CMSS17-97"/>
      <use transform="translate(127.518799 0)scale(0.996264)" xlink:href="#CMSS17-99"/>
      <use transform="translate(169.157621 0)scale(0.996264)" xlink:href="#CMSS17-116"/>
      <use transform="translate(202.989187 0)scale(0.996264)" xlink:href="#CMSS17-105"/>
      <use transform="translate(225.16991 0)scale(0.996264)" xlink:href="#CMSS17-111"/>
      <use transform="translate(272.013534 0)scale(0.996264)" xlink:href="#CMSS17-110"/>
      <use transform="translate(351.44759 0)scale(0.996264)" xlink:href="#CMSS17-110"/>
      <use transform="translate(399.652533 0)scale(0.996264)" xlink:href="#CMSS17-111"/>
      <use transform="translate(446.496156 0)scale(0.996264)" xlink:href="#CMSS17-110"/>
      <use transform="translate(494.7011 0)scale(0.996264)" xlink:href="#CMSS17-45"/>
      <use transform="translate(525.930212 0)scale(0.996264)" xlink:href="#CMSS17-100"/>
      <use transform="translate(574.135155 0)scale(0.996264)" xlink:href="#CMSS17-101"/>
      <use transform="translate(615.773977 0)scale(0.996264)" xlink:href="#CMSS17-102"/>
      <use transform="translate(644.400636 0)scale(0.996264)" xlink:href="#CMSS17-97"/>
      <use transform="translate(689.322557 0)scale(0.996264)" xlink:href="#CMSS17-117"/>
      <use transform="translate(737.5275 0)scale(0.996264)" xlink:href="#CMSS17-108"/>
      <use transform="translate(759.708223 0)scale(0.996264)" xlink:href="#CMSS17-116"/>
      <use transform="translate(793.53979 0)scale(0.996264)" xlink:href="#CMSS17-101"/>
      <use transform="translate(835.178612 0)scale(0.996264)" xlink:href="#CMSS17-114"/>
      <use transform="translate(867.088384 0)scale(0.996264)" xlink:href="#CMSS17-115"/>
      <use transform="translate(934.231039 0)scale(0.996264)" xlink:href="#CMSS17-103"/>
      <use transform="translate(981.074663 0)scale(0.996264)" xlink:href="#CMSS17-101"/>
      <use transform="translate(1022.713485 0)scale(0.996264)" xlink:href="#CMSS17-116"/>
      <use transform="translate(1056.545051 0)scale(0.996264)" xlink:href="#CMSS17-116"/>
      <use transform="translate(1090.376618 0)scale(0.996264)" xlink:href="#CMSS17-105"/>
      <use transform="translate(1112.557341 0)scale(0.996264)" xlink:href="#CMSS17-110"/>
      <use transform="translate(1160.762284 0)scale(0.996264)" xlink:href="#CMSS17-103"/>
     </g>
     <!-- loan -->
     <g transform="translate(53.363354 272.800971)rotate(-90)scale(0.204 -0.204)">
      <use transform="scale(0.996264)" xlink:href="#CMSS17-108"/>
      <use transform="translate(22.180723 0)scale(0.996264)" xlink:href="#CMSS17-111"/>
      <use transform="translate(69.024347 0)scale(0.996264)" xlink:href="#CMSS17-97"/>
      <use transform="translate(113.946267 0)scale(0.996264)" xlink:href="#CMSS17-110"/>
     </g>
    </g>
   </g>
   <g id="LineCollection_1">
    <path clip-path="url(#p0bd53202f6)" d="M 88.457783 293.312732 
L 196.530677 293.312732 
" style="fill:none;stroke:#000000;"/>
   </g>
   <g id="LineCollection_2">
    <path clip-path="url(#p0bd53202f6)" d="M 196.530677 293.312732 
L 196.530677 71.005754 
" style="fill:none;stroke:#000000;"/>
   </g>
   <g id="LineCollection_3">
    <path clip-path="url(#p0bd53202f6)" d="M 88.457783 71.005754 
L 196.530677 71.005754 
" style="fill:none;stroke:#000000;"/>
   </g>
   <g id="LineCollection_4">
    <path clip-path="url(#p0bd53202f6)" d="M 88.457783 293.312732 
L 88.457783 71.005754 
" style="fill:none;stroke:#000000;"/>
   </g>
   <g id="line2d_13">
    <path clip-path="url(#p0bd53202f6)" d="M 520.749359 71.005754 
L 474.648134 71.649443 
L 429.570869 72.503225 
L 400.687691 73.189671 
L 379.732108 73.987287 
L 361.485761 74.927488 
L 342.566101 76.188747 
L 327.301725 77.465252 
L 313.821685 78.878257 
L 302.221996 80.35562 
L 286.385715 82.708724 
L 275.719945 84.561388 
L 269.852353 85.699456 
L 257.877108 88.293703 
L 251.092202 89.978292 
L 242.218802 92.382391 
L 234.944265 94.563489 
L 226.12346 97.483508 
L 219.706993 99.840662 
L 216.245416 101.196863 
L 207.342272 104.926561 
L 200.6889 108.061681 
L 194.683596 111.192008 
L 188.741743 114.656798 
L 182.654972 118.642904 
L 177.730051 122.316344 
L 172.561779 126.720508 
L 168.26091 130.981197 
L 164.71509 135.121279 
L 159.081045 143.103538 
L 154.57127 149.892927 
L 149.659486 157.701932 
L 145.035613 165.478167 
L 140.479823 173.589817 
L 136.573533 180.962234 
L 133.129525 187.924373 
L 130.563037 193.551172 
L 127.865708 199.931779 
L 125.081407 207.075194 
L 122.865049 213.23304 
L 120.864758 219.297455 
L 119.196737 224.924915 
L 117.626701 230.802084 
L 116.346949 236.233683 
L 115.072299 242.401062 
L 112.353305 256.767436 
L 109.176484 272.279736 
L 106.428261 284.711441 
L 102.794953 299.900476 
L 101.604725 304.983078 
L 99.446491 315.239797 
L 97.591095 325.466809 
L 95.880237 336.550051 
L 94.605274 346.482868 
L 92.981747 362.267946 
L 91.765042 376.575188 
L 90.858987 389.981832 
L 89.940421 407.65654 
L 88.653193 436.689876 
L 88.457783 441.517384 
L 88.457783 441.517384 
" style="fill:none;stroke:#0000ff;stroke-linecap:square;stroke-width:3;"/>
   </g>
   <g id="line2d_14">
    <path clip-path="url(#p0bd53202f6)" d="M 520.572843 71.006467 
L 484.46991 71.321747 
L 459.978914 71.726081 
L 426.7243 72.524879 
L 398.266847 73.459449 
L 378.485955 74.317677 
L 351.820821 75.740887 
L 332.158443 76.973283 
L 308.381376 78.695501 
L 289.119894 80.330214 
L 266.717912 82.524996 
L 256.284805 83.734062 
L 247.959091 84.882791 
L 240.087763 86.155398 
L 229.955937 88.081481 
L 221.929678 89.849054 
L 215.192037 91.57725 
L 206.634205 94.127798 
L 199.381704 96.643526 
L 196.709992 97.673259 
L 188.631677 101.135926 
L 183.040318 103.909185 
L 177.07185 107.116837 
L 171.956246 110.117474 
L 167.027047 113.266605 
L 161.854927 116.886713 
L 157.175203 120.445716 
L 152.434253 124.427557 
L 147.928986 128.620163 
L 144.009766 132.679523 
L 140.944252 136.239078 
L 138.105553 139.958143 
L 135.613958 143.429982 
L 132.796075 147.64309 
L 130.171565 151.86008 
L 127.307071 156.841869 
L 125.001039 161.194523 
L 123.020363 165.245185 
L 120.893319 169.988494 
L 118.787161 175.177028 
L 117.259402 179.400005 
L 114.524188 187.933286 
L 111.85527 197.168355 
L 109.540657 206.109325 
L 107.510917 214.981449 
L 105.57755 224.710073 
L 103.56601 236.370854 
L 101.712285 248.367681 
L 100.298596 258.726352 
L 98.969099 270.035875 
L 97.492106 284.870269 
L 96.197289 299.949677 
L 94.88017 317.95321 
L 93.021787 347.96953 
L 90.857215 386.058111 
L 89.916577 405.385203 
L 88.867547 430.347807 
L 88.457783 441.517384 
L 88.457783 441.517384 
" style="fill:none;stroke:#008000;stroke-dasharray:11.1,4.8;stroke-dashoffset:0;stroke-width:3;"/>
   </g>
   <g id="line2d_15">
    <path clip-path="url(#p0bd53202f6)" d="M 520.650216 71.006373 
L 493.893102 71.376778 
L 471.937156 71.940665 
L 453.922951 72.594586 
L 423.576565 74.082884 
L 403.470452 75.33032 
L 388.118331 76.479629 
L 374.031075 77.735687 
L 353.812506 79.822901 
L 337.497874 81.714644 
L 315.197354 84.597517 
L 298.236307 87.046345 
L 282.702846 89.512293 
L 270.150278 91.703086 
L 249.077479 95.711992 
L 238.948771 98.112519 
L 230.369595 100.609621 
L 225.808562 102.137833 
L 220.549076 104.058788 
L 213.524065 106.851138 
L 209.852086 108.436885 
L 201.971944 112.237289 
L 197.737257 114.565099 
L 194.074927 116.744094 
L 189.291947 119.823357 
L 186.002425 122.114828 
L 181.686903 125.368236 
L 178.487105 127.979039 
L 173.900369 132.034001 
L 171.753978 134.092031 
L 167.162377 138.926438 
L 161.649964 145.117411 
L 156.373271 151.461972 
L 152.268396 156.74395 
L 148.02374 162.587031 
L 143.838179 168.729488 
L 139.971127 174.818603 
L 136.018344 181.504039 
L 132.515893 187.895935 
L 129.735409 193.388665 
L 125.969201 201.63046 
L 122.558967 209.778107 
L 120.268521 215.655349 
L 116.415982 226.384392 
L 113.813214 234.405979 
L 110.969831 244.227326 
L 109.137955 251.381626 
L 106.692884 262.049462 
L 104.208037 273.800085 
L 102.118249 284.568976 
L 100.160325 295.619439 
L 98.473765 306.129318 
L 96.203809 321.998249 
L 94.327632 336.819396 
L 92.941373 349.416261 
L 91.830983 361.540693 
L 90.838704 375.242094 
L 90.088921 389.036281 
L 89.295438 407.758555 
L 88.758235 425.865197 
L 88.457783 441.517384 
L 88.457783 441.517384 
" style="fill:none;stroke:#ff0000;stroke-dasharray:19.2,4.8,3,4.8;stroke-dashoffset:0;stroke-width:3;"/>
   </g>
   <g id="line2d_16">
    <path clip-path="url(#p0bd53202f6)" d="M 520.294757 71.008297 
L 513.053232 71.103239 
L 479.095237 71.855997 
L 461.268166 72.560931 
L 438.863511 73.788422 
L 424.215183 74.79996 
L 395.396187 77.299816 
L 376.231047 79.266865 
L 360.524146 81.132026 
L 348.219023 82.799903 
L 337.291911 84.484151 
L 320.093336 87.461989 
L 303.546598 90.550347 
L 285.479374 94.152246 
L 263.166149 98.947036 
L 247.062988 102.674769 
L 232.743284 106.223186 
L 222.096007 109.040787 
L 201.041156 114.860809 
L 195.611636 116.586121 
L 189.169576 118.912562 
L 185.702561 120.320713 
L 181.28468 122.324103 
L 178.221418 123.863977 
L 174.149638 126.121865 
L 170.987954 128.045902 
L 165.65834 131.59138 
L 162.831687 133.641118 
L 159.143343 136.546858 
L 156.416825 138.875875 
L 152.83622 142.183832 
L 150.337358 144.677314 
L 146.953367 148.31747 
L 144.595208 151.048682 
L 141.407832 155.021037 
L 139.372499 157.74724 
L 135.052179 164.098924 
L 131.141281 170.702001 
L 127.613193 177.181237 
L 124.400061 183.642164 
L 121.343855 190.368234 
L 118.627098 196.897197 
L 115.933361 203.90542 
L 113.731503 210.203445 
L 111.336822 217.716952 
L 109.134515 225.335309 
L 106.922492 234.038161 
L 104.823336 243.372075 
L 102.415194 255.376564 
L 100.667046 265.193448 
L 98.886729 276.607343 
L 97.427088 287.792414 
L 96.344784 297.96367 
L 94.251799 319.858374 
L 92.43298 341.225489 
L 91.287264 357.234513 
L 90.564693 370.105296 
L 89.908999 385.84135 
L 89.365293 404.298707 
L 88.46843 440.324372 
L 88.457783 441.517384 
L 88.457783 441.517384 
" style="fill:none;stroke:#00bfbf;stroke-dasharray:3,4.95;stroke-dashoffset:0;stroke-width:3;"/>
   </g>
   <g id="line2d_17">
    <path clip-path="url(#p0bd53202f6)" d="M 88.457783 441.517384 
L 520.749359 71.005754 
" style="fill:none;stroke:#000000;stroke-linecap:square;"/>
   </g>
   <g id="patch_3">
    <path d="M 88.457783 441.517384 
L 88.457783 71.005754 
" style="fill:none;stroke:#000000;stroke-linecap:square;stroke-linejoin:miter;stroke-width:0.8;"/>
   </g>
   <g id="patch_4">
    <path d="M 520.749359 441.517384 
L 520.749359 71.005754 
" style="fill:none;stroke:#000000;stroke-linecap:square;stroke-linejoin:miter;stroke-width:0.8;"/>
   </g>
   <g id="patch_5">
    <path d="M 88.457783 441.517384 
L 520.749359 441.517384 
" style="fill:none;stroke:#000000;stroke-linecap:square;stroke-linejoin:miter;stroke-width:0.8;"/>
   </g>
   <g id="patch_6">
    <path d="M 88.457783 71.005754 
L 520.749359 71.005754 
" style="fill:none;stroke:#000000;stroke-linecap:square;stroke-linejoin:miter;stroke-width:0.8;"/>
   </g>
   <g id="text_15">
    <!-- Per-group ROC curve -->
    <defs>
     <path d="M 32.90625 29 
C 44.90625 29 54.703125 38.328125 54.703125 49.34375 
C 54.703125 60.15625 45.296875 69.578125 32.296875 69.578125 
L 8.90625 69.578125 
L 8.90625 0 
L 17.296875 0 
L 17.296875 29 
z
M 30.09375 64 
C 41.703125 64 46.796875 56.671875 46.796875 49.328125 
C 46.796875 42.5 42.09375 34.78125 30.09375 34.78125 
L 17.09375 34.78125 
L 17.09375 64 
z
" id="CMSS17-80"/>
     <path d="M 15.09375 5.203125 
C 18.40625 2.015625 22.90625 -0.078125 27.703125 -0.078125 
C 37 -0.078125 45 9.421875 45 22.0625 
C 45 33.734375 39 44 30.40625 44 
C 25.40625 44 19.40625 42.21875 14.90625 38.625 
L 14.90625 43.203125 
L 7.5 43.203125 
L 7.5 -19 
L 15.09375 -19 
z
M 15.09375 32.8125 
C 15.90625 34 19.296875 37.734375 24.796875 37.734375 
C 31.796875 37.734375 37.40625 30.625 37.40625 22.0625 
C 37.40625 12.296875 30.59375 6 23.90625 6 
C 21.90625 6 19.796875 6.484375 17.796875 8.171875 
C 15.09375 10.53125 15.09375 12 15.09375 13.390625 
z
" id="CMSS17-112"/>
     <path d="M 39.40625 32.953125 
L 39.59375 33.046875 
C 55.203125 38.421875 55.296875 49.171875 55.296875 51.0625 
C 55.296875 60.515625 45.703125 69.578125 31.296875 69.578125 
L 8.90625 69.578125 
L 8.90625 0.5 
L 17.09375 0.5 
L 17.09375 32 
L 31.796875 32 
L 49.5 0.5 
L 57.90625 0.5 
z
M 17.09375 38.078125 
L 17.09375 64 
L 30.203125 64 
C 42.90625 64 47.40625 56.828125 47.40625 51.046875 
C 47.40625 45.65625 43.40625 38.078125 30.203125 38.078125 
z
" id="CMSS17-82"/>
     <path d="M 64 34.03125 
C 64 54.734375 50.296875 70.265625 34.59375 70.265625 
C 18.90625 70.265625 5.203125 54.640625 5.203125 34.03125 
C 5.203125 13.234375 19.09375 -2 34.59375 -2 
C 50.09375 -2 64 13.234375 64 34.03125 
z
M 34.59375 4.265625 
C 23.59375 4.265625 13.59375 16.515625 13.59375 35.328125 
C 13.59375 53.640625 24.203125 64 34.59375 64 
C 45 64 55.59375 53.640625 55.59375 35.328125 
C 55.59375 16.421875 45.5 4.265625 34.59375 4.265625 
z
" id="CMSS17-79"/>
     <path d="M 54.703125 11.15625 
C 48 6.671875 44.90625 5.375 36.796875 5.375 
C 22.796875 5.375 14.59375 20.359375 14.59375 34.046875 
C 14.59375 48.625 23 63 37.203125 63 
C 43.59375 63 47.796875 61.21875 52.90625 58.046875 
L 54.296875 65.890625 
C 49.5 68.28125 43.40625 69.375 37.296875 69.375 
C 18.09375 69.375 6.203125 51.8125 6.203125 34.046875 
C 6.203125 14.484375 20.296875 -1 36.296875 -1 
C 44.90625 -1 47.90625 -0.296875 55.296875 4.375 
z
" id="CMSS17-67"/>
     <path d="M 41.796875 43 
L 34 43 
L 27.296875 24.3125 
C 25.203125 18.203125 22.203125 9.796875 21.703125 5.5 
L 21.59375 5.5 
C 21.40625 7.3125 20.59375 9.90625 20.09375 11.703125 
C 19.5 13.90625 18.703125 16.5 18.09375 18.3125 
L 9.296875 43 
L 1.296875 43 
L 17.09375 0 
L 26 0 
z
" id="CMSS17-118"/>
    </defs>
    <g transform="translate(218.713045 33.000781)scale(0.204 -0.204)">
     <use transform="scale(0.996264)" xlink:href="#CMSS17-80"/>
     <use transform="translate(57.133132 0)scale(0.996264)" xlink:href="#CMSS17-101"/>
     <use transform="translate(98.771954 0)scale(0.996264)" xlink:href="#CMSS17-114"/>
     <use transform="translate(130.681727 0)scale(0.996264)" xlink:href="#CMSS17-45"/>
     <use transform="translate(161.91084 0)scale(0.996264)" xlink:href="#CMSS17-103"/>
     <use transform="translate(208.754463 0)scale(0.996264)" xlink:href="#CMSS17-114"/>
     <use transform="translate(240.664236 0)scale(0.996264)" xlink:href="#CMSS17-111"/>
     <use transform="translate(287.507859 0)scale(0.996264)" xlink:href="#CMSS17-117"/>
     <use transform="translate(335.712802 0)scale(0.996264)" xlink:href="#CMSS17-112"/>
     <use transform="translate(415.146858 0)scale(0.996264)" xlink:href="#CMSS17-82"/>
     <use transform="translate(475.563013 0)scale(0.996264)" xlink:href="#CMSS17-79"/>
     <use transform="translate(544.587269 0)scale(0.996264)" xlink:href="#CMSS17-67"/>
     <use transform="translate(635.672153 0)scale(0.996264)" xlink:href="#CMSS17-99"/>
     <use transform="translate(677.310975 0)scale(0.996264)" xlink:href="#CMSS17-117"/>
     <use transform="translate(725.515918 0)scale(0.996264)" xlink:href="#CMSS17-114"/>
     <use transform="translate(757.425691 0)scale(0.996264)" xlink:href="#CMSS17-118"/>
     <use transform="translate(800.425832 0)scale(0.996264)" xlink:href="#CMSS17-101"/>
    </g>
    <!-- classifying non-defaulters using FICO score -->
    <defs>
     <path d="M 41.796875 43 
L 34 43 
C 25.5 20.21875 22.59375 10.96875 22.40625 5.984375 
L 22.296875 5.984375 
C 22 10.875 17.59375 22.8125 14.09375 31.359375 
L 9.40625 43 
L 1.296875 43 
L 19 0.203125 
C 17.90625 -2.78125 16.296875 -7.265625 15.796875 -8.265625 
C 13.59375 -13.828125 12.09375 -13.828125 10.5 -13.828125 
C 10.09375 -13.828125 6.90625 -13.828125 3.296875 -12.640625 
L 3.90625 -19.203125 
C 6.40625 -19.703125 8.90625 -20 10.703125 -20 
C 13.203125 -20 18.203125 -20 22.796875 -7.765625 
z
" id="CMSS17-121"/>
     <path d="M 17.09375 69 
L 8.703125 69 
L 8.703125 0 
L 17.09375 0 
z
" id="CMSS17-73"/>
    </defs>
    <g transform="translate(133.986382 53.890405)scale(0.204 -0.204)">
     <use transform="scale(0.996264)" xlink:href="#CMSS17-99"/>
     <use transform="translate(41.638822 0)scale(0.996264)" xlink:href="#CMSS17-108"/>
     <use transform="translate(63.819545 0)scale(0.996264)" xlink:href="#CMSS17-97"/>
     <use transform="translate(108.741466 0)scale(0.996264)" xlink:href="#CMSS17-115"/>
     <use transform="translate(144.655008 0)scale(0.996264)" xlink:href="#CMSS17-115"/>
     <use transform="translate(180.56855 0)scale(0.996264)" xlink:href="#CMSS17-105"/>
     <use transform="translate(202.749273 0)scale(0.996264)" xlink:href="#CMSS17-102"/>
     <use transform="translate(231.375932 0)scale(0.996264)" xlink:href="#CMSS17-121"/>
     <use transform="translate(274.376073 0)scale(0.996264)" xlink:href="#CMSS17-105"/>
     <use transform="translate(296.556796 0)scale(0.996264)" xlink:href="#CMSS17-110"/>
     <use transform="translate(344.761739 0)scale(0.996264)" xlink:href="#CMSS17-103"/>
     <use transform="translate(422.834476 0)scale(0.996264)" xlink:href="#CMSS17-110"/>
     <use transform="translate(471.039419 0)scale(0.996264)" xlink:href="#CMSS17-111"/>
     <use transform="translate(517.883042 0)scale(0.996264)" xlink:href="#CMSS17-110"/>
     <use transform="translate(566.087985 0)scale(0.996264)" xlink:href="#CMSS17-45"/>
     <use transform="translate(597.317098 0)scale(0.996264)" xlink:href="#CMSS17-100"/>
     <use transform="translate(645.522041 0)scale(0.996264)" xlink:href="#CMSS17-101"/>
     <use transform="translate(687.160863 0)scale(0.996264)" xlink:href="#CMSS17-102"/>
     <use transform="translate(715.787522 0)scale(0.996264)" xlink:href="#CMSS17-97"/>
     <use transform="translate(760.709443 0)scale(0.996264)" xlink:href="#CMSS17-117"/>
     <use transform="translate(808.914386 0)scale(0.996264)" xlink:href="#CMSS17-108"/>
     <use transform="translate(831.095109 0)scale(0.996264)" xlink:href="#CMSS17-116"/>
     <use transform="translate(864.926676 0)scale(0.996264)" xlink:href="#CMSS17-101"/>
     <use transform="translate(906.565498 0)scale(0.996264)" xlink:href="#CMSS17-114"/>
     <use transform="translate(938.47527 0)scale(0.996264)" xlink:href="#CMSS17-115"/>
     <use transform="translate(1005.617925 0)scale(0.996264)" xlink:href="#CMSS17-117"/>
     <use transform="translate(1053.822868 0)scale(0.996264)" xlink:href="#CMSS17-115"/>
     <use transform="translate(1089.73641 0)scale(0.996264)" xlink:href="#CMSS17-105"/>
     <use transform="translate(1111.917133 0)scale(0.996264)" xlink:href="#CMSS17-110"/>
     <use transform="translate(1160.122076 0)scale(0.996264)" xlink:href="#CMSS17-103"/>
     <use transform="translate(1238.194813 0)scale(0.996264)" xlink:href="#CMSS17-70"/>
     <use transform="translate(1291.484372 0)scale(0.996264)" xlink:href="#CMSS17-73"/>
     <use transform="translate(1317.268297 0)scale(0.996264)" xlink:href="#CMSS17-67"/>
     <use transform="translate(1377.124069 0)scale(0.996264)" xlink:href="#CMSS17-79"/>
     <use transform="translate(1477.377437 0)scale(0.996264)" xlink:href="#CMSS17-115"/>
     <use transform="translate(1513.290979 0)scale(0.996264)" xlink:href="#CMSS17-99"/>
     <use transform="translate(1554.929801 0)scale(0.996264)" xlink:href="#CMSS17-111"/>
     <use transform="translate(1599.170971 0)scale(0.996264)" xlink:href="#CMSS17-114"/>
     <use transform="translate(1631.080743 0)scale(0.996264)" xlink:href="#CMSS17-101"/>
    </g>
   </g>
   <g id="legend_1">
    <g id="patch_7">
     <path d="M 398.467199 433.017384 
L 508.849359 433.017384 
Q 512.249359 433.017384 512.249359 429.617384 
L 512.249359 336.540235 
Q 512.249359 333.140235 508.849359 333.140235 
L 398.467199 333.140235 
Q 395.067199 333.140235 395.067199 336.540235 
L 395.067199 429.617384 
Q 395.067199 433.017384 398.467199 433.017384 
z
" style="fill:#ffffff;opacity:0.8;stroke:#cccccc;stroke-linejoin:miter;"/>
    </g>
    <g id="line2d_18">
     <path d="M 401.867199 345.890235 
L 435.867199 345.890235 
" style="fill:none;stroke:#0000ff;stroke-linecap:square;stroke-width:3;"/>
    </g>
    <g id="line2d_19"/>
    <g id="text_16">
     <!-- Asian -->
     <defs>
      <path d="M 35.5 69 
L 26.90625 69 
L 2.59375 0 
L 10.203125 0 
L 17.203125 20 
L 44 20 
L 51.09375 0 
L 59.796875 0 
z
M 42.09375 25.578125 
L 19.09375 25.578125 
C 23.90625 39.5 29.90625 56.84375 30.59375 61.328125 
L 30.703125 61.328125 
C 31.40625 57.234375 33.40625 51.265625 35.09375 46.1875 
z
" id="CMSS17-65"/>
     </defs>
     <g transform="translate(449.467199 351.840235)scale(0.17 -0.17)">
      <use transform="scale(0.996264)" xlink:href="#CMSS17-65"/>
      <use transform="translate(62.217855 0)scale(0.996264)" xlink:href="#CMSS17-115"/>
      <use transform="translate(98.131397 0)scale(0.996264)" xlink:href="#CMSS17-105"/>
      <use transform="translate(120.31212 0)scale(0.996264)" xlink:href="#CMSS17-97"/>
      <use transform="translate(165.234041 0)scale(0.996264)" xlink:href="#CMSS17-110"/>
     </g>
    </g>
    <g id="line2d_20">
     <path d="M 401.867199 369.584522 
L 435.867199 369.584522 
" style="fill:none;stroke:#008000;stroke-dasharray:11.1,4.8;stroke-dashoffset:0;stroke-width:3;"/>
    </g>
    <g id="line2d_21"/>
    <g id="text_17">
     <!-- White -->
     <defs>
      <path d="M 87.203125 69 
L 79.59375 69 
L 71.203125 38.078125 
C 69.90625 33.09375 68.703125 28.140625 67.5 23.15625 
C 65.703125 15.796875 64.40625 10.640625 64.203125 8.046875 
L 64.09375 8.046875 
C 63.90625 10.734375 62.59375 16.390625 61 22.765625 
C 59.796875 28.046875 58.5 33.296875 57.09375 38.46875 
L 48.796875 69 
L 40.40625 69 
L 32.5 40.03125 
L 28.5 24.203125 
C 25.5 11.671875 25.40625 9.875 25.203125 7.890625 
L 25.09375 7.890625 
C 25.09375 8.484375 24.703125 11.765625 21.90625 23.40625 
C 20.5 29.1875 19.09375 35.0625 17.59375 40.640625 
L 9.90625 69 
L 1.296875 69 
L 20.296875 0 
L 28.59375 0 
L 36.5 28.734375 
L 40.5 44.546875 
C 43.203125 55.6875 43.796875 58.46875 44 60.953125 
L 44.09375 60.953125 
C 44.09375 60.5625 45 54.28125 48.90625 39.765625 
L 59.5 0 
L 68.203125 0 
z
" id="CMSS17-87"/>
      <path d="M 40.90625 29.546875 
C 40.90625 35.8125 39.40625 44.0625 28.09375 44.0625 
C 21.796875 44.0625 17.703125 40.984375 14.796875 37.609375 
L 14.796875 69.5 
L 7.40625 69.5 
L 7.40625 0.5 
L 15 0.5 
L 15 24.578125 
C 15 30.828125 17.40625 38 24.203125 38 
C 33 38 33.296875 32.125 33.296875 28.734375 
L 33.296875 0.5 
L 40.90625 0.5 
z
" id="CMSS17-104"/>
     </defs>
     <g transform="translate(449.467199 375.534522)scale(0.17 -0.17)">
      <use transform="scale(0.996264)" xlink:href="#CMSS17-87"/>
      <use transform="translate(88.242166 0)scale(0.996264)" xlink:href="#CMSS17-104"/>
      <use transform="translate(136.447109 0)scale(0.996264)" xlink:href="#CMSS17-105"/>
      <use transform="translate(158.627832 0)scale(0.996264)" xlink:href="#CMSS17-116"/>
      <use transform="translate(192.459399 0)scale(0.996264)" xlink:href="#CMSS17-101"/>
     </g>
    </g>
    <g id="line2d_22">
     <path d="M 401.867199 393.27881 
L 435.867199 393.27881 
" style="fill:none;stroke:#ff0000;stroke-dasharray:19.2,4.8,3,4.8;stroke-dashoffset:0;stroke-width:3;"/>
    </g>
    <g id="line2d_23"/>
    <g id="text_18">
     <!-- Hispanic -->
     <defs>
      <path d="M 57.40625 69 
L 49 69 
L 49 39.078125 
L 17.203125 39.078125 
L 17.203125 69 
L 8.796875 69 
L 8.796875 0 
L 17.203125 0 
L 17.203125 33 
L 49 33 
L 49 0 
L 57.40625 0 
z
" id="CMSS17-72"/>
     </defs>
     <g transform="translate(449.467199 399.22881)scale(0.17 -0.17)">
      <use transform="scale(0.996264)" xlink:href="#CMSS17-72"/>
      <use transform="translate(66.061519 0)scale(0.996264)" xlink:href="#CMSS17-105"/>
      <use transform="translate(88.242242 0)scale(0.996264)" xlink:href="#CMSS17-115"/>
      <use transform="translate(124.155784 0)scale(0.996264)" xlink:href="#CMSS17-112"/>
      <use transform="translate(172.360727 0)scale(0.996264)" xlink:href="#CMSS17-97"/>
      <use transform="translate(217.282648 0)scale(0.996264)" xlink:href="#CMSS17-110"/>
      <use transform="translate(265.487591 0)scale(0.996264)" xlink:href="#CMSS17-105"/>
      <use transform="translate(287.668314 0)scale(0.996264)" xlink:href="#CMSS17-99"/>
     </g>
    </g>
    <g id="line2d_24">
     <path d="M 401.867199 416.973097 
L 435.867199 416.973097 
" style="fill:none;stroke:#00bfbf;stroke-dasharray:3,4.95;stroke-dashoffset:0;stroke-width:3;"/>
    </g>
    <g id="line2d_25"/>
    <g id="text_19">
     <!-- Black -->
     <defs>
      <path d="M 8.90625 69 
L 8.90625 0 
L 33.796875 0 
C 47.40625 0 57.296875 8.96875 57.296875 18.75 
C 57.296875 26.328125 50.796875 34 39.09375 36.203125 
C 52.09375 39.96875 54.703125 47.5 54.703125 51.765625 
C 54.703125 60.671875 44.90625 69 31.203125 69 
z
M 17 39 
L 17 63.421875 
L 28.5 63.421875 
C 38.796875 63.421875 46.90625 58.1875 46.90625 51.65625 
C 46.90625 45.71875 40.5 39 27.59375 39 
z
M 17 5.578125 
L 17 32.921875 
L 30.296875 32.921875 
C 41.09375 32.921875 49.40625 26.234375 49.40625 18.84375 
C 49.40625 12.0625 42.09375 5.578125 31 5.578125 
z
" id="CMSS17-66"/>
      <path d="M 26.5 26.375 
L 42 42.796875 
L 32.40625 42.796875 
L 14.90625 24.28125 
L 14.90625 69 
L 7.5 69 
L 7.5 0 
L 14.796875 0 
L 14.796875 13.9375 
L 21.5 21 
L 35.59375 0 
L 44.09375 0 
z
" id="CMSS17-107"/>
     </defs>
     <g transform="translate(449.467199 422.923097)scale(0.17 -0.17)">
      <use transform="scale(0.996264)" xlink:href="#CMSS17-66"/>
      <use transform="translate(62.33804 0)scale(0.996264)" xlink:href="#CMSS17-108"/>
      <use transform="translate(84.518763 0)scale(0.996264)" xlink:href="#CMSS17-97"/>
      <use transform="translate(129.440684 0)scale(0.996264)" xlink:href="#CMSS17-99"/>
      <use transform="translate(171.079506 0)scale(0.996264)" xlink:href="#CMSS17-107"/>
     </g>
    </g>
   </g>
  </g>
  <g id="axes_2">
   <g id="patch_8">
    <path d="M 619.277783 441.517384 
L 1051.569359 441.517384 
L 1051.569359 71.005754 
L 619.277783 71.005754 
z
" style="fill:#ffffff;"/>
   </g>
   <g id="matplotlib.axis_3">
    <g id="xtick_7">
     <g id="line2d_26">
      <g>
       <use style="stroke:#000000;stroke-width:0.8;" x="619.277783" xlink:href="#ma13bb99465" y="441.517384"/>
      </g>
     </g>
     <g id="text_20">
      <!-- $0.00$ -->
      <g transform="translate(605.323452 460.278835)scale(0.17 -0.17)">
       <use transform="scale(0.996264)" xlink:href="#CMR17-48"/>
       <use transform="translate(45.690477 0)scale(0.996264)" xlink:href="#CMMI12-58"/>
       <use transform="translate(72.787654 0)scale(0.996264)" xlink:href="#CMR17-48"/>
       <use transform="translate(118.478131 0)scale(0.996264)" xlink:href="#CMR17-48"/>
      </g>
     </g>
    </g>
    <g id="xtick_8">
     <g id="line2d_27">
      <g>
       <use style="stroke:#000000;stroke-width:0.8;" x="705.736098" xlink:href="#ma13bb99465" y="441.517384"/>
      </g>
     </g>
     <g id="text_21">
      <!-- $0.05$ -->
      <defs>
       <path d="M 11.40625 57.6875 
C 12.40625 57.28125 16.5 56 20.703125 56 
C 30 56 35.09375 61.109375 38 64.0625 
C 38 64.953125 38 65.5 37.40625 65.5 
C 37.296875 65.5 37.09375 65.5 36.296875 65.046875 
C 32.796875 63.40625 28.703125 62.078125 23.703125 62.078125 
C 20.703125 62.078125 16.203125 62.484375 11.296875 64.671875 
C 10.203125 65.171875 10 65.171875 9.90625 65.171875 
C 9.40625 65.171875 9.296875 65.0625 9.296875 63.078125 
L 9.296875 34.421875 
C 9.296875 32.640625 9.296875 32.140625 10.296875 32.140625 
C 10.796875 32.140625 11 32.34375 11.5 33.03125 
C 14.703125 37.515625 19.09375 39.40625 24.09375 39.40625 
C 27.59375 39.40625 35.09375 37.21875 35.09375 20.140625 
C 35.09375 16.953125 35.09375 11.171875 32.09375 6.578125 
C 29.59375 2.484375 25.703125 0.390625 21.40625 0.390625 
C 14.796875 0.390625 8.09375 5 6.296875 12.71875 
C 6.703125 12.609375 7.5 12.421875 7.90625 12.421875 
C 9.203125 12.421875 11.703125 13.125 11.703125 16.21875 
C 11.703125 18.90625 9.796875 20 7.90625 20 
C 5.59375 20 4.09375 18.59375 4.09375 15.796875 
C 4.09375 7.09375 11 -2 21.59375 -2 
C 31.90625 -2 41.703125 6.875 41.703125 19.75 
C 41.703125 31.71875 33.90625 41 24.203125 41 
C 19.09375 41 14.796875 39.109375 11.40625 35.53125 
z
" id="CMR17-53"/>
      </defs>
      <g transform="translate(691.781767 460.278835)scale(0.17 -0.17)">
       <use transform="scale(0.996264)" xlink:href="#CMR17-48"/>
       <use transform="translate(45.690477 0)scale(0.996264)" xlink:href="#CMMI12-58"/>
       <use transform="translate(72.787654 0)scale(0.996264)" xlink:href="#CMR17-48"/>
       <use transform="translate(118.478131 0)scale(0.996264)" xlink:href="#CMR17-53"/>
      </g>
     </g>
    </g>
    <g id="xtick_9">
     <g id="line2d_28">
      <g>
       <use style="stroke:#000000;stroke-width:0.8;" x="792.194414" xlink:href="#ma13bb99465" y="441.517384"/>
      </g>
     </g>
     <g id="text_22">
      <!-- $0.10$ -->
      <g transform="translate(778.240082 460.278835)scale(0.17 -0.17)">
       <use transform="scale(0.996264)" xlink:href="#CMR17-48"/>
       <use transform="translate(45.690477 0)scale(0.996264)" xlink:href="#CMMI12-58"/>
       <use transform="translate(72.787654 0)scale(0.996264)" xlink:href="#CMR17-49"/>
       <use transform="translate(118.478131 0)scale(0.996264)" xlink:href="#CMR17-48"/>
      </g>
     </g>
    </g>
    <g id="xtick_10">
     <g id="line2d_29">
      <g>
       <use style="stroke:#000000;stroke-width:0.8;" x="878.652729" xlink:href="#ma13bb99465" y="441.517384"/>
      </g>
     </g>
     <g id="text_23">
      <!-- $0.15$ -->
      <g transform="translate(864.698397 460.278835)scale(0.17 -0.17)">
       <use transform="scale(0.996264)" xlink:href="#CMR17-48"/>
       <use transform="translate(45.690477 0)scale(0.996264)" xlink:href="#CMMI12-58"/>
       <use transform="translate(72.787654 0)scale(0.996264)" xlink:href="#CMR17-49"/>
       <use transform="translate(118.478131 0)scale(0.996264)" xlink:href="#CMR17-53"/>
      </g>
     </g>
    </g>
    <g id="xtick_11">
     <g id="line2d_30">
      <g>
       <use style="stroke:#000000;stroke-width:0.8;" x="965.111044" xlink:href="#ma13bb99465" y="441.517384"/>
      </g>
     </g>
     <g id="text_24">
      <!-- $0.20$ -->
      <g transform="translate(951.156712 460.278835)scale(0.17 -0.17)">
       <use transform="scale(0.996264)" xlink:href="#CMR17-48"/>
       <use transform="translate(45.690477 0)scale(0.996264)" xlink:href="#CMMI12-58"/>
       <use transform="translate(72.787654 0)scale(0.996264)" xlink:href="#CMR17-50"/>
       <use transform="translate(118.478131 0)scale(0.996264)" xlink:href="#CMR17-48"/>
      </g>
     </g>
    </g>
    <g id="xtick_12">
     <g id="line2d_31">
      <g>
       <use style="stroke:#000000;stroke-width:0.8;" x="1051.569359" xlink:href="#ma13bb99465" y="441.517384"/>
      </g>
     </g>
     <g id="text_25">
      <!-- $0.25$ -->
      <g transform="translate(1037.615027 460.278835)scale(0.17 -0.17)">
       <use transform="scale(0.996264)" xlink:href="#CMR17-48"/>
       <use transform="translate(45.690477 0)scale(0.996264)" xlink:href="#CMMI12-58"/>
       <use transform="translate(72.787654 0)scale(0.996264)" xlink:href="#CMR17-50"/>
       <use transform="translate(118.478131 0)scale(0.996264)" xlink:href="#CMR17-53"/>
      </g>
     </g>
    </g>
    <g id="text_26">
     <!-- Fraction defaulters getting loan -->
     <g transform="translate(710.320366 481.686853)scale(0.204 -0.204)">
      <use transform="scale(0.996264)" xlink:href="#CMSS17-70"/>
      <use transform="translate(50.687105 0)scale(0.996264)" xlink:href="#CMSS17-114"/>
      <use transform="translate(82.596878 0)scale(0.996264)" xlink:href="#CMSS17-97"/>
      <use transform="translate(127.518799 0)scale(0.996264)" xlink:href="#CMSS17-99"/>
      <use transform="translate(169.157621 0)scale(0.996264)" xlink:href="#CMSS17-116"/>
      <use transform="translate(202.989187 0)scale(0.996264)" xlink:href="#CMSS17-105"/>
      <use transform="translate(225.16991 0)scale(0.996264)" xlink:href="#CMSS17-111"/>
      <use transform="translate(272.013534 0)scale(0.996264)" xlink:href="#CMSS17-110"/>
      <use transform="translate(351.44759 0)scale(0.996264)" xlink:href="#CMSS17-100"/>
      <use transform="translate(399.652533 0)scale(0.996264)" xlink:href="#CMSS17-101"/>
      <use transform="translate(441.291355 0)scale(0.996264)" xlink:href="#CMSS17-102"/>
      <use transform="translate(469.918014 0)scale(0.996264)" xlink:href="#CMSS17-97"/>
      <use transform="translate(514.839934 0)scale(0.996264)" xlink:href="#CMSS17-117"/>
      <use transform="translate(563.044877 0)scale(0.996264)" xlink:href="#CMSS17-108"/>
      <use transform="translate(585.225601 0)scale(0.996264)" xlink:href="#CMSS17-116"/>
      <use transform="translate(619.057167 0)scale(0.996264)" xlink:href="#CMSS17-101"/>
      <use transform="translate(660.695989 0)scale(0.996264)" xlink:href="#CMSS17-114"/>
      <use transform="translate(692.605762 0)scale(0.996264)" xlink:href="#CMSS17-115"/>
      <use transform="translate(759.748417 0)scale(0.996264)" xlink:href="#CMSS17-103"/>
      <use transform="translate(806.59204 0)scale(0.996264)" xlink:href="#CMSS17-101"/>
      <use transform="translate(848.230862 0)scale(0.996264)" xlink:href="#CMSS17-116"/>
      <use transform="translate(882.062429 0)scale(0.996264)" xlink:href="#CMSS17-116"/>
      <use transform="translate(915.893996 0)scale(0.996264)" xlink:href="#CMSS17-105"/>
      <use transform="translate(938.074719 0)scale(0.996264)" xlink:href="#CMSS17-110"/>
      <use transform="translate(986.279662 0)scale(0.996264)" xlink:href="#CMSS17-103"/>
      <use transform="translate(1064.352398 0)scale(0.996264)" xlink:href="#CMSS17-108"/>
      <use transform="translate(1086.533121 0)scale(0.996264)" xlink:href="#CMSS17-111"/>
      <use transform="translate(1133.376745 0)scale(0.996264)" xlink:href="#CMSS17-97"/>
      <use transform="translate(1178.298665 0)scale(0.996264)" xlink:href="#CMSS17-110"/>
     </g>
    </g>
   </g>
   <g id="matplotlib.axis_4">
    <g id="ytick_7">
     <g id="line2d_32">
      <g>
       <use style="stroke:#000000;stroke-width:0.8;" x="619.277783" xlink:href="#ma7fdccc15b" y="441.517384"/>
      </g>
     </g>
     <g id="text_27">
      <!-- $0.4$ -->
      <g transform="translate(592.136501 447.39811)scale(0.17 -0.17)">
       <use transform="scale(0.996264)" xlink:href="#CMR17-48"/>
       <use transform="translate(45.690477 0)scale(0.996264)" xlink:href="#CMMI12-58"/>
       <use transform="translate(72.787654 0)scale(0.996264)" xlink:href="#CMR17-52"/>
      </g>
     </g>
    </g>
    <g id="ytick_8">
     <g id="line2d_33">
      <g>
       <use style="stroke:#000000;stroke-width:0.8;" x="619.277783" xlink:href="#ma7fdccc15b" y="379.765445"/>
      </g>
     </g>
     <g id="text_28">
      <!-- $0.5$ -->
      <g transform="translate(592.136501 385.646171)scale(0.17 -0.17)">
       <use transform="scale(0.996264)" xlink:href="#CMR17-48"/>
       <use transform="translate(45.690477 0)scale(0.996264)" xlink:href="#CMMI12-58"/>
       <use transform="translate(72.787654 0)scale(0.996264)" xlink:href="#CMR17-53"/>
      </g>
     </g>
    </g>
    <g id="ytick_9">
     <g id="line2d_34">
      <g>
       <use style="stroke:#000000;stroke-width:0.8;" x="619.277783" xlink:href="#ma7fdccc15b" y="318.013507"/>
      </g>
     </g>
     <g id="text_29">
      <!-- $0.6$ -->
      <g transform="translate(592.136501 323.894233)scale(0.17 -0.17)">
       <use transform="scale(0.996264)" xlink:href="#CMR17-48"/>
       <use transform="translate(45.690477 0)scale(0.996264)" xlink:href="#CMMI12-58"/>
       <use transform="translate(72.787654 0)scale(0.996264)" xlink:href="#CMR17-54"/>
      </g>
     </g>
    </g>
    <g id="ytick_10">
     <g id="line2d_35">
      <g>
       <use style="stroke:#000000;stroke-width:0.8;" x="619.277783" xlink:href="#ma7fdccc15b" y="256.261569"/>
      </g>
     </g>
     <g id="text_30">
      <!-- $0.7$ -->
      <defs>
       <path d="M 45.09375 61.578125 
L 45.09375 63.765625 
L 21.59375 63.765625 
C 9.90625 63.765625 9.703125 65.078125 9.296875 67 
L 7.5 67 
L 4.59375 48.34375 
L 6.40625 48.34375 
C 6.703125 50.234375 7.40625 55.3125 8.59375 57.203125 
C 9.203125 58 16.59375 58 18.296875 58 
L 40.296875 58 
L 29.203125 41.578125 
C 21.796875 30.53125 16.703125 15.609375 16.703125 2.578125 
C 16.703125 1.390625 16.703125 -2 20.296875 -2 
C 23.90625 -2 23.90625 1.390625 23.90625 2.671875 
L 23.90625 7.265625 
C 23.90625 23.5625 26.703125 34.3125 31.296875 41.1875 
z
" id="CMR17-55"/>
      </defs>
      <g transform="translate(592.136501 262.142294)scale(0.17 -0.17)">
       <use transform="scale(0.996264)" xlink:href="#CMR17-48"/>
       <use transform="translate(45.690477 0)scale(0.996264)" xlink:href="#CMMI12-58"/>
       <use transform="translate(72.787654 0)scale(0.996264)" xlink:href="#CMR17-55"/>
      </g>
     </g>
    </g>
    <g id="ytick_11">
     <g id="line2d_36">
      <g>
       <use style="stroke:#000000;stroke-width:0.8;" x="619.277783" xlink:href="#ma7fdccc15b" y="194.50963"/>
      </g>
     </g>
     <g id="text_31">
      <!-- $0.8$ -->
      <g transform="translate(592.136501 200.390356)scale(0.17 -0.17)">
       <use transform="scale(0.996264)" xlink:href="#CMR17-48"/>
       <use transform="translate(45.690477 0)scale(0.996264)" xlink:href="#CMMI12-58"/>
       <use transform="translate(72.787654 0)scale(0.996264)" xlink:href="#CMR17-56"/>
      </g>
     </g>
    </g>
    <g id="ytick_12">
     <g id="line2d_37">
      <g>
       <use style="stroke:#000000;stroke-width:0.8;" x="619.277783" xlink:href="#ma7fdccc15b" y="132.757692"/>
      </g>
     </g>
     <g id="text_32">
      <!-- $0.9$ -->
      <defs>
       <path d="M 35.203125 29.125 
C 35.203125 7.25 26.09375 0.484375 18.59375 0.484375 
C 16.296875 0.484375 10.703125 0.484375 8.40625 4.59375 
C 11 4.1875 12.90625 5.578125 12.90625 8.09375 
C 12.90625 10.8125 10.703125 11.703125 9.296875 11.703125 
C 8.40625 11.703125 5.703125 11.296875 5.703125 7.90625 
C 5.703125 1.109375 11.59375 -2 18.796875 -2 
C 30.296875 -2 42 10.53125 42 32.390625 
C 42 59.640625 30.796875 65.296875 23.203125 65.296875 
C 13.296875 65.296875 3.796875 56.6875 3.796875 43.40625 
C 3.796875 31.109375 11.90625 22 22.09375 22 
C 30.5 22 34.203125 29.734375 35.203125 33 
z
M 22.296875 23.59375 
C 19.59375 23.59375 15.796875 24.09375 12.703125 30.03125 
C 10.59375 33.890625 10.59375 38.453125 10.59375 43.296875 
C 10.59375 49.15625 10.59375 53.203125 13.40625 57.5625 
C 14.796875 59.640625 17.40625 63 23.203125 63 
C 35 63 35 45.078125 35 41.125 
C 35 34.09375 31.796875 23.59375 22.296875 23.59375 
z
" id="CMR17-57"/>
      </defs>
      <g transform="translate(592.136501 138.638418)scale(0.17 -0.17)">
       <use transform="scale(0.996264)" xlink:href="#CMR17-48"/>
       <use transform="translate(45.690477 0)scale(0.996264)" xlink:href="#CMMI12-58"/>
       <use transform="translate(72.787654 0)scale(0.996264)" xlink:href="#CMR17-57"/>
      </g>
     </g>
    </g>
    <g id="ytick_13">
     <g id="line2d_38">
      <g>
       <use style="stroke:#000000;stroke-width:0.8;" x="619.277783" xlink:href="#ma7fdccc15b" y="71.005754"/>
      </g>
     </g>
     <g id="text_33">
      <!-- $1.0$ -->
      <g transform="translate(592.136501 76.886479)scale(0.17 -0.17)">
       <use transform="scale(0.996264)" xlink:href="#CMR17-49"/>
       <use transform="translate(45.690477 0)scale(0.996264)" xlink:href="#CMMI12-58"/>
       <use transform="translate(72.787654 0)scale(0.996264)" xlink:href="#CMR17-48"/>
      </g>
     </g>
    </g>
    <g id="text_34">
     <!-- Fraction non-defaulters getting -->
     <g transform="translate(563.29373 379.437218)rotate(-90)scale(0.204 -0.204)">
      <use transform="scale(0.996264)" xlink:href="#CMSS17-70"/>
      <use transform="translate(50.687105 0)scale(0.996264)" xlink:href="#CMSS17-114"/>
      <use transform="translate(82.596878 0)scale(0.996264)" xlink:href="#CMSS17-97"/>
      <use transform="translate(127.518799 0)scale(0.996264)" xlink:href="#CMSS17-99"/>
      <use transform="translate(169.157621 0)scale(0.996264)" xlink:href="#CMSS17-116"/>
      <use transform="translate(202.989187 0)scale(0.996264)" xlink:href="#CMSS17-105"/>
      <use transform="translate(225.16991 0)scale(0.996264)" xlink:href="#CMSS17-111"/>
      <use transform="translate(272.013534 0)scale(0.996264)" xlink:href="#CMSS17-110"/>
      <use transform="translate(351.44759 0)scale(0.996264)" xlink:href="#CMSS17-110"/>
      <use transform="translate(399.652533 0)scale(0.996264)" xlink:href="#CMSS17-111"/>
      <use transform="translate(446.496156 0)scale(0.996264)" xlink:href="#CMSS17-110"/>
      <use transform="translate(494.7011 0)scale(0.996264)" xlink:href="#CMSS17-45"/>
      <use transform="translate(525.930212 0)scale(0.996264)" xlink:href="#CMSS17-100"/>
      <use transform="translate(574.135155 0)scale(0.996264)" xlink:href="#CMSS17-101"/>
      <use transform="translate(615.773977 0)scale(0.996264)" xlink:href="#CMSS17-102"/>
      <use transform="translate(644.400636 0)scale(0.996264)" xlink:href="#CMSS17-97"/>
      <use transform="translate(689.322557 0)scale(0.996264)" xlink:href="#CMSS17-117"/>
      <use transform="translate(737.5275 0)scale(0.996264)" xlink:href="#CMSS17-108"/>
      <use transform="translate(759.708223 0)scale(0.996264)" xlink:href="#CMSS17-116"/>
      <use transform="translate(793.53979 0)scale(0.996264)" xlink:href="#CMSS17-101"/>
      <use transform="translate(835.178612 0)scale(0.996264)" xlink:href="#CMSS17-114"/>
      <use transform="translate(867.088384 0)scale(0.996264)" xlink:href="#CMSS17-115"/>
      <use transform="translate(934.231039 0)scale(0.996264)" xlink:href="#CMSS17-103"/>
      <use transform="translate(981.074663 0)scale(0.996264)" xlink:href="#CMSS17-101"/>
      <use transform="translate(1022.713485 0)scale(0.996264)" xlink:href="#CMSS17-116"/>
      <use transform="translate(1056.545051 0)scale(0.996264)" xlink:href="#CMSS17-116"/>
      <use transform="translate(1090.376618 0)scale(0.996264)" xlink:href="#CMSS17-105"/>
      <use transform="translate(1112.557341 0)scale(0.996264)" xlink:href="#CMSS17-110"/>
      <use transform="translate(1160.762284 0)scale(0.996264)" xlink:href="#CMSS17-103"/>
     </g>
     <!-- loan -->
     <g transform="translate(584.183354 272.800971)rotate(-90)scale(0.204 -0.204)">
      <use transform="scale(0.996264)" xlink:href="#CMSS17-108"/>
      <use transform="translate(22.180723 0)scale(0.996264)" xlink:href="#CMSS17-111"/>
      <use transform="translate(69.024347 0)scale(0.996264)" xlink:href="#CMSS17-97"/>
      <use transform="translate(113.946267 0)scale(0.996264)" xlink:href="#CMSS17-110"/>
     </g>
    </g>
   </g>
   <g id="line2d_39">
    <path clip-path="url(#p90f0e18228)" d="M 1081 130.194451 
L 1068.20225 132.765633 
L 1054.06096 135.766096 
L 1044.181036 137.982844 
L 1029.25748 141.528707 
L 1020.413623 143.757494 
L 1003.298329 148.340539 
L 996.06654 150.401004 
L 982.704112 154.463001 
L 976.366852 156.523404 
L 960.678489 161.993784 
L 955.693764 163.863677 
L 942.430262 169.23522 
L 938.490288 170.964826 
L 924.307011 177.864963 
L 913.057899 184.403666 
L 901.770829 191.168728 
L 889.964427 198.501669 
L 878.114248 206.137006 
L 864.084594 215.499384 
L 852.007112 223.880634 
L 840.320047 232.295262 
L 827.365941 241.979193 
L 816.291043 250.599223 
L 807.191684 258.01052 
L 797.964751 265.870119 
L 787.698797 275.248118 
L 781.390006 281.367289 
L 776.909483 285.882463 
L 771.036855 292.038922 
L 765.772277 297.788155 
L 756.906845 308.051231 
L 748.905682 318.158589 
L 745.180925 323.274116 
L 742.2336 327.53769 
L 735.953456 337.332971 
L 733.110337 342.217731 
L 730.834445 346.385637 
L 727.691061 352.545815 
L 725.735845 356.664601 
L 719.260717 371.188358 
L 714.859872 380.608558 
L 706.403298 398.024305 
L 699.123076 412.326165 
L 692.282687 425.134935 
L 685.943278 436.532376 
L 678.879616 448.709781 
L 674.939822 455.414151 
L 671.86555 460.967961 
L 668.384838 467.558508 
L 663.232613 478.062492 
L 659.2776 486.831995 
L 655.811032 495.107513 
L 653.157347 501.998367 
L 652.071443 505 
L 652.071443 505 
" style="fill:none;stroke:#0000ff;stroke-linecap:square;stroke-width:3;"/>
   </g>
   <g id="line2d_40">
    <path clip-path="url(#p90f0e18228)" d="M 1081 111.057613 
L 1080.658053 111.104783 
L 1062.973467 113.735375 
L 1052.28662 115.451596 
L 1031.588968 119.042229 
L 1019.973359 121.222708 
L 997.607921 125.844806 
L 973.734051 131.190892 
L 953.271635 136.191955 
L 933.554837 141.440506 
L 922.539104 144.58447 
L 912.866356 147.474019 
L 894.147464 153.40569 
L 875.183663 160.042093 
L 857.162595 167.029769 
L 841.485715 173.795369 
L 829.223657 179.727961 
L 817.868864 185.926403 
L 807.902484 191.712801 
L 796.630951 198.734648 
L 786.132909 205.762965 
L 780.015637 210.114531 
L 770.159817 217.541381 
L 765.450806 221.320369 
L 757.528102 228.071472 
L 749.019925 235.976987 
L 740.595295 244.624544 
L 737.493667 248.097757 
L 734.484257 251.66284 
L 729.113175 258.459614 
L 723.543401 265.884974 
L 718.279369 273.263671 
L 712.867732 281.276756 
L 708.343943 288.332569 
L 703.60928 296.178372 
L 699.447265 303.519465 
L 695.49032 310.965246 
L 691.520477 318.979325 
L 687.756851 327.179619 
L 682.823997 338.828455 
L 678.081739 350.82452 
L 674.783927 359.64749 
L 670.737344 371.152819 
L 667.416029 381.356828 
L 664.463511 391.195757 
L 661.323048 402.722623 
L 658.328827 414.754469 
L 655.415073 427.446613 
L 652.759841 439.92394 
L 650.235806 452.578959 
L 647.803915 465.732813 
L 644.967331 482.584847 
L 641.562371 505 
L 641.562371 505 
" style="fill:none;stroke:#008000;stroke-dasharray:11.1,4.8;stroke-dashoffset:0;stroke-width:3;"/>
   </g>
   <g id="line2d_41">
    <path clip-path="url(#p90f0e18228)" d="M 1081 138.103053 
L 1073.334427 139.724979 
L 1056.39568 143.604662 
L 1041.746357 147.236321 
L 1022.614436 152.368427 
L 1009.456351 156.187544 
L 992.194261 161.609891 
L 979.395072 165.961229 
L 961.048126 172.7195 
L 952.462564 176.149549 
L 934.09616 184.206895 
L 912.046505 194.525183 
L 900.536964 200.204912 
L 890.939734 205.099451 
L 882.638398 209.476235 
L 874.520234 213.902748 
L 865.674668 218.892657 
L 857.541609 223.641216 
L 840.799367 233.878645 
L 825.331157 244.02717 
L 809.520027 255.169562 
L 795.510224 265.822722 
L 784.388285 274.977272 
L 775.443747 282.983814 
L 766.156808 291.76697 
L 755.682516 302.293009 
L 746.520734 312.088412 
L 735.825396 324.293585 
L 727.171089 334.87894 
L 720.699507 343.339463 
L 713.563783 353.358824 
L 707.127594 363.133314 
L 701.998469 371.632207 
L 697.228801 380.119992 
L 692.218188 389.411934 
L 686.941485 399.609906 
L 682.278798 408.996306 
L 678.194011 417.56133 
L 673.919647 426.944458 
L 669.860565 436.277336 
L 666.087951 445.361897 
L 662.444458 454.590208 
L 659.341712 462.878361 
L 655.023307 475.075641 
L 650.261887 489.32658 
L 646.668521 500.74243 
L 645.380461 505 
L 645.380461 505 
" style="fill:none;stroke:#ff0000;stroke-dasharray:19.2,4.8,3,4.8;stroke-dashoffset:0;stroke-width:3;"/>
   </g>
   <g id="line2d_42">
    <path clip-path="url(#p90f0e18228)" d="M 1081 142.785807 
L 1069.611276 144.097513 
L 1047.893193 146.973032 
L 1022.124955 150.850434 
L 1008.256896 153.197352 
L 990.585371 156.536336 
L 978.332322 159.102793 
L 962.0452 162.865939 
L 949.398466 166.072667 
L 928.080011 171.981797 
L 916.773398 175.398028 
L 902.020021 180.240927 
L 891.113949 184.122623 
L 876.791528 189.635884 
L 866.79608 193.791687 
L 853.260119 199.858614 
L 843.827481 204.410634 
L 831.07798 211.031226 
L 822.936647 215.574898 
L 810.692121 222.917962 
L 805.655367 226.161038 
L 796.188144 232.707044 
L 790.011773 237.166166 
L 780.698167 244.187287 
L 775.899423 247.964892 
L 768.446786 254.094313 
L 763.046893 258.733104 
L 756.745315 264.388474 
L 750.822071 269.943221 
L 745.048013 275.602995 
L 739.955041 280.824827 
L 729.180093 292.505197 
L 720.372661 303.001907 
L 710.793939 315.524418 
L 701.984709 328.221679 
L 695.914885 337.893386 
L 689.986272 348.398444 
L 684.739996 358.282956 
L 678.440085 371.09541 
L 673.426971 382.061492 
L 668.114833 394.651911 
L 663.983595 405.321408 
L 660.993565 413.675069 
L 657.770971 423.516371 
L 655.155 432.316855 
L 652.930865 440.659251 
L 648.171893 460.428037 
L 643.709262 480.038476 
L 639.097834 501.562496 
L 638.396414 505 
L 638.396414 505 
" style="fill:none;stroke:#00bfbf;stroke-dasharray:3,4.95;stroke-dashoffset:0;stroke-width:3;"/>
   </g>
   <g id="line2d_43">
    <path clip-path="url(#p90f0e18228)" style="fill:none;stroke:#000000;stroke-linecap:square;"/>
   </g>
   <g id="patch_9">
    <path d="M 619.277783 441.517384 
L 619.277783 71.005754 
" style="fill:none;stroke:#000000;stroke-linecap:square;stroke-linejoin:miter;stroke-width:0.8;"/>
   </g>
   <g id="patch_10">
    <path d="M 1051.569359 441.517384 
L 1051.569359 71.005754 
" style="fill:none;stroke:#000000;stroke-linecap:square;stroke-linejoin:miter;stroke-width:0.8;"/>
   </g>
   <g id="patch_11">
    <path d="M 619.277783 441.517384 
L 1051.569359 441.517384 
" style="fill:none;stroke:#000000;stroke-linecap:square;stroke-linejoin:miter;stroke-width:0.8;"/>
   </g>
   <g id="patch_12">
    <path d="M 619.277783 71.005754 
L 1051.569359 71.005754 
" style="fill:none;stroke:#000000;stroke-linecap:square;stroke-linejoin:miter;stroke-width:0.8;"/>
   </g>
   <g id="PathCollection_1">
    <defs>
     <path d="M 0 -4.1833 
L -4.1833 4.1833 
L 4.1833 4.1833 
z
" id="mc02b48c5a3" style="stroke:#000000;stroke-width:3;"/>
    </defs>
    <g clip-path="url(#p90f0e18228)">
     <use style="stroke:#000000;stroke-width:3;" x="727.171089" xlink:href="#mc02b48c5a3" y="334.87894"/>
     <use style="stroke:#000000;stroke-width:3;" x="822.608256" xlink:href="#mc02b48c5a3" y="183.29039"/>
     <use style="stroke:#000000;stroke-width:3;" x="656.032811" xlink:href="#mc02b48c5a3" y="429.265135"/>
     <use style="stroke:#000000;stroke-width:3;" x="942.430262" xlink:href="#mc02b48c5a3" y="169.23522"/>
    </g>
   </g>
   <g id="PathCollection_2">
    <defs>
     <path d="M 0 5 
C 1.326016 5 2.597899 4.473168 3.535534 3.535534 
C 4.473168 2.597899 5 1.326016 5 0 
C 5 -1.326016 4.473168 -2.597899 3.535534 -3.535534 
C 2.597899 -4.473168 1.326016 -5 0 -5 
C -1.326016 -5 -2.597899 -4.473168 -3.535534 -3.535534 
C -4.473168 -2.597899 -5 -1.326016 -5 0 
C -5 1.326016 -4.473168 2.597899 -3.535534 3.535534 
C -2.597899 4.473168 -1.326016 5 0 5 
z
" id="me971fb94d6" style="stroke:#008000;stroke-width:3;"/>
    </defs>
    <g clip-path="url(#p90f0e18228)">
     <use style="fill:#008000;stroke:#008000;stroke-width:3;" x="769.324561" xlink:href="#me971fb94d6" y="288.712561"/>
     <use style="fill:#008000;stroke:#008000;stroke-width:3;" x="811.008792" xlink:href="#me971fb94d6" y="189.867158"/>
     <use style="fill:#008000;stroke:#008000;stroke-width:3;" x="686.202048" xlink:href="#me971fb94d6" y="355.457297"/>
     <use style="fill:#008000;stroke:#008000;stroke-width:3;" x="905.313104" xlink:href="#me971fb94d6" y="189.021495"/>
    </g>
   </g>
   <g id="PathCollection_3">
    <defs>
     <path d="M -5.700877 5.700877 
L 5.700877 -5.700877 
M -5.700877 -5.700877 
L 5.700877 5.700877 
" id="m360f3d485e" style="stroke:#800080;stroke-width:3;"/>
    </defs>
    <g clip-path="url(#p90f0e18228)">
     <use style="fill:#800080;stroke:#800080;stroke-width:3;" x="852.175245" xlink:href="#m360f3d485e" y="223.762897"/>
     <use style="fill:#800080;stroke:#800080;stroke-width:3;" x="762.535381" xlink:href="#m360f3d485e" y="223.762897"/>
     <use style="fill:#800080;stroke:#800080;stroke-width:3;" x="857.340338" xlink:href="#m360f3d485e" y="223.762897"/>
     <use style="fill:#800080;stroke:#800080;stroke-width:3;" x="809.379871" xlink:href="#m360f3d485e" y="223.762897"/>
    </g>
   </g>
   <g id="text_35">
    <!-- Zoomed in view -->
    <defs>
     <path d="M 52.203125 64.921875 
L 52.203125 69 
L 6.5 69 
L 6.5 62.734375 
L 25.203125 62.734375 
C 26.40625 62.734375 27.59375 62.734375 28.796875 62.734375 
L 41.59375 62.734375 
L 5.203125 4.28125 
L 5.203125 0 
L 52.703125 0 
L 52.703125 6.46875 
L 43.796875 6.46875 
C 35.5 6.46875 27.09375 6.46875 18.796875 6.46875 
L 15.796875 6.46875 
z
" id="CMSS17-90"/>
     <path d="M 67 29.328125 
C 67 36.0625 65.296875 44 54.09375 44 
C 46.59375 44 42.09375 39.3125 40.09375 36.421875 
C 38.296875 41.71875 34.09375 44 28.09375 44 
C 21.296875 44 17 40.125 14.703125 37.328125 
L 14.703125 43.09375 
L 7.40625 43.09375 
L 7.40625 0 
L 15 0 
L 15 24.359375 
C 15 30.296875 17.203125 37.9375 24.296875 37.9375 
C 33.40625 37.9375 33.40625 31.5 33.40625 28.578125 
L 33.40625 0 
L 41 0 
L 41 24.359375 
C 41 30.296875 43.203125 37.9375 50.296875 37.9375 
C 59.40625 37.9375 59.40625 31.5 59.40625 28.578125 
L 59.40625 0 
L 67 0 
z
" id="CMSS17-109"/>
     <path d="M 62.703125 43 
L 55.09375 43 
L 49.796875 25.015625 
C 48.703125 21.21875 45.59375 10.703125 45.203125 5.796875 
L 45.09375 5.796875 
C 44.90625 8.8125 43.203125 16 40.40625 25.515625 
L 35.296875 43 
L 28.40625 43 
L 23.40625 25.90625 
C 20.90625 17.203125 19 9.796875 18.796875 5.796875 
L 18.703125 5.796875 
C 18.296875 11.703125 14.203125 25.515625 13.59375 27.703125 
L 9.09375 43 
L 1.296875 43 
L 14.296875 0 
L 21.90625 0 
C 27.09375 17.125 31.09375 30.359375 31.40625 37.03125 
C 31.59375 33.75 33.296875 26.671875 34.296875 23.1875 
L 40.90625 0 
L 49.703125 0 
z
" id="CMSS17-119"/>
    </defs>
    <g transform="translate(772.071526 53.890405)scale(0.204 -0.204)">
     <use transform="scale(0.996264)" xlink:href="#CMSS17-90"/>
     <use transform="translate(57.253333 0)scale(0.996264)" xlink:href="#CMSS17-111"/>
     <use transform="translate(106.699395 0)scale(0.996264)" xlink:href="#CMSS17-111"/>
     <use transform="translate(153.543019 0)scale(0.996264)" xlink:href="#CMSS17-109"/>
     <use transform="translate(227.772273 0)scale(0.996264)" xlink:href="#CMSS17-101"/>
     <use transform="translate(269.411095 0)scale(0.996264)" xlink:href="#CMSS17-100"/>
     <use transform="translate(348.845151 0)scale(0.996264)" xlink:href="#CMSS17-105"/>
     <use transform="translate(371.025874 0)scale(0.996264)" xlink:href="#CMSS17-110"/>
     <use transform="translate(450.45993 0)scale(0.996264)" xlink:href="#CMSS17-118"/>
     <use transform="translate(493.460072 0)scale(0.996264)" xlink:href="#CMSS17-105"/>
     <use transform="translate(515.640795 0)scale(0.996264)" xlink:href="#CMSS17-101"/>
     <use transform="translate(557.279617 0)scale(0.996264)" xlink:href="#CMSS17-119"/>
    </g>
   </g>
   <g id="PathCollection_4">
    <defs>
     <path d="M -6.708204 0 
L 6.708204 0 
M 0 6.708204 
L 0 -6.708204 
" id="m189108207b" style="stroke:#a52a2a;stroke-width:3;"/>
    </defs>
    <g clip-path="url(#p90f0e18228)">
     <use style="fill:#a52a2a;stroke:#a52a2a;stroke-width:3;" x="825.331157" xlink:href="#m189108207b" y="244.02717"/>
    </g>
   </g>
   <g id="legend_2">
    <g id="patch_13">
     <path d="M 904.896368 434.436884 
L 1041.656659 434.436884 
Q 1044.488859 434.436884 1044.488859 431.604684 
L 1044.488859 354.075094 
Q 1044.488859 351.242894 1041.656659 351.242894 
L 904.896368 351.242894 
Q 902.064168 351.242894 902.064168 354.075094 
L 902.064168 431.604684 
Q 902.064168 434.436884 904.896368 434.436884 
z
" style="fill:#ffffff;opacity:0.8;stroke:#cccccc;stroke-linejoin:miter;"/>
    </g>
    <g id="PathCollection_5">
     <g>
      <use style="stroke:#000000;stroke-width:3;" x="921.889568" xlink:href="#mc02b48c5a3" y="363.102731"/>
     </g>
    </g>
    <g id="text_36">
     <!-- Max profit -->
     <defs>
      <path d="M 49.90625 37.046875 
L 45.09375 23.015625 
C 44.296875 20.421875 41.59375 12.359375 41 9.171875 
L 40.90625 9.171875 
C 40.59375 11.171875 40 13.265625 38.40625 18.34375 
C 37.5 21.328125 36.5 24.40625 35.5 27.203125 
L 20.703125 69 
L 9 69 
L 9 0 
L 16.796875 0 
L 16.796875 60.9375 
L 16.90625 60.9375 
C 16.90625 60.84375 17.796875 56.453125 23.90625 39.046875 
L 37.09375 1.5 
L 44.5 1.5 
L 56.40625 34.859375 
C 57.203125 37.15625 59.703125 44.421875 60.796875 47.90625 
C 61.796875 50.890625 64.296875 58.25 64.90625 61.140625 
L 65 61.140625 
L 65 0 
L 72.90625 0 
L 72.90625 69 
L 61.296875 69 
z
" id="CMSS17-77"/>
      <path d="M 24.796875 22.09375 
L 41.5 42.796875 
L 32.796875 42.796875 
L 21.296875 27.765625 
L 9.40625 42.796875 
L 0.5 42.796875 
L 17.796875 22.09375 
L 0 0 
L 8.796875 0 
L 21.296875 17.515625 
L 34.296875 0 
L 43.09375 0 
z
" id="CMSS17-120"/>
      <path d="M 43 69 
L 35 69 
L 35 61.03125 
L 43 61.03125 
z
M 42.703125 42.765625 
L 35.296875 42.765625 
L 35.296875 0 
L 42.703125 0 
z
M 16.796875 37 
L 27.703125 37 
L 27.703125 42.765625 
L 16.59375 42.765625 
L 16.59375 55.90625 
C 16.59375 61.234375 19 63.9375 22.203125 63.9375 
C 24.09375 63.9375 26 63.375 27.703125 62.375 
L 27.703125 68.90625 
C 26.90625 69.1875 24.59375 70 22.203125 70 
C 14.703125 70 9.40625 62.390625 9.40625 52.6875 
L 9.40625 42.765625 
L 2.5 42.765625 
L 2.5 37 
L 9.40625 37 
L 9.40625 0 
L 16.796875 0 
z
" id="CMSS17-12"/>
     </defs>
     <g transform="translate(947.379368 366.819994)scale(0.14161 -0.14161)">
      <use transform="scale(0.996264)" xlink:href="#CMSS17-77"/>
      <use transform="translate(81.67603 0)scale(0.996264)" xlink:href="#CMSS17-97"/>
      <use transform="translate(126.597951 0)scale(0.996264)" xlink:href="#CMSS17-120"/>
      <use transform="translate(200.827205 0)scale(0.996264)" xlink:href="#CMSS17-112"/>
      <use transform="translate(246.429694 0)scale(0.996264)" xlink:href="#CMSS17-114"/>
      <use transform="translate(278.339467 0)scale(0.996264)" xlink:href="#CMSS17-111"/>
      <use transform="translate(325.18309 0)scale(0.996264)" xlink:href="#CMSS17-12"/>
      <use transform="translate(375.309828 0)scale(0.996264)" xlink:href="#CMSS17-116"/>
     </g>
    </g>
    <g id="PathCollection_6">
     <g>
      <use style="fill:#008000;stroke:#008000;stroke-width:3;" x="921.889568" xlink:href="#me971fb94d6" y="382.839154"/>
     </g>
    </g>
    <g id="text_37">
     <!-- Single threshold -->
     <defs>
      <path d="M 43.703125 65.140625 
C 39.296875 67.71875 34.5 70 26.40625 70 
C 13.5 70 5.203125 60.609375 5.203125 51.03125 
C 5.203125 47.265625 6.296875 43.015625 10.203125 38.671875 
C 14.09375 34.3125 18.5 33.140625 24.09375 31.765625 
C 26.40625 31.15625 30.296875 30.0625 31 29.78125 
C 36.59375 27.609375 39.296875 22.5625 39.296875 17.8125 
C 39.296875 11.59375 34.40625 4.96875 25.703125 4.96875 
C 22.703125 4.96875 13.90625 4.96875 5.59375 12.796875 
L 4.203125 4.96875 
C 12.40625 -1 21.296875 -2 25.796875 -2 
C 38.09375 -2 46.90625 7.625 46.90625 18.53125 
C 46.90625 22.5 45.703125 27.546875 41.5 32.203125 
C 37.40625 36.671875 33.796875 37.65625 25.59375 39.828125 
C 20.90625 41.03125 17.90625 41.828125 15.40625 44.890625 
C 13.703125 47.078125 12.796875 49.15625 12.796875 51.828125 
C 12.796875 57.390625 17.59375 63.4375 26.40625 63.4375 
C 30.796875 63.4375 36.5 62.53125 42.296875 57.1875 
z
" id="CMSS17-83"/>
     </defs>
     <g transform="translate(947.379368 386.556416)scale(0.14161 -0.14161)">
      <use transform="scale(0.996264)" xlink:href="#CMSS17-83"/>
      <use transform="translate(52.048516 0)scale(0.996264)" xlink:href="#CMSS17-105"/>
      <use transform="translate(74.229239 0)scale(0.996264)" xlink:href="#CMSS17-110"/>
      <use transform="translate(122.434182 0)scale(0.996264)" xlink:href="#CMSS17-103"/>
      <use transform="translate(169.277806 0)scale(0.996264)" xlink:href="#CMSS17-108"/>
      <use transform="translate(191.458529 0)scale(0.996264)" xlink:href="#CMSS17-101"/>
      <use transform="translate(264.326464 0)scale(0.996264)" xlink:href="#CMSS17-116"/>
      <use transform="translate(298.15803 0)scale(0.996264)" xlink:href="#CMSS17-104"/>
      <use transform="translate(346.362974 0)scale(0.996264)" xlink:href="#CMSS17-114"/>
      <use transform="translate(378.272746 0)scale(0.996264)" xlink:href="#CMSS17-101"/>
      <use transform="translate(419.911568 0)scale(0.996264)" xlink:href="#CMSS17-115"/>
      <use transform="translate(455.82511 0)scale(0.996264)" xlink:href="#CMSS17-104"/>
      <use transform="translate(504.030053 0)scale(0.996264)" xlink:href="#CMSS17-111"/>
      <use transform="translate(550.873677 0)scale(0.996264)" xlink:href="#CMSS17-108"/>
      <use transform="translate(573.0544 0)scale(0.996264)" xlink:href="#CMSS17-100"/>
     </g>
    </g>
    <g id="PathCollection_7">
     <g>
      <use style="fill:#800080;stroke:#800080;stroke-width:3;" x="921.889568" xlink:href="#m360f3d485e" y="402.575576"/>
     </g>
    </g>
    <g id="text_38">
     <!-- Opportunity -->
     <g transform="translate(947.379368 406.292839)scale(0.14161 -0.14161)">
      <use transform="scale(0.996264)" xlink:href="#CMSS17-79"/>
      <use transform="translate(69.024255 0)scale(0.996264)" xlink:href="#CMSS17-112"/>
      <use transform="translate(117.229198 0)scale(0.996264)" xlink:href="#CMSS17-112"/>
      <use transform="translate(168.03658 0)scale(0.996264)" xlink:href="#CMSS17-111"/>
      <use transform="translate(212.27775 0)scale(0.996264)" xlink:href="#CMSS17-114"/>
      <use transform="translate(244.187522 0)scale(0.996264)" xlink:href="#CMSS17-116"/>
      <use transform="translate(278.019089 0)scale(0.996264)" xlink:href="#CMSS17-117"/>
      <use transform="translate(326.224032 0)scale(0.996264)" xlink:href="#CMSS17-110"/>
      <use transform="translate(374.428975 0)scale(0.996264)" xlink:href="#CMSS17-105"/>
      <use transform="translate(396.609698 0)scale(0.996264)" xlink:href="#CMSS17-116"/>
      <use transform="translate(427.838811 0)scale(0.996264)" xlink:href="#CMSS17-121"/>
     </g>
    </g>
    <g id="PathCollection_8">
     <g>
      <use style="fill:#a52a2a;stroke:#a52a2a;stroke-width:3;" x="921.889568" xlink:href="#m189108207b" y="422.311999"/>
     </g>
    </g>
    <g id="text_39">
     <!-- Equal odds -->
     <defs>
      <path d="M 30.59375 6.765625 
C 22.59375 6.765625 19 6.765625 17.203125 6.765625 
L 17.203125 32.921875 
L 48.203125 32.921875 
L 48.203125 39 
L 17.203125 39 
L 17.203125 62.640625 
L 30.09375 62.640625 
C 31.296875 62.640625 32.5 62.640625 33.703125 62.640625 
L 50.796875 62.640625 
L 50.796875 69 
L 8.796875 69 
L 8.796875 0 
L 52.09375 0 
L 52.09375 6.765625 
z
" id="CMSS17-69"/>
      <path d="M 40.796875 44 
L 33.40625 44 
L 33.40625 37.9375 
C 33 38.4375 28.40625 44 20.59375 44 
C 11.5 44 3.296875 34.8125 3.296875 21.859375 
C 3.296875 9.890625 10.203125 -0.078125 19.203125 -0.078125 
C 23.40625 -0.078125 28.703125 1.421875 33.203125 5.703125 
L 33.203125 -19 
L 40.796875 -19 
z
M 33.40625 14.28125 
C 33.40625 13 33.40625 11.21875 30.296875 8.65625 
C 29.5 7.96875 27.296875 6 23.5 6 
C 16.40625 6 10.90625 13.28125 10.90625 21.859375 
C 10.90625 31.421875 17.59375 37.734375 24.40625 37.734375 
C 30.09375 37.734375 33.40625 32.203125 33.40625 28.078125 
z
" id="CMSS17-113"/>
     </defs>
     <g transform="translate(947.379368 426.029261)scale(0.14161 -0.14161)">
      <use transform="scale(0.996264)" xlink:href="#CMSS17-69"/>
      <use transform="translate(55.892013 0)scale(0.996264)" xlink:href="#CMSS17-113"/>
      <use transform="translate(104.096956 0)scale(0.996264)" xlink:href="#CMSS17-117"/>
      <use transform="translate(152.301899 0)scale(0.996264)" xlink:href="#CMSS17-97"/>
      <use transform="translate(197.22382 0)scale(0.996264)" xlink:href="#CMSS17-108"/>
      <use transform="translate(250.633656 0)scale(0.996264)" xlink:href="#CMSS17-111"/>
      <use transform="translate(300.079718 0)scale(0.996264)" xlink:href="#CMSS17-100"/>
      <use transform="translate(348.284661 0)scale(0.996264)" xlink:href="#CMSS17-100"/>
      <use transform="translate(396.489604 0)scale(0.996264)" xlink:href="#CMSS17-115"/>
     </g>
    </g>
   </g>
  </g>
 </g>
 <defs>
  <clipPath id="p0bd53202f6">
   <rect height="370.51163" width="432.291576" x="88.457783" y="71.005754"/>
  </clipPath>
  <clipPath id="p90f0e18228">
   <rect height="370.51163" width="432.291576" x="619.277783" y="71.005754"/>
  </clipPath>
 </defs>
</svg>
